<svg width="510" height="261" viewBox="0 0 510 261" fill="none" xmlns="http://www.w3.org/2000/svg">
<g clip-path="url(#clip0_492_5938)" filter="url(#filter0_d_492_5938)">
<mask id="mask0_492_5938" style="mask-type:luminance" maskUnits="userSpaceOnUse" x="32" y="13" width="465" height="228">
<path d="M32.9111 239.309L33.6666 13.3527L490.232 14.8793C493.811 14.8912 496.703 17.8685 496.691 21.529L495.981 233.626C495.968 237.62 492.792 240.846 488.888 240.833L32.9111 239.309Z" fill="white"/>
</mask>
<g mask="url(#mask0_492_5938)">
<path d="M32.9111 239.309L33.6666 13.3527L490.232 14.8793C493.811 14.8912 496.703 17.8685 496.691 21.529L495.981 233.626C495.968 237.62 492.792 240.846 488.888 240.833L32.9111 239.309Z" fill="#418154"/>
<path d="M295.619 75.3881L295.265 181.437C295.246 187.094 299.714 191.695 305.245 191.714L310.548 191.731C316.079 191.75 320.578 187.179 320.597 181.522L320.951 75.4728C320.97 69.8156 316.502 65.2145 310.971 65.196L305.669 65.1783C300.137 65.1598 295.638 69.7309 295.619 75.3881Z" fill="#418154"/>
</g>
<path d="M22.1662 238.67C17.0393 238.653 12.8948 235.141 12.9092 230.827L13.6205 18.0932C13.6294 15.4382 16.1942 13.2942 19.3492 13.3047L37.2013 13.3644L36.4478 238.718L22.1662 238.67Z" fill="#418154"/>
<path opacity="0.35" d="M23.4732 32.1002L23.4944 25.7554C23.498 24.672 24.3594 23.797 25.4183 23.8005L26.4967 23.8041C27.5557 23.8076 28.4112 24.6884 28.4076 25.7718L28.3864 32.1167C28.3828 33.2001 27.5214 34.0751 26.4624 34.0715L25.384 34.0679C24.3251 34.0644 23.4695 33.1836 23.4732 32.1002Z" stroke="#ECECEC" stroke-width="0.751085"/>
<path opacity="0.4" d="M24.9374 22.8389L26.9839 22.8457C26.8119 22.436 26.4096 22.1689 25.9629 22.1674C25.5162 22.1659 25.1121 22.4303 24.9374 22.8389Z" fill="#ECECEC"/>
<path d="M133.234 2.59229L133.237 1.70051C133.239 1.20822 133.632 0.810054 134.116 0.811671L191.311 1.0029C191.794 1.00452 192.185 1.40531 192.183 1.89759L192.18 2.78937L133.234 2.59229Z" fill="#303030"/>
<path d="M203.608 250.75L203.605 251.642C203.603 252.135 203.21 252.533 202.727 252.531L168.293 252.416C167.809 252.414 167.419 252.014 167.42 251.521L167.423 250.629L203.608 250.75Z" fill="#303030"/>
<path d="M155.75 250.59L155.747 251.482C155.746 251.975 155.352 252.373 154.869 252.371L120.435 252.256C119.951 252.254 119.561 251.854 119.563 251.361L119.566 250.469L155.75 250.59Z" fill="white"/>
<path d="M102.057 250.411L102.054 251.302C102.052 251.795 101.659 252.193 101.176 252.191L84.2504 252.135C83.7667 252.133 83.3763 251.733 83.3779 251.24L83.3809 250.348L102.057 250.411Z" fill="white"/>
<path fill-rule="evenodd" clip-rule="evenodd" d="M30.2271 248.279C35.9351 250.19 42.9961 250.213 57.1178 250.26L451.648 251.579C465.77 251.627 472.83 251.65 478.551 249.778C490.113 245.994 499.199 236.8 502.99 225.048C504.866 219.233 504.89 212.04 504.938 197.655L505.406 57.9402C505.454 43.5543 505.478 36.3617 503.64 30.5343C499.928 18.7569 490.904 9.50283 479.367 5.64164C473.659 3.73053 466.599 3.70691 452.477 3.6597L57.9467 2.34059C43.825 2.29338 36.7641 2.26978 31.0434 4.14268C19.4816 7.92664 10.3962 17.1202 6.60432 28.8724C4.72816 34.6875 4.70412 41.8801 4.65602 56.2659L4.18889 195.98C4.14079 210.366 4.11674 217.559 5.95397 223.386C9.66715 235.164 18.6909 244.418 30.2271 248.279ZM18.5175 187.11L21.1438 187.119L21.1426 187.076L21.4356 187.12C28.3656 187.143 34.0027 181.439 34.0263 174.379L34.3483 78.0651C34.3719 71.0056 28.7731 65.2638 21.8431 65.2406L21.5499 65.2824L21.5513 65.2403L18.925 65.2315C17.1522 65.2256 15.72 63.7566 15.726 61.9507L15.7516 54.2929C15.7916 42.3215 15.8116 36.3357 17.5984 31.5677C20.4068 24.074 26.2411 18.1698 33.6164 15.3594C38.3087 13.5711 44.1845 13.5907 55.9363 13.63L454.412 14.9623C466.163 15.0016 472.039 15.0212 476.72 16.8409C484.076 19.7005 489.871 25.6437 492.628 33.1559C494.383 37.9358 494.363 43.9216 494.323 55.893L493.843 199.627C493.803 211.598 493.783 217.584 491.996 222.352C489.188 229.846 483.353 235.75 475.978 238.56C471.286 240.349 465.41 240.329 453.658 240.29L55.1829 238.957C43.4311 238.918 37.5553 238.898 32.8751 237.079C25.5187 234.219 19.724 228.276 16.9658 220.764C15.211 215.984 15.231 209.998 15.271 198.027L15.2967 190.369C15.3027 188.563 16.7447 187.104 18.5175 187.11Z" fill="white"/>
<path fill-rule="evenodd" clip-rule="evenodd" d="M5.8242 56.0313L5.35548 196.222C5.30797 210.433 5.29189 217.397 7.06546 223.022C10.6644 234.437 19.4105 243.407 30.5918 247.149C36.102 248.993 42.9386 249.024 56.8884 249.07L451.885 250.391C465.835 250.438 472.672 250.453 478.194 248.646C489.401 244.978 498.207 236.067 501.881 224.677C503.693 219.063 503.723 212.099 503.771 197.888L504.239 57.6978C504.287 43.4872 504.303 36.5229 502.529 30.8976C498.931 19.4821 490.184 10.5134 479.003 6.77087C473.493 4.9261 466.656 4.89601 452.706 4.84937L57.7094 3.52871C43.7595 3.48207 36.9229 3.46644 31.4005 5.27433C20.1944 8.94198 11.3886 17.8521 7.71336 29.2432C5.90221 34.8565 5.87172 41.8208 5.8242 56.0313ZM30.4095 247.714C36.0297 249.595 42.982 249.618 56.8865 249.665L451.883 250.985C465.788 251.032 472.74 251.055 478.373 249.212C489.756 245.486 498.703 236.434 502.436 224.862C504.283 219.137 504.307 212.055 504.354 197.89L504.823 57.6997C504.87 43.5356 504.894 36.4532 503.085 30.7156C499.429 19.1193 490.544 10.0078 479.185 6.20569C473.565 4.32499 466.613 4.30175 452.708 4.25526L57.7114 2.9346C43.8069 2.88811 36.8546 2.86486 31.222 4.70793C19.8381 8.43404 10.8924 17.4859 7.15891 29.0575C5.31162 34.7829 5.28794 41.8652 5.24058 56.0294L4.77186 196.22C4.7245 210.384 4.70082 217.467 6.50979 223.204C10.1659 234.8 19.0508 243.912 30.4095 247.714Z" fill="#303030"/>
<path fill-rule="evenodd" clip-rule="evenodd" d="M31.1383 245.453C36.4073 247.217 42.925 247.239 55.9605 247.282L452.825 248.609C465.86 248.653 472.378 248.675 477.659 246.946C488.331 243.453 496.718 234.967 500.218 224.119C501.95 218.751 501.972 212.112 502.017 198.833L502.492 56.7394C502.536 43.4604 502.558 36.8209 500.862 31.4422C497.435 20.5703 489.105 12.0283 478.456 8.46412C473.187 6.7003 466.669 6.6785 453.634 6.63492L56.7695 5.30801C43.734 5.26443 37.2163 5.24264 31.9357 6.97119C21.2632 10.4641 12.8767 18.9501 9.37653 29.7989C7.64469 35.1661 7.62249 41.8056 7.5781 55.0846L7.10301 197.178C7.05861 210.457 7.03641 217.096 8.73232 222.475C12.1598 233.347 20.4895 241.889 31.1383 245.453ZM18.5175 187.109L21.1438 187.118L21.1426 187.075L21.4356 187.119C28.3656 187.142 34.0026 181.438 34.0262 174.379L34.3482 78.0646C34.3718 71.0052 28.7731 65.2634 21.8431 65.2402L21.5498 65.282L21.5513 65.2392L18.925 65.2304C17.1522 65.2245 15.7199 63.7561 15.726 61.9497L15.7516 54.2919C15.7916 42.321 15.8116 36.3353 17.5983 31.5672C20.4068 24.073 26.241 18.1693 33.6164 15.3584C38.3086 13.5706 44.1845 13.5903 55.9363 13.6295L454.412 14.9618C466.163 15.0011 472.039 15.0208 476.72 16.8399C484.076 19.7001 489.871 25.6426 492.628 33.1554C494.383 37.9354 494.363 43.9211 494.323 55.8919L493.843 199.626C493.803 211.597 493.783 217.583 491.996 222.351C489.188 229.845 483.353 235.749 475.978 238.56C471.286 240.348 465.41 240.328 453.658 240.289L55.1829 238.957C43.4311 238.917 37.5553 238.898 32.875 237.078C25.5187 234.218 19.724 228.276 16.9658 220.763C15.2109 215.983 15.231 209.997 15.271 198.026L15.2966 190.368C15.3026 188.562 16.7447 187.103 18.5175 187.109Z" fill="#121515"/>
<path d="M4.6719 51.5088L4.65997 55.0759L7.5781 55.0857L7.59002 51.5185L4.6719 51.5088Z" fill="#414141"/>
<path d="M55.0286 2.33053L55.0187 5.30322L58.5204 5.31493L58.5304 2.34223L55.0286 2.33053Z" fill="#414141"/>
<path d="M54.2096 247.277L54.1997 250.25L57.7015 250.261L57.7114 247.289L54.2096 247.277Z" fill="#414141"/>
<path d="M451.074 248.604L451.064 251.577L454.566 251.588L454.576 248.616L451.074 248.604Z" fill="#414141"/>
<path d="M451.893 3.65743L451.883 6.63013L455.385 6.64183L455.395 3.66914L451.893 3.65743Z" fill="#414141"/>
<path d="M502.017 198.834L502.005 202.401L504.923 202.411L504.935 198.843L502.017 198.834Z" fill="#414141"/>
<path fill-rule="evenodd" clip-rule="evenodd" d="M27.852 100.933C27.8608 98.3061 25.7775 96.1697 23.1989 96.1611C20.6203 96.1525 18.5228 98.2749 18.514 100.901C18.5052 103.529 20.5885 105.665 23.1671 105.674C25.7457 105.682 27.8432 103.56 27.852 100.933Z" fill="#262C2D"/>
<path fill-rule="evenodd" clip-rule="evenodd" d="M26.1011 100.928C26.1066 99.2863 24.8045 97.9509 23.1929 97.9455C21.5812 97.9401 20.2703 99.2668 20.2648 100.908C20.2593 102.55 21.5614 103.885 23.173 103.891C24.7846 103.896 26.0956 102.57 26.1011 100.928Z" fill="#121515"/>
<path opacity="0.4" fill-rule="evenodd" clip-rule="evenodd" d="M22.5999 100.915C22.601 100.586 22.3405 100.319 22.018 100.318C21.6955 100.317 21.4332 100.582 21.4321 100.911C21.431 101.24 21.6916 101.507 22.014 101.508C22.3365 101.509 22.5988 101.244 22.5999 100.915Z" fill="#636F73"/>
<path fill-rule="evenodd" clip-rule="evenodd" d="M23.0496 140.75C22.0826 140.747 21.3014 139.943 21.3048 138.954L21.3902 113.403C21.3935 112.415 22.18 111.615 23.147 111.618C24.114 111.622 24.8952 112.426 24.8919 113.415L24.8065 138.966C24.8032 139.954 24.0166 140.754 23.0496 140.75Z" fill="#262C2D"/>
<rect width="201.567" height="186.588" rx="17" transform="matrix(1 0.000484193 -0.000891074 1 51.8589 34.6311)" fill="#D7F0E6"/>
<path d="M126.88 48.2926L126.87 59.6676L124.909 59.6666L124.919 48.2916L126.88 48.2926ZM130.393 53.0209L130.387 59.6693L128.504 59.6684L128.512 51.2153L130.285 51.2161L130.393 53.0209ZM130.055 55.1301L129.446 55.122C129.452 54.523 129.536 53.9736 129.697 53.4736C129.865 52.9737 130.094 52.5441 130.386 52.1849C130.683 51.8257 131.038 51.5498 131.449 51.3573C131.861 51.1596 132.319 51.0608 132.825 51.0611C133.231 51.0613 133.598 51.1188 133.926 51.2335C134.259 51.343 134.543 51.5229 134.777 51.773C135.016 52.0231 135.198 52.3487 135.323 52.7498C135.448 53.1457 135.51 53.6327 135.509 54.2108L135.504 59.6718L133.614 59.6708L133.619 54.2021C133.619 53.7959 133.559 53.4755 133.44 53.2411C133.325 53.0014 133.156 52.8321 132.932 52.733C132.714 52.6287 132.44 52.5765 132.112 52.5764C131.789 52.5762 131.5 52.6438 131.245 52.7791C130.99 52.9144 130.773 53.0992 130.596 53.3334C130.424 53.5677 130.291 53.8385 130.197 54.1458C130.103 54.453 130.056 54.7811 130.055 55.1301ZM142.248 51.2219L143.959 51.2227L143.952 59.4415C143.951 60.2019 143.789 60.8476 143.465 61.3787C143.142 61.9098 142.691 62.3133 142.113 62.589C141.534 62.87 140.865 63.0103 140.105 63.0099C139.782 63.0098 139.422 62.9627 139.027 62.8688C138.636 62.7748 138.256 62.6236 137.886 62.4151C137.522 62.2118 137.218 61.9434 136.973 61.61L137.857 60.501C138.159 60.8605 138.492 61.1237 138.856 61.2906C139.221 61.4574 139.603 61.5409 140.004 61.5411C140.437 61.5413 140.804 61.4608 141.106 61.2995C141.414 61.1434 141.651 60.9117 141.818 60.6045C141.985 60.2973 142.068 59.9223 142.069 59.4796L142.074 53.1359L142.248 51.2219ZM136.502 55.5394L136.502 55.3754C136.503 54.7347 136.581 54.1515 136.738 53.6255C136.895 53.0943 137.119 52.6387 137.411 52.2586C137.703 51.8733 138.057 51.5792 138.474 51.3763C138.891 51.1682 139.363 51.0643 139.889 51.0645C140.436 51.0648 140.902 51.164 141.287 51.3621C141.677 51.5602 142.003 51.8442 142.263 52.2141C142.523 52.5788 142.725 53.0164 142.871 53.5269C143.021 54.0322 143.133 54.5947 143.205 55.2146L143.205 55.738C143.137 56.3421 143.021 56.8942 142.86 57.3941C142.698 57.894 142.484 58.3262 142.218 58.6906C141.952 59.0551 141.623 59.3362 141.233 59.5339C140.847 59.7316 140.391 59.8304 139.865 59.8301C139.35 59.8299 138.884 59.7229 138.467 59.5091C138.056 59.2954 137.702 58.9957 137.405 58.6102C137.114 58.2246 136.89 57.7714 136.735 57.2505C136.579 56.7244 136.501 56.154 136.502 55.5394ZM138.385 55.3763L138.385 55.5403C138.384 55.9258 138.42 56.2852 138.493 56.6185C138.571 56.9519 138.688 57.2462 138.844 57.5015C139.005 57.7516 139.208 57.9496 139.453 58.0955C139.703 58.2363 139.997 58.3068 140.335 58.3069C140.778 58.3071 141.14 58.2136 141.422 58.0262C141.708 57.8388 141.927 57.5863 142.078 57.2687C142.235 56.9459 142.345 56.5865 142.408 56.1907L142.409 54.7767C142.378 54.4694 142.313 54.1829 142.214 53.9172C142.121 53.6515 141.993 53.4197 141.832 53.2217C141.671 53.0185 141.468 52.8622 141.223 52.7527C140.978 52.638 140.689 52.5805 140.356 52.5804C140.018 52.5802 139.723 52.653 139.473 52.7987C139.223 52.9444 139.017 53.1448 138.855 53.3999C138.699 53.6551 138.581 53.9519 138.503 54.2904C138.425 54.6289 138.385 54.9909 138.385 55.3763ZM147.201 52.8337L147.195 59.6774L145.312 59.6765L145.32 51.2234L147.117 51.2243L147.201 52.8337ZM149.789 51.1709L149.771 52.9209C149.657 52.9 149.532 52.8843 149.396 52.8738C149.266 52.8633 149.136 52.8581 149.006 52.858C148.683 52.8578 148.399 52.9046 148.154 52.9982C147.909 53.0866 147.703 53.2167 147.537 53.3885C147.375 53.5551 147.25 53.7582 147.161 53.9977C147.072 54.2373 147.02 54.5055 147.004 54.8023L146.574 54.8334C146.575 54.3021 146.627 53.81 146.732 53.3569C146.837 52.9038 146.993 52.5055 147.202 52.1618C147.416 51.8182 147.681 51.5501 147.999 51.3575C148.322 51.1649 148.695 51.0688 149.117 51.069C149.231 51.069 149.354 51.0795 149.484 51.1004C149.619 51.1213 149.721 51.1448 149.789 51.1709ZM153.931 59.8369C153.306 59.8366 152.741 59.7348 152.236 59.5314C151.736 59.3229 151.309 59.0336 150.955 58.6636C150.607 58.2937 150.339 57.8586 150.152 57.3585C149.965 56.8585 149.871 56.3193 149.872 55.7412L149.872 55.4287C149.873 54.7673 149.97 54.1684 150.163 53.632C150.356 53.0956 150.625 52.6374 150.969 52.2574C151.313 51.8721 151.719 51.5781 152.188 51.3752C152.657 51.1723 153.165 51.0709 153.712 51.0712C154.316 51.0715 154.845 51.1733 155.298 51.3767C155.751 51.58 156.125 51.8666 156.422 52.2366C156.724 52.6013 156.947 53.0363 157.093 53.5416C157.243 54.0469 157.318 54.6042 157.318 55.2136L157.317 56.0183L150.786 56.0151L150.787 54.6635L155.459 54.6658L155.459 54.5174C155.449 54.1788 155.381 53.8611 155.257 53.5641C155.137 53.2672 154.953 53.0275 154.703 52.8451C154.453 52.6627 154.12 52.5714 153.703 52.5712C153.39 52.571 153.112 52.6386 152.867 52.7739C152.627 52.904 152.426 53.094 152.265 53.3439C152.103 53.5939 151.978 53.8959 151.889 54.25C151.805 54.5989 151.763 54.9921 151.763 55.4296L151.763 55.7421C151.762 56.1119 151.811 56.4557 151.91 56.7735C152.014 57.086 152.165 57.3595 152.363 57.594C152.56 57.8285 152.8 58.0135 153.081 58.149C153.362 58.2794 153.682 58.3446 154.042 58.3448C154.495 58.345 154.898 58.2541 155.253 58.0719C155.607 57.8898 155.915 57.6322 156.175 57.299L157.167 58.2604C156.984 58.5259 156.747 58.781 156.455 59.0257C156.163 59.2651 155.806 59.4602 155.384 59.6111C154.967 59.7619 154.483 59.8372 153.931 59.8369ZM162.927 57.396C162.927 57.2085 162.88 57.0392 162.787 56.8881C162.693 56.7318 162.513 56.5911 162.248 56.466C161.988 56.3408 161.602 56.2261 161.092 56.1217C160.644 56.0225 160.233 55.9051 159.858 55.7695C159.488 55.6287 159.171 55.4593 158.905 55.2612C158.64 55.0632 158.434 54.8287 158.289 54.5578C158.143 54.2869 158.07 53.9744 158.071 53.6202C158.071 53.2764 158.147 52.951 158.298 52.6437C158.45 52.3365 158.666 52.0658 158.947 51.8316C159.229 51.5973 159.57 51.4126 159.971 51.2774C160.378 51.1421 160.831 51.0747 161.331 51.0749C162.039 51.0752 162.646 51.1953 163.151 51.4351C163.661 51.6698 164.051 51.9903 164.322 52.3967C164.592 52.7978 164.727 53.251 164.727 53.7562L162.844 53.7553C162.844 53.5314 162.787 53.323 162.673 53.1302C162.564 52.9323 162.397 52.7733 162.173 52.6534C161.949 52.5283 161.668 52.4657 161.33 52.4655C161.007 52.4654 160.738 52.5173 160.525 52.6214C160.316 52.7202 160.16 52.8504 160.056 53.0118C159.957 53.1732 159.907 53.3502 159.907 53.543C159.907 53.6836 159.933 53.8112 159.985 53.9258C160.042 54.0352 160.135 54.1368 160.266 54.2306C160.396 54.3192 160.573 54.4027 160.797 54.4809C161.026 54.5591 161.312 54.6348 161.656 54.7079C162.301 54.8436 162.856 55.0183 163.319 55.2321C163.788 55.4407 164.147 55.7117 164.397 56.0451C164.646 56.3734 164.771 56.7901 164.771 57.2953C164.77 57.6703 164.689 58.014 164.528 58.3264C164.371 58.6337 164.142 58.9018 163.839 59.1308C163.537 59.3546 163.175 59.5289 162.753 59.6537C162.336 59.7785 161.867 59.8408 161.346 59.8405C160.581 59.8402 159.933 59.7044 159.402 59.4333C158.871 59.157 158.467 58.8053 158.192 58.3781C157.921 57.9456 157.786 57.4977 157.786 57.0341L159.607 57.035C159.627 57.384 159.723 57.6627 159.895 57.8711C160.072 58.0743 160.291 58.2228 160.551 58.3167C160.817 58.4054 161.09 58.4498 161.371 58.4499C161.71 58.4501 161.994 58.4059 162.223 58.3175C162.452 58.2239 162.627 58.099 162.747 57.9428C162.867 57.7814 162.927 57.5991 162.927 57.396ZM165.461 55.5535L165.461 55.3738C165.462 54.7644 165.551 54.1993 165.729 53.6786C165.906 53.1526 166.162 52.697 166.495 52.3118C166.834 51.9213 167.246 51.6194 167.731 51.4061C168.22 51.1876 168.773 51.0785 169.387 51.0788C170.007 51.0791 170.559 51.1887 171.043 51.4077C171.532 51.6215 171.946 51.9238 172.284 52.3146C172.623 52.7002 172.88 53.156 173.057 53.6821C173.233 54.2031 173.321 54.7682 173.321 55.3776L173.321 55.5573C173.32 56.1666 173.231 56.7317 173.053 57.2524C172.876 57.7732 172.618 58.2288 172.279 58.6193C171.94 59.0045 171.528 59.3064 171.044 59.5249C170.559 59.7382 170.009 59.8447 169.395 59.8444C168.775 59.8441 168.221 59.7371 167.731 59.5233C167.247 59.3043 166.836 59.002 166.498 58.6165C166.159 58.2257 165.902 57.7698 165.725 57.2489C165.549 56.728 165.461 56.1628 165.461 55.5535ZM167.344 55.3747L167.344 55.5544C167.344 55.9346 167.382 56.294 167.46 56.6325C167.538 56.9711 167.66 57.2681 167.827 57.5234C167.993 57.7786 168.206 57.9793 168.467 58.1252C168.727 58.2712 169.037 58.3442 169.396 58.3444C169.745 58.3446 170.047 58.2718 170.303 58.1261C170.563 57.9804 170.777 57.78 170.944 57.5249C171.111 57.2697 171.233 56.9729 171.312 56.6344C171.395 56.2959 171.437 55.9366 171.438 55.5563L171.438 55.3767C171.438 55.0017 171.397 54.6475 171.314 54.3141C171.236 53.9755 171.111 53.676 170.94 53.4155C170.773 53.155 170.56 52.9518 170.3 52.8058C170.045 52.6546 169.74 52.579 169.386 52.5788C169.032 52.5786 168.724 52.654 168.464 52.8049C168.208 52.9506 167.997 53.1536 167.83 53.414C167.663 53.6743 167.541 53.9737 167.462 54.3122C167.384 54.6455 167.345 54.9997 167.344 55.3747ZM179.039 57.4038C179.039 57.2163 178.993 57.047 178.899 56.8959C178.805 56.7396 178.626 56.5989 178.36 56.4738C178.1 56.3486 177.715 56.2339 177.204 56.1295C176.757 56.0303 176.345 55.9129 175.97 55.7773C175.601 55.6365 175.283 55.4671 175.018 55.269C174.752 55.071 174.547 54.8365 174.401 54.5656C174.256 54.2947 174.183 53.9822 174.183 53.628C174.184 53.2842 174.259 52.9588 174.411 52.6515C174.562 52.3443 174.778 52.0736 175.06 51.8394C175.341 51.6051 175.683 51.4204 176.084 51.2852C176.49 51.1499 176.943 51.0825 177.443 51.0827C178.152 51.083 178.758 51.2031 179.263 51.443C179.774 51.6776 180.164 51.9981 180.434 52.4045C180.705 52.8056 180.84 53.2588 180.839 53.764L178.957 53.7631C178.957 53.5392 178.9 53.3308 178.785 53.138C178.676 52.9401 178.51 52.7811 178.286 52.6612C178.062 52.5361 177.781 52.4735 177.442 52.4733C177.119 52.4732 176.851 52.5251 176.637 52.6292C176.429 52.728 176.272 52.8582 176.168 53.0196C176.069 53.181 176.019 53.358 176.019 53.5508C176.019 53.6914 176.045 53.819 176.097 53.9336C176.154 54.043 176.248 54.1446 176.378 54.2384C176.508 54.327 176.685 54.4105 176.909 54.4887C177.138 54.5669 177.425 54.6426 177.768 54.7157C178.414 54.8514 178.968 55.0261 179.432 55.2399C179.9 55.4485 180.26 55.7195 180.509 56.0529C180.759 56.3812 180.884 56.7979 180.883 57.3031C180.883 57.6781 180.802 58.0218 180.64 58.3342C180.483 58.6415 180.254 58.9096 179.952 59.1386C179.65 59.3624 179.287 59.5367 178.865 59.6615C178.449 59.7863 177.98 59.8486 177.459 59.8483C176.693 59.848 176.045 59.7122 175.514 59.4411C174.983 59.1648 174.58 58.8131 174.304 58.3859C174.034 57.9534 173.899 57.5055 173.899 57.0419L175.719 57.0428C175.74 57.3918 175.836 57.6705 176.008 57.8789C176.185 58.0821 176.403 58.2306 176.663 58.3245C176.929 58.4132 177.202 58.4576 177.484 58.4577C177.822 58.4579 178.106 58.4137 178.335 58.3253C178.565 58.2317 178.739 58.1068 178.859 57.9506C178.979 57.7892 179.039 57.6069 179.039 57.4038Z" fill="black" fill-opacity="0.9"/>
<path d="M112.856 79.7272L110.607 79.1753L111.54 70.5976L120.739 70.6021L120.737 72.9927L113.882 72.9894L113.409 77.1727C113.675 77.0166 114.042 76.8644 114.511 76.7162C114.98 76.5602 115.515 76.4823 116.117 76.4826C116.921 76.483 117.64 76.6162 118.273 76.8821C118.913 77.1402 119.456 77.5194 119.901 78.0196C120.345 78.512 120.685 79.1138 120.918 79.8248C121.152 80.528 121.269 81.3211 121.268 82.2039C121.267 82.9929 121.149 83.7312 120.914 84.4186C120.687 85.1059 120.343 85.7112 119.882 86.2345C119.42 86.7577 118.838 87.1675 118.134 87.4641C117.439 87.7528 116.614 87.8969 115.661 87.8965C114.95 87.8961 114.267 87.7942 113.611 87.5908C112.963 87.3795 112.381 87.0707 111.865 86.6642C111.35 86.2499 110.937 85.7418 110.625 85.1401C110.313 84.5306 110.134 83.8313 110.087 83.0422L112.853 83.0436C112.923 83.5983 113.075 84.071 113.309 84.4617C113.551 84.8447 113.871 85.1378 114.269 85.3411C114.667 85.5444 115.128 85.6462 115.652 85.6465C116.128 85.6467 116.538 85.5649 116.882 85.401C117.226 85.2293 117.512 84.9872 117.738 84.6748C117.973 84.3546 118.145 83.9797 118.255 83.5501C118.373 83.1204 118.432 82.6439 118.432 82.1205C118.432 81.6205 118.366 81.1634 118.234 80.7493C118.109 80.3352 117.918 79.9757 117.661 79.6709C117.411 79.3661 117.095 79.1315 116.712 78.9673C116.33 78.7952 115.888 78.7091 115.388 78.7088C114.716 78.7085 114.201 78.8059 113.841 79.0011C113.489 79.1962 113.161 79.4382 112.856 79.7272ZM122.907 86.2594C122.908 85.8219 123.056 85.4547 123.354 85.158C123.651 84.8535 124.053 84.7013 124.561 84.7016C125.077 84.7018 125.479 84.8544 125.768 85.1592C126.064 85.4562 126.212 85.8235 126.212 86.261C126.212 86.6985 126.063 87.0656 125.766 87.3623C125.476 87.659 125.074 87.8073 124.558 87.807C124.05 87.8068 123.648 87.6582 123.352 87.3611C123.055 87.0641 122.907 86.6969 122.907 86.2594ZM130.68 85.4428L130.914 85.4429C131.992 85.4434 132.891 85.3033 133.61 85.0224C134.337 84.7336 134.915 84.3355 135.345 83.8279C135.776 83.3203 136.085 82.7228 136.273 82.0354C136.461 81.348 136.555 80.6019 136.556 79.7972L136.559 76.8558C136.559 76.1605 136.486 75.5511 136.338 75.0276C136.197 74.4963 135.995 74.0548 135.729 73.7031C135.472 73.3436 135.171 73.0739 134.828 72.894C134.492 72.7142 134.129 72.6242 133.738 72.624C133.308 72.6238 132.922 72.7212 132.578 72.9164C132.242 73.1037 131.956 73.3653 131.722 73.7011C131.495 74.0291 131.319 74.4158 131.193 74.861C131.076 75.2985 131.017 75.7672 131.016 76.2672C131.016 76.7359 131.07 77.1891 131.179 77.6266C131.296 78.0564 131.467 78.4393 131.694 78.7753C131.92 79.1114 132.205 79.3771 132.548 79.5726C132.892 79.7681 133.294 79.866 133.755 79.8662C134.193 79.8664 134.595 79.7846 134.962 79.6207C135.33 79.449 135.65 79.2187 135.924 78.9297C136.198 78.6408 136.413 78.3167 136.569 77.9574C136.726 77.5981 136.812 77.2309 136.828 76.8559L137.906 77.1846C137.905 77.7783 137.78 78.3642 137.529 78.9422C137.287 79.5124 136.946 80.0357 136.508 80.512C136.078 80.9806 135.574 81.3553 134.996 81.6363C134.425 81.9173 133.804 82.0576 133.132 82.0573C132.32 82.0569 131.601 81.9042 130.976 81.5992C130.359 81.2864 129.844 80.8643 129.431 80.3328C129.025 79.8014 128.721 79.1919 128.518 78.5043C128.316 77.8167 128.215 77.094 128.215 76.3362C128.216 75.5158 128.342 74.7464 128.592 74.0277C128.843 73.3091 129.207 72.6765 129.684 72.1298C130.161 71.5754 130.739 71.146 131.419 70.8416C132.107 70.5294 132.885 70.3736 133.752 70.374C134.674 70.3744 135.482 70.5545 136.177 70.9142C136.872 71.2739 137.458 71.7703 137.934 72.4034C138.41 73.0364 138.768 73.7709 139.01 74.607C139.251 75.4431 139.372 76.3416 139.371 77.3025L139.37 78.2986C139.369 79.3064 139.278 80.279 139.098 81.2164C138.917 82.146 138.623 83.0092 138.216 83.8058C137.817 84.5947 137.289 85.2898 136.633 85.891C135.984 86.4844 135.186 86.9489 134.241 87.2844C133.303 87.6121 132.201 87.7756 130.936 87.775L130.678 87.7748L130.68 85.4428ZM152.305 83.0275C152.305 84.09 152.058 84.9844 151.565 85.7107C151.072 86.4371 150.4 86.9875 149.548 87.3621C148.704 87.7289 147.75 87.912 146.688 87.9115C145.625 87.911 144.668 87.7269 143.817 87.3593C142.966 86.9839 142.295 86.4328 141.803 85.706C141.312 84.9792 141.066 84.0846 141.067 83.0221C141.068 82.3189 141.205 81.6823 141.479 81.1121C141.753 80.5341 142.14 80.0382 142.641 79.6244C143.149 79.2028 143.743 78.8788 144.423 78.6526C145.11 78.4264 145.86 78.3134 146.673 78.3138C147.751 78.3144 148.716 78.514 149.567 78.9129C150.418 79.3117 151.086 79.8628 151.569 80.5662C152.061 81.2696 152.306 82.09 152.305 83.0275ZM149.47 82.8855C149.47 82.3152 149.353 81.8151 149.119 81.3853C148.885 80.9555 148.558 80.6233 148.136 80.3888C147.714 80.1542 147.226 80.0368 146.671 80.0365C146.109 80.0362 145.621 80.1532 145.206 80.3873C144.792 80.6215 144.467 80.9534 144.233 81.383C144.006 81.8125 143.892 82.3125 143.892 82.8828C143.891 83.4609 144.004 83.961 144.23 84.383C144.456 84.7971 144.78 85.1137 145.202 85.3327C145.624 85.5516 146.12 85.6612 146.69 85.6615C147.26 85.6618 147.752 85.5526 148.167 85.3341C148.581 85.1155 148.902 84.7993 149.128 84.3853C149.355 83.9636 149.469 83.4636 149.47 82.8855ZM151.926 75.1054C151.925 75.957 151.698 76.7147 151.244 77.3786C150.798 78.0424 150.181 78.5655 149.391 78.948C148.602 79.3226 147.703 79.5096 146.695 79.5092C145.68 79.5087 144.774 79.3207 143.977 78.9453C143.188 78.5621 142.568 78.0384 142.115 77.3741C141.67 76.7099 141.448 75.9519 141.449 75.1004C141.45 74.0847 141.674 73.2294 142.12 72.5343C142.573 71.8314 143.195 71.2965 143.984 70.9297C144.774 70.5629 145.676 70.3798 146.692 70.3803C147.707 70.3807 148.61 70.5648 149.398 70.9323C150.187 71.2999 150.804 71.8354 151.248 72.5387C151.701 73.2342 151.927 74.0898 151.926 75.1054ZM149.102 75.1978C149.102 74.69 149.001 74.2447 148.798 73.8617C148.603 73.471 148.326 73.1662 147.967 72.9473C147.608 72.7284 147.182 72.6188 146.69 72.6185C146.198 72.6183 145.772 72.7236 145.412 72.9343C145.053 73.1451 144.775 73.4418 144.579 73.8245C144.384 74.2073 144.286 74.6642 144.285 75.1955C144.285 75.7189 144.382 76.176 144.577 76.5667C144.772 76.9496 145.049 77.2506 145.408 77.4695C145.775 77.6884 146.205 77.798 146.697 77.7982C147.189 77.7985 147.615 77.6893 147.974 77.4707C148.334 77.2521 148.612 76.9515 148.807 76.5688C149.003 76.1782 149.101 75.7213 149.102 75.1978ZM165.233 70.6236L165.232 72.1705L158.397 87.6828L155.421 87.6814L162.243 72.8722L153.407 72.8679L153.409 70.6179L165.233 70.6236ZM169.441 84.9694L169.428 86.985C169.427 87.7819 169.227 88.6021 168.828 89.4457C168.429 90.2892 167.901 90.9843 167.244 91.5308L165.733 90.6512C165.952 90.2997 166.152 89.9444 166.332 89.5851C166.512 89.2258 166.657 88.843 166.766 88.4368C166.876 88.0307 166.931 87.5815 166.932 87.0893L166.933 84.9682L169.441 84.9694ZM174.419 77.882L176.106 77.8828C176.762 77.8831 177.305 77.7701 177.735 77.5437C178.173 77.3174 178.498 77.005 178.709 76.6067C178.92 76.2084 179.026 75.7514 179.026 75.2358C179.027 74.6967 178.93 74.2357 178.735 73.8528C178.548 73.4621 178.259 73.1612 177.868 72.95C177.486 72.7389 176.998 72.6332 176.404 72.6329C175.904 72.6327 175.451 72.734 175.044 72.9369C174.646 73.1321 174.329 73.4132 174.094 73.7802C173.859 74.1395 173.742 74.5691 173.741 75.0691L170.906 75.0678C170.906 74.1615 171.145 73.3569 171.623 72.654C172.1 71.9511 172.749 71.4007 173.569 71.0026C174.398 70.5968 175.328 70.3941 176.359 70.3946C177.46 70.3952 178.421 70.5792 179.241 70.9468C180.069 71.3066 180.713 71.8459 181.173 72.5649C181.634 73.2839 181.863 74.1746 181.862 75.2371C181.862 75.7215 181.748 76.2136 181.521 76.7135C181.294 77.2134 180.958 77.6703 180.512 78.0841C180.067 78.4902 179.512 78.8219 178.847 79.0794C178.183 79.3291 177.413 79.4537 176.538 79.4533L174.417 79.4523L174.419 77.882ZM174.417 80.0851L174.418 78.5382L176.539 78.5392C177.539 78.5397 178.391 78.6573 179.094 78.892C179.804 79.1268 180.382 79.4513 180.827 79.8655C181.272 80.272 181.596 80.737 181.798 81.2605C182.009 81.7841 182.114 82.3388 182.113 82.9247C182.113 83.7216 181.968 84.4325 181.678 85.0573C181.396 85.6744 180.993 86.1976 180.469 86.6271C179.946 87.0565 179.332 87.3804 178.629 87.5988C177.933 87.8173 177.175 87.9263 176.355 87.9259C175.621 87.9255 174.918 87.8236 174.246 87.6202C173.574 87.4167 172.973 87.1156 172.442 86.7169C171.911 86.3104 171.49 85.8063 171.178 85.2046C170.874 84.5951 170.722 83.8919 170.723 83.095L173.547 83.0964C173.546 83.6042 173.663 84.0535 173.897 84.4442C174.139 84.8271 174.475 85.1281 174.904 85.347C175.341 85.566 175.841 85.6756 176.404 85.6759C176.998 85.6762 177.509 85.571 177.939 85.3602C178.369 85.1495 178.698 84.8372 178.925 84.4232C179.159 84.0093 179.277 83.5093 179.277 82.9234C179.278 82.2593 179.15 81.7202 178.892 81.306C178.635 80.8918 178.268 80.5869 177.791 80.3914C177.315 80.188 176.753 80.0862 176.104 80.0859L174.417 80.0851ZM195.593 81.6188L195.591 83.8688L183.287 83.8628L183.195 82.1636L190.564 70.6359L192.826 70.637L190.373 74.8311L186.136 81.6142L195.593 81.6188ZM193.47 70.6373L193.455 87.6998L190.631 87.6984L190.646 70.6359L193.47 70.6373Z" fill="black"/>
<path d="M127.126 160.461C127.122 165.178 126.481 169.848 125.241 174.205C124.001 178.562 122.186 182.521 119.899 185.855L102.53 160.449L127.126 160.461Z" fill="#A155B9"/>
<path d="M119.899 185.855C117.218 189.765 113.954 192.718 110.364 194.485C106.774 196.251 102.953 196.784 99.2004 196.04C95.4477 195.297 91.8641 193.298 88.7289 190.198C85.5938 187.099 82.9919 182.984 81.1261 178.173C79.2602 173.363 78.1808 167.986 77.972 162.464C77.7633 156.942 78.4307 151.423 79.9224 146.336C81.4141 141.25 83.6897 136.735 86.5718 133.142C89.4539 129.549 92.8647 126.976 96.5382 125.624L102.53 160.45L119.899 185.855Z" fill="#16BFD6"/>
<path d="M96.1954 125.754C99.8756 124.316 103.733 124.146 107.465 125.256C111.196 126.367 114.699 128.728 117.697 132.153C120.695 135.579 123.107 139.975 124.743 144.996C126.378 150.016 127.193 155.524 127.122 161.085L102.53 160.45L96.1954 125.754Z" fill="#F765A3"/>
<rect width="20.2186" height="8" transform="matrix(1 0.000484193 -0.000891074 1 149.339 132.472)" fill="#F765A3"/>
<path d="M179.607 139.987L179.615 131.26L182.564 131.261C183.249 131.261 183.808 131.385 184.243 131.633C184.68 131.877 185.003 132.208 185.213 132.626C185.423 133.044 185.528 133.51 185.527 134.024C185.527 134.538 185.421 135.005 185.211 135.426C185.003 135.846 184.682 136.181 184.247 136.431C183.812 136.678 183.255 136.801 182.576 136.801L180.462 136.8L180.463 135.862L182.543 135.863C183.011 135.863 183.388 135.783 183.672 135.621C183.956 135.459 184.163 135.24 184.291 134.965C184.422 134.687 184.487 134.373 184.488 134.023C184.488 133.674 184.423 133.361 184.292 133.086C184.165 132.81 183.958 132.594 183.671 132.438C183.384 132.278 183.003 132.199 182.529 132.198L180.671 132.198L180.664 139.987L179.607 139.987ZM187.088 139.99L187.094 133.445L188.065 133.445L188.065 134.434L188.133 134.434C188.252 134.11 188.469 133.848 188.781 133.646C189.094 133.445 189.446 133.344 189.838 133.344C189.912 133.344 190.004 133.346 190.115 133.348C190.226 133.351 190.31 133.356 190.367 133.361L190.366 134.384C190.332 134.376 190.254 134.363 190.131 134.346C190.012 134.326 189.886 134.316 189.752 134.316C189.434 134.315 189.15 134.382 188.9 134.515C188.652 134.646 188.456 134.828 188.311 135.061C188.169 135.291 188.098 135.553 188.097 135.849L188.094 139.991L187.088 139.99ZM194.013 140.13C193.422 140.13 192.903 139.989 192.458 139.708C192.015 139.426 191.668 139.032 191.419 138.527C191.172 138.021 191.049 137.43 191.05 136.754C191.05 136.072 191.174 135.477 191.422 134.968C191.673 134.46 192.019 134.065 192.463 133.784C192.909 133.503 193.428 133.363 194.019 133.363C194.61 133.363 195.126 133.504 195.569 133.786C196.015 134.067 196.361 134.462 196.608 134.971C196.858 135.48 196.982 136.075 196.982 136.757C196.981 137.433 196.855 138.024 196.605 138.529C196.357 139.035 196.01 139.428 195.564 139.709C195.121 139.99 194.604 140.13 194.013 140.13ZM194.013 139.227C194.462 139.227 194.832 139.112 195.122 138.882C195.412 138.652 195.626 138.35 195.766 137.975C195.906 137.6 195.975 137.194 195.976 136.756C195.976 136.319 195.907 135.911 195.768 135.533C195.629 135.155 195.415 134.85 195.126 134.617C194.836 134.383 194.467 134.267 194.018 134.267C193.569 134.266 193.2 134.383 192.91 134.615C192.62 134.848 192.405 135.154 192.265 135.531C192.126 135.909 192.056 136.317 192.055 136.754C192.055 137.192 192.124 137.598 192.263 137.973C192.402 138.348 192.616 138.651 192.906 138.881C193.195 139.111 193.565 139.227 194.013 139.227ZM200.985 140.134C200.44 140.133 199.958 139.995 199.541 139.719C199.124 139.441 198.797 139.049 198.562 138.543C198.327 138.034 198.209 137.433 198.21 136.74C198.211 136.053 198.329 135.456 198.565 134.951C198.801 134.445 199.13 134.055 199.551 133.779C199.971 133.504 200.457 133.366 201.008 133.367C201.435 133.367 201.771 133.438 202.018 133.58C202.268 133.719 202.458 133.879 202.589 134.058C202.722 134.234 202.826 134.379 202.899 134.492L202.985 134.492L202.988 131.271L203.993 131.271L203.985 139.999L203.014 139.998L203.015 138.992L202.895 138.992C202.821 139.112 202.716 139.262 202.58 139.444C202.443 139.623 202.248 139.783 201.995 139.925C201.742 140.064 201.406 140.134 200.985 140.134ZM201.122 139.23C201.526 139.23 201.867 139.125 202.145 138.915C202.424 138.702 202.636 138.408 202.781 138.034C202.926 137.656 202.999 137.22 203 136.725C203 136.237 202.929 135.809 202.788 135.443C202.646 135.073 202.436 134.786 202.158 134.582C201.88 134.374 201.536 134.27 201.127 134.27C200.701 134.27 200.346 134.379 200.061 134.598C199.78 134.813 199.568 135.107 199.426 135.479C199.286 135.849 199.216 136.263 199.216 136.724C199.215 137.19 199.286 137.613 199.428 137.994C199.572 138.372 199.785 138.673 200.066 138.897C200.35 139.119 200.702 139.23 201.122 139.23ZM210.094 137.325L210.098 133.456L211.103 133.457L211.098 140.002L210.092 140.002L210.093 138.894L210.025 138.894C209.871 139.226 209.632 139.508 209.308 139.741C208.984 139.971 208.575 140.086 208.081 140.086C207.671 140.086 207.308 139.996 206.99 139.817C206.672 139.635 206.422 139.362 206.241 138.998C206.059 138.632 205.969 138.17 205.969 137.613L205.973 133.454L206.978 133.455L206.975 137.546C206.974 138.023 207.108 138.404 207.374 138.688C207.644 138.972 207.988 139.114 208.405 139.114C208.655 139.115 208.91 139.051 209.168 138.923C209.43 138.795 209.649 138.599 209.825 138.335C210.004 138.071 210.094 137.735 210.094 137.325ZM215.599 140.141C214.985 140.14 214.457 139.995 214.014 139.705C213.571 139.415 213.23 139.016 212.992 138.507C212.754 137.999 212.635 137.418 212.636 136.764C212.636 136.099 212.759 135.513 213.004 135.004C213.251 134.493 213.595 134.094 214.036 133.807C214.479 133.518 214.997 133.373 215.588 133.374C216.048 133.374 216.462 133.459 216.832 133.63C217.201 133.8 217.503 134.039 217.739 134.346C217.974 134.653 218.12 135.011 218.177 135.42L217.171 135.42C217.095 135.121 216.924 134.857 216.66 134.627C216.399 134.394 216.047 134.277 215.604 134.277C215.212 134.277 214.868 134.379 214.572 134.583C214.279 134.785 214.051 135.07 213.885 135.44C213.723 135.806 213.642 136.236 213.641 136.731C213.641 137.236 213.72 137.677 213.879 138.052C214.04 138.427 214.267 138.718 214.56 138.926C214.855 139.133 215.202 139.237 215.599 139.237C215.861 139.237 216.098 139.192 216.311 139.101C216.524 139.01 216.705 138.88 216.853 138.709C217.001 138.539 217.106 138.335 217.169 138.096L218.174 138.096C218.117 138.483 217.976 138.831 217.751 139.14C217.53 139.447 217.235 139.691 216.869 139.873C216.505 140.052 216.082 140.141 215.599 140.141ZM222.495 133.462L222.494 134.314L219.102 134.313L219.103 133.461L222.495 133.462ZM220.093 131.893L221.099 131.893L221.093 138.132C221.093 138.416 221.134 138.629 221.216 138.771C221.301 138.91 221.409 139.004 221.54 139.053C221.673 139.098 221.814 139.121 221.962 139.121C222.072 139.121 222.163 139.115 222.234 139.104C222.305 139.09 222.362 139.079 222.405 139.07L222.609 139.974C222.54 139.999 222.445 140.025 222.323 140.05C222.201 140.078 222.046 140.093 221.859 140.093C221.574 140.092 221.296 140.031 221.023 139.909C220.754 139.787 220.529 139.6 220.351 139.35C220.175 139.1 220.087 138.785 220.087 138.404L220.093 131.893ZM227.36 140.01L227.361 139.243L230.244 136.091C230.583 135.722 230.861 135.401 231.08 135.128C231.299 134.853 231.461 134.594 231.567 134.353C231.675 134.109 231.729 133.853 231.729 133.586C231.73 133.279 231.656 133.013 231.509 132.789C231.364 132.564 231.165 132.391 230.912 132.269C230.66 132.146 230.376 132.085 230.06 132.085C229.725 132.085 229.432 132.154 229.182 132.294C228.935 132.43 228.743 132.621 228.606 132.869C228.473 133.116 228.406 133.405 228.405 133.738L227.4 133.737C227.4 133.226 227.518 132.777 227.755 132.391C227.991 132.005 228.312 131.704 228.719 131.488C229.128 131.272 229.587 131.164 230.095 131.165C230.607 131.165 231.06 131.273 231.454 131.489C231.849 131.705 232.158 131.997 232.382 132.363C232.607 132.73 232.718 133.138 232.718 133.586C232.718 133.907 232.659 134.221 232.542 134.528C232.429 134.832 232.229 135.171 231.945 135.546C231.663 135.918 231.272 136.373 230.772 136.909L228.81 139.005L228.81 139.073L232.867 139.075L232.866 140.013L227.36 140.01Z" fill="black"/>
<rect width="20.2186" height="8" transform="matrix(1 0.000484193 -0.000891074 1 149.317 156.472)" fill="#16BFD6"/>
<path d="M179.586 163.987L179.594 155.26L182.542 155.261C183.227 155.261 183.787 155.385 184.221 155.633C184.658 155.877 184.982 156.208 185.192 156.626C185.402 157.044 185.506 157.51 185.506 158.024C185.505 158.538 185.4 159.005 185.189 159.426C184.982 159.846 184.66 160.181 184.225 160.431C183.791 160.678 183.234 160.801 182.555 160.801L180.441 160.8L180.442 159.862L182.521 159.863C182.99 159.863 183.367 159.783 183.651 159.621C183.935 159.459 184.141 159.24 184.269 158.965C184.4 158.687 184.466 158.373 184.466 158.023C184.466 157.674 184.401 157.361 184.271 157.086C184.143 156.81 183.936 156.594 183.649 156.438C183.363 156.278 182.982 156.199 182.508 156.198L180.65 156.198L180.643 163.987L179.586 163.987ZM187.067 163.99L187.073 157.445L188.044 157.445L188.043 158.434L188.111 158.434C188.231 158.11 188.447 157.848 188.76 157.646C189.073 157.445 189.425 157.344 189.817 157.344C189.891 157.344 189.983 157.346 190.094 157.348C190.205 157.351 190.289 157.356 190.345 157.361L190.344 158.384C190.31 158.376 190.232 158.363 190.11 158.346C189.991 158.326 189.864 158.316 189.731 158.316C189.413 158.315 189.128 158.382 188.878 158.515C188.631 158.646 188.435 158.828 188.29 159.061C188.148 159.291 188.076 159.553 188.076 159.849L188.072 163.991L187.067 163.99ZM193.991 164.13C193.4 164.13 192.882 163.989 192.436 163.708C191.993 163.426 191.647 163.032 191.398 162.527C191.151 162.021 191.028 161.43 191.028 160.754C191.029 160.072 191.153 159.477 191.401 158.968C191.651 158.46 191.998 158.065 192.442 157.784C192.888 157.503 193.406 157.363 193.997 157.363C194.588 157.363 195.105 157.504 195.548 157.786C195.994 158.067 196.34 158.462 196.587 158.971C196.836 159.48 196.961 160.075 196.96 160.757C196.96 161.433 196.834 162.024 196.584 162.529C196.336 163.035 195.989 163.428 195.543 163.709C195.099 163.99 194.582 164.13 193.991 164.13ZM193.992 163.227C194.441 163.227 194.81 163.112 195.1 162.882C195.39 162.652 195.605 162.35 195.745 161.975C195.884 161.6 195.954 161.194 195.955 160.756C195.955 160.319 195.886 159.911 195.747 159.533C195.608 159.155 195.394 158.85 195.104 158.617C194.815 158.383 194.445 158.267 193.996 158.267C193.548 158.266 193.178 158.383 192.888 158.615C192.598 158.848 192.383 159.154 192.244 159.531C192.104 159.909 192.034 160.317 192.034 160.754C192.034 161.192 192.103 161.598 192.242 161.973C192.381 162.348 192.595 162.651 192.884 162.881C193.174 163.111 193.543 163.227 193.992 163.227ZM200.964 164.134C200.418 164.133 199.937 163.995 199.52 163.719C199.102 163.441 198.776 163.049 198.541 162.543C198.305 162.034 198.188 161.433 198.189 160.74C198.189 160.053 198.308 159.456 198.544 158.951C198.78 158.445 199.109 158.055 199.529 157.779C199.95 157.504 200.436 157.366 200.987 157.367C201.413 157.367 201.75 157.438 201.997 157.58C202.247 157.719 202.437 157.879 202.567 158.058C202.701 158.234 202.804 158.379 202.878 158.492L202.963 158.492L202.966 155.271L203.972 155.271L203.964 163.999L202.992 163.998L202.993 162.992L202.874 162.992C202.8 163.112 202.695 163.262 202.558 163.444C202.422 163.623 202.227 163.783 201.974 163.925C201.721 164.064 201.384 164.134 200.964 164.134ZM201.101 163.23C201.505 163.23 201.846 163.125 202.124 162.915C202.403 162.702 202.615 162.408 202.76 162.034C202.905 161.656 202.978 161.22 202.978 160.725C202.979 160.237 202.908 159.809 202.766 159.443C202.625 159.073 202.415 158.786 202.136 158.582C201.858 158.374 201.515 158.27 201.106 158.27C200.679 158.27 200.324 158.379 200.04 158.598C199.758 158.813 199.547 159.107 199.404 159.479C199.265 159.849 199.195 160.263 199.194 160.724C199.194 161.19 199.264 161.613 199.406 161.994C199.551 162.372 199.764 162.673 200.045 162.897C200.328 163.119 200.681 163.23 201.101 163.23ZM210.073 161.325L210.076 157.456L211.082 157.457L211.076 164.002L210.071 164.002L210.072 162.894L210.003 162.894C209.85 163.226 209.611 163.508 209.287 163.741C208.963 163.971 208.553 164.086 208.059 164.086C207.65 164.086 207.286 163.996 206.968 163.817C206.65 163.635 206.401 163.362 206.219 162.998C206.038 162.632 205.947 162.17 205.948 161.613L205.951 157.454L206.957 157.455L206.953 161.546C206.953 162.023 207.086 162.404 207.353 162.688C207.623 162.972 207.966 163.114 208.384 163.114C208.634 163.115 208.888 163.051 209.147 162.923C209.408 162.795 209.627 162.599 209.804 162.335C209.983 162.071 210.073 161.735 210.073 161.325ZM215.577 164.141C214.964 164.14 214.435 163.995 213.992 163.705C213.549 163.415 213.209 163.016 212.971 162.507C212.733 161.999 212.614 161.418 212.614 160.764C212.615 160.099 212.738 159.513 212.982 159.004C213.23 158.493 213.574 158.094 214.015 157.807C214.458 157.518 214.975 157.373 215.566 157.374C216.026 157.374 216.441 157.459 216.81 157.63C217.179 157.8 217.482 158.039 217.717 158.346C217.953 158.653 218.099 159.011 218.155 159.42L217.15 159.42C217.073 159.121 216.903 158.857 216.639 158.627C216.378 158.394 216.026 158.277 215.582 158.277C215.19 158.277 214.847 158.379 214.551 158.583C214.258 158.785 214.029 159.07 213.864 159.44C213.702 159.806 213.62 160.236 213.62 160.731C213.62 161.236 213.699 161.677 213.857 162.052C214.019 162.427 214.246 162.718 214.539 162.926C214.834 163.133 215.18 163.237 215.578 163.237C215.839 163.237 216.077 163.192 216.29 163.101C216.503 163.01 216.683 162.88 216.831 162.709C216.979 162.539 217.084 162.335 217.147 162.096L218.153 162.096C218.096 162.483 217.955 162.831 217.73 163.14C217.508 163.447 217.214 163.691 216.847 163.873C216.484 164.052 216.06 164.141 215.577 164.141ZM222.474 157.462L222.473 158.314L219.081 158.313L219.082 157.461L222.474 157.462ZM220.072 155.893L221.077 155.893L221.072 162.132C221.072 162.416 221.113 162.629 221.195 162.771C221.28 162.91 221.388 163.004 221.519 163.053C221.652 163.098 221.793 163.121 221.94 163.121C222.051 163.121 222.142 163.115 222.213 163.104C222.284 163.09 222.341 163.079 222.384 163.07L222.587 163.974C222.519 163.999 222.424 164.025 222.302 164.05C222.18 164.078 222.025 164.093 221.837 164.093C221.553 164.092 221.275 164.031 221.002 163.909C220.732 163.787 220.508 163.6 220.329 163.35C220.153 163.1 220.066 162.785 220.066 162.404L220.072 155.893ZM230.287 164.131C229.725 164.13 229.224 164.034 228.783 163.84C228.346 163.647 227.998 163.378 227.74 163.034C227.485 162.688 227.346 162.286 227.324 161.828L228.397 161.829C228.42 162.11 228.516 162.353 228.687 162.557C228.857 162.759 229.08 162.916 229.355 163.027C229.631 163.137 229.936 163.193 230.271 163.193C230.646 163.193 230.979 163.128 231.269 162.998C231.558 162.867 231.786 162.685 231.951 162.453C232.116 162.22 232.198 161.95 232.199 161.643C232.199 161.322 232.12 161.039 231.961 160.795C231.802 160.548 231.569 160.354 231.263 160.215C230.956 160.076 230.581 160.006 230.138 160.006L229.439 160.005L229.44 159.068L230.139 159.068C230.485 159.068 230.789 159.006 231.051 158.881C231.315 158.756 231.521 158.58 231.669 158.353C231.82 158.126 231.895 157.859 231.896 157.552C231.896 157.256 231.831 156.999 231.7 156.781C231.57 156.562 231.385 156.391 231.147 156.269C230.911 156.147 230.633 156.085 230.312 156.085C230.011 156.085 229.726 156.14 229.459 156.251C229.195 156.359 228.979 156.516 228.811 156.724C228.643 156.928 228.552 157.175 228.538 157.465L227.515 157.465C227.532 157.007 227.671 156.607 227.929 156.263C228.188 155.917 228.527 155.647 228.944 155.454C229.365 155.261 229.827 155.165 230.33 155.165C230.869 155.165 231.332 155.275 231.718 155.494C232.105 155.71 232.401 155.995 232.608 156.351C232.815 156.706 232.919 157.089 232.918 157.501C232.918 157.993 232.788 158.412 232.529 158.758C232.273 159.105 231.925 159.345 231.485 159.478L231.485 159.546C232.036 159.637 232.466 159.872 232.775 160.25C233.085 160.625 233.239 161.09 233.239 161.643C233.238 162.118 233.108 162.544 232.85 162.922C232.594 163.297 232.244 163.592 231.801 163.808C231.357 164.023 230.853 164.131 230.287 164.131Z" fill="black"/>
<rect width="20.2186" height="8" transform="matrix(1 0.000484193 -0.000891074 1 149.296 180.472)" fill="#A155B9"/>
<path d="M179.564 187.987L179.572 179.26L182.521 179.261C183.206 179.261 183.765 179.385 184.2 179.633C184.637 179.877 184.961 180.208 185.17 180.626C185.38 181.044 185.485 181.51 185.485 182.024C185.484 182.538 185.379 183.005 185.168 183.426C184.96 183.846 184.639 184.181 184.204 184.431C183.769 184.678 183.212 184.801 182.533 184.801L180.42 184.8L180.42 183.862L182.5 183.863C182.969 183.863 183.345 183.783 183.629 183.621C183.914 183.459 184.12 183.24 184.248 182.965C184.379 182.687 184.444 182.373 184.445 182.023C184.445 181.674 184.38 181.361 184.25 181.086C184.122 180.81 183.915 180.594 183.628 180.438C183.341 180.278 182.961 180.199 182.486 180.198L180.628 180.198L180.621 187.987L179.564 187.987ZM187.045 187.99L187.051 181.445L188.023 181.445L188.022 182.434L188.09 182.434C188.21 182.11 188.426 181.848 188.738 181.646C189.051 181.445 189.403 181.344 189.795 181.344C189.869 181.344 189.962 181.346 190.072 181.348C190.183 181.351 190.267 181.356 190.324 181.361L190.323 182.384C190.289 182.376 190.211 182.363 190.089 182.346C189.969 182.326 189.843 182.316 189.709 182.316C189.391 182.315 189.107 182.382 188.857 182.515C188.61 182.646 188.413 182.828 188.268 183.061C188.126 183.291 188.055 183.553 188.055 183.849L188.051 187.991L187.045 187.99ZM193.97 188.13C193.379 188.13 192.861 187.989 192.415 187.708C191.972 187.426 191.626 187.032 191.376 186.527C191.129 186.021 191.006 185.43 191.007 184.754C191.008 184.072 191.132 183.477 191.379 182.968C191.63 182.46 191.977 182.065 192.42 181.784C192.866 181.503 193.385 181.363 193.976 181.363C194.567 181.363 195.084 181.504 195.527 181.786C195.972 182.067 196.319 182.462 196.565 182.971C196.815 183.48 196.939 184.075 196.939 184.757C196.938 185.433 196.813 186.024 196.562 186.529C196.315 187.035 195.968 187.428 195.521 187.709C195.078 187.99 194.561 188.13 193.97 188.13ZM193.971 187.227C194.42 187.227 194.789 187.112 195.079 186.882C195.369 186.652 195.584 186.35 195.723 185.975C195.863 185.6 195.933 185.194 195.933 184.756C195.933 184.319 195.864 183.911 195.725 183.533C195.587 183.155 195.372 182.85 195.083 182.617C194.793 182.383 194.424 182.267 193.975 182.267C193.526 182.266 193.157 182.383 192.867 182.615C192.577 182.848 192.362 183.154 192.223 183.531C192.083 183.909 192.013 184.317 192.013 184.754C192.012 185.192 192.081 185.598 192.22 185.973C192.359 186.348 192.573 186.651 192.863 186.881C193.153 187.111 193.522 187.227 193.971 187.227ZM200.943 188.134C200.397 188.133 199.916 187.995 199.498 187.719C199.081 187.441 198.755 187.049 198.519 186.543C198.284 186.034 198.167 185.433 198.167 184.74C198.168 184.053 198.286 183.456 198.522 182.951C198.759 182.445 199.087 182.055 199.508 181.779C199.929 181.504 200.414 181.366 200.966 181.367C201.392 181.367 201.728 181.438 201.975 181.58C202.225 181.719 202.415 181.879 202.546 182.058C202.679 182.234 202.783 182.379 202.857 182.492L202.942 182.492L202.945 179.271L203.95 179.271L203.943 187.999L202.971 187.998L202.972 186.992L202.853 186.992C202.779 187.112 202.673 187.262 202.537 187.444C202.4 187.623 202.206 187.783 201.953 187.925C201.7 188.064 201.363 188.134 200.943 188.134ZM201.08 187.23C201.483 187.23 201.824 187.125 202.103 186.915C202.381 186.702 202.593 186.408 202.738 186.034C202.884 185.656 202.956 185.22 202.957 184.725C202.957 184.237 202.887 183.809 202.745 183.443C202.603 183.073 202.393 182.786 202.115 182.582C201.837 182.374 201.493 182.27 201.084 182.27C200.658 182.27 200.303 182.379 200.018 182.598C199.737 182.813 199.525 183.107 199.383 183.479C199.243 183.849 199.173 184.263 199.173 184.724C199.172 185.19 199.243 185.613 199.385 185.994C199.529 186.372 199.742 186.673 200.023 186.897C200.307 187.119 200.659 187.23 201.08 187.23ZM210.052 185.325L210.055 181.456L211.061 181.457L211.055 188.002L210.049 188.002L210.05 186.894L209.982 186.894C209.828 187.226 209.589 187.508 209.265 187.741C208.941 187.971 208.532 188.086 208.038 188.086C207.629 188.086 207.265 187.996 206.947 187.817C206.629 187.635 206.379 187.362 206.198 186.998C206.016 186.632 205.926 186.17 205.926 185.613L205.93 181.454L206.936 181.455L206.932 185.546C206.932 186.023 207.065 186.404 207.332 186.688C207.601 186.972 207.945 187.114 208.362 187.114C208.612 187.115 208.867 187.051 209.125 186.923C209.387 186.795 209.606 186.599 209.782 186.335C209.961 186.071 210.051 185.735 210.052 185.325ZM215.556 188.141C214.942 188.14 214.414 187.995 213.971 187.705C213.528 187.415 213.187 187.016 212.949 186.507C212.711 185.999 212.592 185.418 212.593 184.764C212.593 184.099 212.716 183.513 212.961 183.004C213.209 182.493 213.553 182.094 213.993 181.807C214.437 181.518 214.954 181.373 215.545 181.374C216.005 181.374 216.42 181.459 216.789 181.63C217.158 181.8 217.46 182.039 217.696 182.346C217.931 182.653 218.077 183.011 218.134 183.42L217.128 183.42C217.052 183.121 216.882 182.857 216.618 182.627C216.356 182.394 216.004 182.277 215.561 182.277C215.169 182.277 214.825 182.379 214.529 182.583C214.237 182.785 214.008 183.07 213.843 183.44C213.68 183.806 213.599 184.236 213.599 184.731C213.598 185.236 213.677 185.677 213.836 186.052C213.998 186.427 214.225 186.718 214.517 186.926C214.812 187.133 215.159 187.237 215.557 187.237C215.818 187.237 216.055 187.192 216.268 187.101C216.482 187.01 216.662 186.88 216.81 186.709C216.958 186.539 217.063 186.335 217.126 186.096L218.131 186.096C218.074 186.483 217.933 186.831 217.709 187.14C217.487 187.447 217.193 187.691 216.826 187.873C216.462 188.052 216.039 188.141 215.556 188.141ZM222.452 181.462L222.452 182.314L219.06 182.313L219.06 181.461L222.452 181.462ZM220.05 179.893L221.056 179.893L221.05 186.132C221.05 186.416 221.091 186.629 221.173 186.771C221.259 186.91 221.366 187.004 221.497 187.053C221.631 187.098 221.771 187.121 221.919 187.121C222.03 187.121 222.121 187.115 222.192 187.104C222.263 187.09 222.32 187.079 222.362 187.07L222.566 187.974C222.498 187.999 222.402 188.025 222.28 188.05C222.158 188.078 222.003 188.093 221.816 188.093C221.532 188.092 221.253 188.031 220.981 187.909C220.711 187.787 220.487 187.6 220.308 187.35C220.132 187.1 220.044 186.785 220.045 186.404L220.05 179.893ZM230.266 188.131C229.704 188.13 229.202 188.034 228.762 187.84C228.325 187.647 227.977 187.378 227.719 187.034C227.463 186.688 227.324 186.286 227.302 185.828L228.376 185.829C228.399 186.11 228.495 186.353 228.665 186.557C228.835 186.759 229.058 186.916 229.334 187.027C229.609 187.137 229.915 187.193 230.25 187.193C230.625 187.193 230.957 187.128 231.247 186.998C231.537 186.867 231.764 186.685 231.929 186.453C232.094 186.22 232.177 185.95 232.177 185.643C232.178 185.322 232.098 185.039 231.939 184.795C231.781 184.548 231.548 184.354 231.241 184.215C230.934 184.076 230.559 184.006 230.116 184.006L229.417 184.005L229.418 183.068L230.117 183.068C230.464 183.068 230.768 183.006 231.029 182.881C231.294 182.756 231.5 182.58 231.648 182.353C231.798 182.126 231.874 181.859 231.874 181.552C231.874 181.256 231.809 180.999 231.679 180.781C231.548 180.562 231.364 180.391 231.125 180.269C230.89 180.147 230.611 180.085 230.29 180.085C229.989 180.085 229.705 180.14 229.438 180.251C229.174 180.359 228.957 180.516 228.79 180.724C228.622 180.928 228.531 181.175 228.516 181.465L227.494 181.465C227.511 181.007 227.649 180.607 227.908 180.263C228.167 179.917 228.505 179.647 228.923 179.454C229.344 179.261 229.805 179.165 230.308 179.165C230.848 179.165 231.311 179.275 231.697 179.494C232.083 179.71 232.38 179.995 232.587 180.351C232.794 180.706 232.897 181.089 232.897 181.501C232.896 181.993 232.767 182.412 232.508 182.758C232.252 183.105 231.904 183.345 231.463 183.478L231.463 183.546C232.014 183.637 232.445 183.872 232.754 184.25C233.063 184.625 233.218 185.09 233.217 185.643C233.217 186.118 233.087 186.544 232.828 186.922C232.572 187.297 232.222 187.592 231.779 187.808C231.336 188.023 230.831 188.131 230.266 188.131Z" fill="black"/>
<rect width="201.567" height="186.588" rx="17" transform="matrix(1 0.000484193 -0.000891074 1 277.166 32)" fill="#D7F0E6"/>
<path d="M363.823 51.2294L363.819 55.5731C363.658 55.7866 363.405 56.0209 363.061 56.2759C362.722 56.5257 362.271 56.7417 361.709 56.9237C361.146 57.1057 360.445 57.1965 359.607 57.1961C358.893 57.1958 358.24 57.0756 357.646 56.8358C357.053 56.5907 356.54 56.2337 356.108 55.7647C355.682 55.2958 355.351 54.7253 355.118 54.0533C354.884 53.3761 354.767 52.6052 354.768 51.7406L354.769 50.9516C354.769 50.0922 354.877 49.3266 355.091 48.6549C355.31 47.9779 355.623 47.4051 356.03 46.9366C356.437 46.468 356.927 46.1141 357.5 45.8748C358.078 45.6303 358.732 45.5082 359.461 45.5085C360.393 45.509 361.164 45.6656 361.773 45.9784C362.387 46.286 362.861 46.7133 363.194 47.2603C363.527 47.8074 363.737 48.4325 363.825 49.1356L361.903 49.1347C361.841 48.7389 361.719 48.3846 361.537 48.072C361.36 47.7595 361.105 47.5145 360.772 47.3373C360.444 47.1548 360.017 47.0635 359.491 47.0632C359.038 47.063 358.639 47.1488 358.295 47.3205C357.952 47.4922 357.665 47.7446 357.435 48.0779C357.211 48.4111 357.041 48.8173 356.926 49.2964C356.811 49.7755 356.754 50.3223 356.753 50.9369L356.752 51.7416C356.752 52.3666 356.816 52.9213 356.946 53.4058C357.081 53.8902 357.274 54.2991 357.523 54.6326C357.778 54.9661 358.088 55.2188 358.452 55.3909C358.817 55.5577 359.228 55.6412 359.686 55.6415C360.134 55.6417 360.502 55.6054 360.788 55.5326C361.075 55.4546 361.301 55.3636 361.468 55.2595C361.64 55.1502 361.773 55.0461 361.867 54.9472L361.869 52.6894L359.502 52.6882L359.503 51.2273L363.823 51.2294ZM369.97 55.3496L369.973 51.3183C369.973 51.0162 369.919 50.7558 369.81 50.537C369.701 50.3182 369.534 50.1488 369.31 50.0289C369.092 49.909 368.816 49.849 368.482 49.8488C368.175 49.8487 367.909 49.9006 367.685 50.0047C367.461 50.1088 367.287 50.2493 367.161 50.4263C367.036 50.6033 366.974 50.8038 366.973 51.0278L365.098 51.0269C365.099 50.6936 365.18 50.3707 365.341 50.0583C365.503 49.7458 365.738 49.4673 366.045 49.2227C366.353 48.978 366.72 48.7855 367.147 48.6451C367.575 48.5046 368.054 48.4346 368.585 48.4348C369.22 48.4351 369.783 48.5422 370.272 48.756C370.767 48.9697 371.155 49.2928 371.435 49.7253C371.722 50.1525 371.864 50.689 371.864 51.3348L371.86 55.0927C371.86 55.4781 371.886 55.8244 371.938 56.1318C371.995 56.4339 372.075 56.6969 372.179 56.9209L372.179 57.0459L370.249 57.045C370.161 56.8418 370.091 56.584 370.039 56.2715C369.992 55.9537 369.969 55.6464 369.97 55.3496ZM370.246 51.9044L370.261 53.0684L368.909 53.0678C368.56 53.0676 368.253 53.1013 367.987 53.1689C367.721 53.2313 367.5 53.3249 367.323 53.4498C367.146 53.5748 367.013 53.7257 366.924 53.9028C366.835 54.0798 366.791 54.2803 366.791 54.5043C366.79 54.7282 366.842 54.934 366.946 55.1215C367.05 55.3039 367.201 55.4472 367.399 55.5514C367.602 55.6557 367.847 55.7079 368.133 55.708C368.519 55.7082 368.855 55.6303 369.141 55.4742C369.433 55.3128 369.662 55.1176 369.829 54.8886C369.996 54.6543 370.085 54.4329 370.096 54.2246L370.704 55.0609C370.641 55.2744 370.534 55.5035 370.383 55.7482C370.232 55.9929 370.034 56.2272 369.789 56.451C369.549 56.6697 369.26 56.8492 368.921 56.9897C368.588 57.1301 368.202 57.2003 367.765 57.2001C367.213 57.1998 366.721 57.0902 366.288 56.8712C365.856 56.647 365.518 56.3474 365.274 55.9723C365.029 55.592 364.907 55.1622 364.908 54.683C364.908 54.2351 364.992 53.8393 365.159 53.4957C365.331 53.1468 365.581 52.8552 365.909 52.621C366.243 52.3868 366.649 52.2099 367.129 52.0904C367.608 51.9656 368.155 51.9034 368.769 51.9037L370.246 51.9044ZM377.972 54.7597C377.972 54.5722 377.925 54.4029 377.831 54.2518C377.738 54.0955 377.558 53.9548 377.293 53.8297C377.032 53.7045 376.647 53.5898 376.137 53.4854C375.689 53.3862 375.278 53.2688 374.903 53.1332C374.533 52.9924 374.216 52.823 373.95 52.6249C373.685 52.4269 373.479 52.1924 373.333 51.9215C373.188 51.6506 373.115 51.3381 373.116 50.9839C373.116 50.6401 373.192 50.3147 373.343 50.0074C373.494 49.7002 373.711 49.4295 373.992 49.1953C374.274 48.961 374.615 48.7763 375.016 48.6411C375.422 48.5058 375.876 48.4384 376.376 48.4386C377.084 48.4389 377.691 48.559 378.196 48.7989C378.706 49.0335 379.096 49.354 379.367 49.7604C379.637 50.1615 379.772 50.6147 379.772 51.1199L377.889 51.119C377.889 50.8951 377.832 50.6867 377.718 50.4939C377.608 50.296 377.442 50.137 377.218 50.0171C376.994 49.892 376.713 49.8294 376.374 49.8292C376.052 49.8291 375.783 49.881 375.57 49.9851C375.361 50.0839 375.205 50.2141 375.1 50.3755C375.001 50.5369 374.952 50.7139 374.952 50.9067C374.951 51.0473 374.977 51.1749 375.029 51.2895C375.087 51.3989 375.18 51.5005 375.31 51.5943C375.44 51.6829 375.617 51.7664 375.841 51.8446C376.07 51.9228 376.357 51.9985 376.701 52.0716C377.346 52.2073 377.901 52.382 378.364 52.5958C378.833 52.8044 379.192 53.0754 379.442 53.4088C379.691 53.7371 379.816 54.1538 379.815 54.659C379.815 55.034 379.734 55.3777 379.572 55.6901C379.416 55.9974 379.186 56.2655 378.884 56.4945C378.582 56.7183 378.22 56.8926 377.798 57.0174C377.381 57.1422 376.912 57.2045 376.391 57.2042C375.626 57.2039 374.977 57.0681 374.446 56.797C373.915 56.5207 373.512 56.169 373.236 55.7418C372.966 55.3093 372.831 54.8614 372.831 54.3978L374.652 54.3987C374.672 54.7477 374.768 55.0264 374.94 55.2348C375.117 55.438 375.335 55.5865 375.596 55.6804C375.861 55.7691 376.135 55.8135 376.416 55.8136C376.755 55.8138 377.038 55.7696 377.268 55.6812C377.497 55.5876 377.671 55.4627 377.791 55.3065C377.911 55.1451 377.971 54.9628 377.972 54.7597ZM384.744 48.5989L384.743 49.9739L379.977 49.9716L379.979 48.5966L384.744 48.5989ZM381.355 46.5269L383.238 46.5279L383.231 54.7154C383.231 54.9758 383.267 55.1763 383.34 55.317C383.418 55.4524 383.525 55.5436 383.66 55.5906C383.795 55.6375 383.954 55.661 384.136 55.6611C384.267 55.6612 384.392 55.6534 384.511 55.6378C384.631 55.6223 384.728 55.6067 384.801 55.5911L384.807 57.0286C384.651 57.0754 384.468 57.117 384.26 57.1534C384.057 57.1897 383.823 57.2078 383.557 57.2077C383.125 57.2075 382.742 57.1318 382.409 56.9806C382.075 56.8242 381.815 56.5714 381.628 56.2224C381.441 55.8733 381.348 55.4098 381.348 54.8316L381.355 46.5269ZM385.047 52.9194L385.047 52.7397C385.047 52.1303 385.136 51.5652 385.314 51.0445C385.492 50.5185 385.747 50.0629 386.081 49.6777C386.42 49.2872 386.831 48.9853 387.316 48.772C387.806 48.5535 388.358 48.4444 388.973 48.4447C389.592 48.445 390.144 48.5546 390.628 48.7736C391.118 48.9874 391.532 49.2897 391.87 49.6805C392.208 50.0661 392.465 50.5219 392.642 51.048C392.819 51.569 392.907 52.1341 392.906 52.7435L392.906 52.9232C392.906 53.5325 392.816 54.0976 392.639 54.6183C392.461 55.1391 392.203 55.5947 391.864 55.9852C391.525 56.3704 391.114 56.6723 390.629 56.8908C390.145 57.1041 389.595 57.2106 388.98 57.2103C388.361 57.21 387.806 57.103 387.317 56.8892C386.832 56.6702 386.421 56.3679 386.083 55.9824C385.745 55.5916 385.487 55.1357 385.311 54.6148C385.134 54.0939 385.046 53.5287 385.047 52.9194ZM386.93 52.7406L386.929 52.9203C386.929 53.3005 386.968 53.6599 387.046 53.9985C387.124 54.337 387.246 54.634 387.412 54.8893C387.579 55.1445 387.792 55.3452 388.052 55.4911C388.312 55.6371 388.622 55.7102 388.982 55.7103C389.331 55.7105 389.633 55.6377 389.888 55.492C390.149 55.3463 390.362 55.1459 390.529 54.8908C390.696 54.6356 390.819 54.3388 390.897 54.0003C390.981 53.6618 391.023 53.3025 391.023 52.9223L391.023 52.7426C391.024 52.3676 390.982 52.0134 390.899 51.68C390.822 51.3414 390.697 51.0419 390.525 50.7814C390.359 50.5209 390.145 50.3177 389.885 50.1717C389.63 50.0205 389.325 49.9449 388.971 49.9447C388.617 49.9445 388.31 50.0199 388.049 50.1708C387.794 50.3165 387.583 50.5195 387.416 50.7799C387.249 51.0402 387.126 51.3396 387.048 51.6781C386.969 52.0114 386.93 52.3656 386.93 52.7406ZM398.625 54.7697C398.625 54.5822 398.578 54.4129 398.485 54.2618C398.391 54.1055 398.211 53.9648 397.946 53.8397C397.686 53.7145 397.3 53.5998 396.79 53.4954C396.342 53.3962 395.931 53.2788 395.556 53.1432C395.186 53.0024 394.869 52.833 394.603 52.6349C394.338 52.4369 394.132 52.2024 393.987 51.9315C393.841 51.6606 393.768 51.3481 393.769 50.9939C393.769 50.6501 393.845 50.3247 393.996 50.0174C394.147 49.7102 394.364 49.4395 394.645 49.2053C394.927 48.971 395.268 48.7863 395.669 48.6511C396.076 48.5158 396.529 48.4484 397.029 48.4486C397.737 48.4489 398.344 48.569 398.849 48.8089C399.359 49.0435 399.749 49.364 400.02 49.7704C400.29 50.1715 400.425 50.6247 400.425 51.1299L398.542 51.129C398.542 50.9051 398.485 50.6967 398.371 50.5039C398.262 50.306 398.095 50.147 397.871 50.0271C397.647 49.902 397.366 49.8394 397.028 49.8392C396.705 49.8391 396.436 49.891 396.223 49.9951C396.014 50.0939 395.858 50.2241 395.754 50.3855C395.655 50.5469 395.605 50.7239 395.605 50.9167C395.605 51.0573 395.631 51.1849 395.682 51.2995C395.74 51.4089 395.833 51.5105 395.963 51.6043C396.094 51.6929 396.271 51.7764 396.494 51.8546C396.724 51.9328 397.01 52.0085 397.354 52.0816C397.999 52.2173 398.554 52.392 399.017 52.6058C399.486 52.8144 399.845 53.0854 400.095 53.4188C400.344 53.7471 400.469 54.1638 400.469 54.669C400.468 55.044 400.387 55.3877 400.225 55.7001C400.069 56.0074 399.84 56.2755 399.537 56.5045C399.235 56.7283 398.873 56.9026 398.451 57.0274C398.034 57.1522 397.565 57.2145 397.044 57.2142C396.279 57.2139 395.63 57.0781 395.099 56.807C394.568 56.5307 394.165 56.179 393.889 55.7518C393.619 55.3193 393.484 54.8714 393.484 54.4078L395.305 54.4087C395.325 54.7577 395.421 55.0364 395.593 55.2448C395.77 55.448 395.989 55.5965 396.249 55.6904C396.514 55.7791 396.788 55.8235 397.069 55.8236C397.408 55.8238 397.692 55.7796 397.921 55.6912C398.15 55.5976 398.325 55.4727 398.445 55.3165C398.564 55.1551 398.625 54.9728 398.625 54.7697Z" fill="black" fill-opacity="0.9"/>
<path d="M345.017 75.2241L346.704 75.225C347.36 75.2253 347.903 75.1123 348.333 74.8859C348.771 74.6596 349.096 74.3472 349.307 73.9489C349.518 73.5505 349.624 73.0936 349.624 72.5779C349.625 72.0389 349.528 71.5779 349.333 71.195C349.146 70.8043 348.857 70.5034 348.466 70.2922C348.084 70.0811 347.595 69.9754 347.002 69.9751C346.502 69.9749 346.049 70.0762 345.642 70.2791C345.243 70.4743 344.927 70.7554 344.692 71.1224C344.457 71.4817 344.34 71.9113 344.339 72.4113L341.503 72.4099C341.504 71.5037 341.743 70.6991 342.22 69.9962C342.698 69.2933 343.347 68.7429 344.167 68.3448C344.996 67.939 345.926 67.7363 346.957 67.7368C348.058 67.7373 349.019 67.9214 349.839 68.289C350.667 68.6488 351.311 69.1881 351.771 69.9071C352.232 70.6261 352.461 71.5168 352.46 72.5793C352.46 73.0637 352.346 73.5558 352.119 74.0557C351.892 74.5556 351.556 75.0125 351.11 75.4263C350.664 75.8324 350.11 76.1641 349.445 76.4216C348.781 76.6713 348.011 76.7959 347.136 76.7955L345.015 76.7945L345.017 75.2241ZM345.015 77.4273L345.016 75.8804L347.137 75.8814C348.137 75.8819 348.989 75.9995 349.691 76.2342C350.402 76.4689 350.98 76.7934 351.425 77.2077C351.87 77.6142 352.194 78.0792 352.396 78.6027C352.607 79.1263 352.712 79.681 352.711 80.2669C352.711 81.0638 352.565 81.7747 352.276 82.3995C351.994 83.0166 351.591 83.5398 351.067 83.9693C350.544 84.3987 349.93 84.7226 349.227 84.941C348.531 85.1594 347.773 85.2685 346.953 85.2681C346.219 85.2677 345.516 85.1658 344.844 84.9623C344.172 84.7589 343.571 84.4578 343.04 84.0591C342.509 83.6526 342.088 83.1485 341.776 82.5468C341.472 81.9373 341.32 81.2341 341.321 80.4372L344.145 80.4386C344.144 80.9464 344.261 81.3957 344.495 81.7864C344.737 82.1693 345.073 82.4703 345.502 82.6892C345.939 82.9082 346.439 83.0178 347.002 83.0181C347.596 83.0184 348.107 82.9131 348.537 82.7024C348.967 82.4917 349.296 82.1793 349.522 81.7654C349.757 81.3514 349.875 80.8515 349.875 80.2656C349.876 79.6015 349.748 79.0624 349.49 78.6482C349.233 78.234 348.866 77.9291 348.389 77.7336C347.913 77.5302 347.351 77.4284 346.702 77.4281L345.015 77.4273ZM354.715 83.6312C354.715 83.1937 354.864 82.8266 355.161 82.5298C355.458 82.2253 355.861 82.0731 356.368 82.0734C356.884 82.0736 357.286 82.2262 357.575 82.531C357.872 82.828 358.02 83.1953 358.019 83.6328C358.019 84.0703 357.87 84.4374 357.573 84.7341C357.284 85.0309 356.881 85.1791 356.366 85.1789C355.858 85.1786 355.456 85.03 355.159 84.733C354.862 84.4359 354.714 84.0687 354.715 83.6312ZM371.372 80.3932C371.371 81.4557 371.124 82.3501 370.631 83.0764C370.139 83.8027 369.466 84.3532 368.614 84.7278C367.77 85.0945 366.817 85.2777 365.755 85.2772C364.692 85.2766 363.735 85.0926 362.884 84.725C362.033 84.3496 361.361 83.7985 360.87 83.0717C360.378 82.3449 360.133 81.4502 360.134 80.3877C360.135 79.6846 360.272 79.0479 360.546 78.4778C360.82 77.8998 361.207 77.4039 361.707 76.99C362.215 76.5684 362.809 76.2445 363.489 76.0182C364.177 75.792 364.927 75.6791 365.74 75.6795C366.818 75.68 367.782 75.8797 368.634 76.2786C369.485 76.6774 370.152 77.2285 370.636 77.9319C371.128 78.6352 371.373 79.4557 371.372 80.3932ZM368.536 80.2512C368.537 79.6808 368.42 79.1808 368.186 78.751C367.952 78.3212 367.624 77.989 367.203 77.7544C366.781 77.5198 366.293 77.4024 365.738 77.4021C365.176 77.4019 364.687 77.5188 364.273 77.753C363.859 77.9872 363.534 78.3191 363.299 78.7486C363.072 79.1782 362.959 79.6781 362.958 80.2485C362.958 80.8266 363.071 81.3266 363.297 81.7486C363.523 82.1628 363.847 82.4794 364.269 82.6983C364.69 82.9173 365.186 83.0269 365.757 83.0272C366.327 83.0274 366.819 82.9183 367.233 82.6997C367.648 82.4812 367.968 82.1649 368.195 81.751C368.422 81.3292 368.536 80.8293 368.536 80.2512ZM370.992 72.4711C370.992 73.3227 370.765 74.0804 370.311 74.7442C369.865 75.4081 369.247 75.9312 368.458 76.3136C367.668 76.6882 366.77 76.8753 365.762 76.8748C364.746 76.8743 363.84 76.6864 363.044 76.311C362.255 75.9278 361.634 75.4041 361.182 74.7398C360.737 74.0755 360.515 73.3176 360.516 72.466C360.517 71.4504 360.74 70.595 361.186 69.8999C361.64 69.197 362.262 68.6622 363.051 68.2954C363.84 67.9286 364.743 67.7454 365.758 67.7459C366.774 67.7464 367.676 67.9304 368.465 68.298C369.254 68.6656 369.87 69.201 370.315 69.9044C370.768 70.5999 370.993 71.4555 370.992 72.4711ZM368.168 72.5635C368.169 72.0557 368.067 71.6103 367.865 71.2274C367.67 70.8367 367.393 70.5319 367.033 70.3129C366.674 70.094 366.249 69.9844 365.756 69.9842C365.264 69.984 364.838 70.0892 364.479 70.3C364.119 70.5107 363.842 70.8075 363.646 71.1902C363.45 71.5729 363.352 72.0299 363.352 72.5612C363.351 73.0846 363.449 73.5417 363.644 73.9324C363.839 74.3153 364.116 74.6162 364.475 74.8351C364.842 75.0541 365.271 75.1636 365.764 75.1639C366.256 75.1641 366.682 75.055 367.041 74.8364C367.401 74.6178 367.678 74.3172 367.874 73.9344C368.07 73.5439 368.168 73.0869 368.168 72.5635ZM384.082 75.0907L384.08 77.8798C384.079 79.2157 383.945 80.3563 383.678 81.3015C383.42 82.2388 383.044 83.0004 382.551 83.5861C382.059 84.1718 381.468 84.6012 380.781 84.8743C380.101 85.1474 379.339 85.2837 378.495 85.2833C377.823 85.283 377.198 85.1968 376.62 85.0246C376.05 84.8525 375.535 84.5827 375.074 84.2153C374.614 83.8479 374.22 83.375 373.892 82.7967C373.572 82.2106 373.323 81.5113 373.144 80.6987C372.973 79.8861 372.888 78.9447 372.888 77.8744L372.891 75.0853C372.892 73.7416 373.026 72.6088 373.292 71.6871C373.559 70.7575 373.938 70.0038 374.431 69.4259C374.924 68.8402 375.51 68.4147 376.19 68.1494C376.878 67.8841 377.644 67.7517 378.487 67.7521C379.167 67.7524 379.792 67.8386 380.362 68.0108C380.94 68.1751 381.455 68.4371 381.908 68.7967C382.369 69.1563 382.759 69.6252 383.079 70.2035C383.407 70.774 383.656 71.4655 383.827 72.2781C383.998 73.0829 384.083 74.0204 384.082 75.0907ZM381.255 78.2769L381.259 74.6675C381.259 73.9878 381.221 73.3901 381.143 72.8745C381.065 72.351 380.948 71.9095 380.793 71.5501C380.644 71.1828 380.457 70.8858 380.231 70.6592C380.004 70.4247 379.747 70.2566 379.458 70.1549C379.169 70.0454 378.845 69.9905 378.485 69.9904C378.048 69.9901 377.657 70.0759 377.313 70.2476C376.969 70.4115 376.68 70.677 376.445 71.0441C376.211 71.4111 376.031 71.8954 375.905 72.4969C375.787 73.0906 375.728 73.8132 375.727 74.6648L375.724 78.2742C375.723 78.9617 375.762 79.5672 375.84 80.0906C375.917 80.6141 376.034 81.0634 376.19 81.4385C376.346 81.8057 376.533 82.1105 376.752 82.3528C376.978 82.5873 377.236 82.7593 377.525 82.8688C377.821 82.9783 378.146 83.0332 378.497 83.0333C378.942 83.0335 379.337 82.9478 379.681 82.7761C380.025 82.6044 380.314 82.3311 380.549 81.9562C380.784 81.5735 380.96 81.0775 381.078 80.4682C381.195 79.8589 381.255 79.1284 381.255 78.2769ZM396.823 75.0969L396.82 77.8859C396.819 79.2219 396.685 80.3624 396.419 81.3076C396.16 82.245 395.785 83.0065 395.292 83.5922C394.799 84.1779 394.209 84.6073 393.521 84.8804C392.841 85.1536 392.08 85.2899 391.236 85.2895C390.564 85.2892 389.939 85.2029 389.361 85.0308C388.791 84.8586 388.275 84.5888 387.815 84.2214C387.354 83.854 386.96 83.3812 386.633 82.8029C386.313 82.2168 386.063 81.5175 385.884 80.7049C385.713 79.8923 385.628 78.9508 385.629 77.8805L385.632 75.0915C385.633 73.7477 385.767 72.615 386.033 71.6932C386.299 70.7637 386.679 70.0099 387.172 69.4321C387.664 68.8464 388.251 68.4209 388.931 68.1556C389.618 67.8903 390.384 67.7578 391.228 67.7582C391.908 67.7586 392.533 67.8448 393.103 68.017C393.681 68.1813 394.196 68.4433 394.649 68.8029C395.11 69.1625 395.5 69.6314 395.82 70.2097C396.147 70.7802 396.397 71.4717 396.568 72.2843C396.739 73.089 396.824 74.0266 396.823 75.0969ZM393.996 78.283L393.999 74.6736C394 73.994 393.961 73.3963 393.884 72.8806C393.806 72.3571 393.689 71.9157 393.533 71.5562C393.385 71.189 393.198 70.892 392.971 70.6653C392.745 70.4309 392.487 70.2628 392.198 70.1611C391.91 70.0515 391.585 69.9967 391.226 69.9965C390.788 69.9963 390.398 70.0821 390.054 70.2538C389.71 70.4177 389.421 70.6831 389.186 71.0502C388.951 71.4173 388.771 71.9016 388.646 72.5031C388.528 73.0968 388.469 73.8194 388.468 74.671L388.465 78.2803C388.464 78.9678 388.503 79.5733 388.58 80.0968C388.658 80.6203 388.775 81.0696 388.931 81.4446C389.087 81.8119 389.274 82.1167 389.492 82.359C389.719 82.5934 389.976 82.7654 390.265 82.875C390.562 82.9845 390.886 83.0393 391.238 83.0395C391.683 83.0397 392.078 82.954 392.422 82.7823C392.766 82.6105 393.055 82.3373 393.29 81.9624C393.524 81.5797 393.7 81.0837 393.818 80.4743C393.936 79.865 393.995 79.1346 393.996 78.283ZM401.249 82.3412L401.235 84.3568C401.234 85.1537 401.034 85.9739 400.635 86.8175C400.236 87.661 399.708 88.3561 399.051 88.9027L397.54 88.023C397.759 87.6716 397.959 87.3162 398.139 86.9569C398.319 86.5976 398.464 86.2149 398.574 85.8087C398.683 85.4025 398.738 84.9533 398.739 84.4611L398.741 82.34L401.249 82.3412ZM405.873 77.1286L403.623 76.5767L404.557 67.9991L413.756 68.0035L413.754 70.3941L406.898 70.3908L406.426 74.5742C406.692 74.4181 407.059 74.2659 407.528 74.1177C407.997 73.9617 408.532 73.8838 409.133 73.8841C409.938 73.8845 410.657 74.0176 411.289 74.2836C411.93 74.5417 412.472 74.9209 412.917 75.4211C413.362 75.9135 413.701 76.5152 413.935 77.2263C414.169 77.9295 414.285 78.7225 414.285 79.6053C414.284 80.3944 414.166 81.1326 413.931 81.82C413.704 82.5074 413.36 83.1127 412.898 83.6359C412.437 84.1591 411.854 84.569 411.151 84.8655C410.455 85.1543 409.631 85.2984 408.678 85.2979C407.967 85.2976 407.284 85.1957 406.627 84.9923C405.979 84.781 405.397 84.4721 404.882 84.0656C404.367 83.6513 403.953 83.1433 403.641 82.5416C403.329 81.9321 403.15 81.2328 403.104 80.4437L405.87 80.445C405.94 80.9997 406.092 81.4725 406.326 81.8632C406.567 82.2461 406.887 82.5393 407.286 82.7426C407.684 82.9459 408.145 83.0477 408.668 83.0479C409.145 83.0482 409.555 82.9663 409.899 82.8024C410.243 82.6307 410.528 82.3887 410.755 82.0763C410.99 81.7561 411.162 81.3812 411.272 80.9515C411.389 80.5219 411.448 80.0454 411.449 79.5219C411.449 79.0219 411.383 78.5649 411.251 78.1507C411.126 77.7366 410.935 77.3772 410.677 77.0723C410.428 76.7675 410.112 76.533 409.729 76.3688C409.346 76.1967 408.905 76.1106 408.405 76.1103C407.733 76.11 407.217 76.2074 406.858 76.4025C406.506 76.5977 406.178 76.8397 405.873 77.1286Z" fill="black"/>
<path d="M352.433 157.83C352.429 162.547 351.789 167.217 350.549 171.574C349.309 175.931 347.493 179.89 345.207 183.224L327.837 157.818L352.433 157.83Z" fill="#A155B9"/>
<path d="M345.207 183.224C342.525 187.134 339.262 190.087 335.671 191.854C332.081 193.62 328.26 194.153 324.508 193.409C320.755 192.666 317.171 190.666 314.036 187.567C310.901 184.468 308.299 180.353 306.433 175.542C304.568 170.731 303.488 165.355 303.279 159.833C303.071 154.311 303.738 148.791 305.23 143.705C306.721 138.619 308.997 134.104 311.879 130.511C314.761 126.918 318.172 124.345 321.845 122.993L327.838 157.819L345.207 183.224Z" fill="#16BFD6"/>
<path d="M321.503 123.123C325.183 121.685 329.041 121.515 332.772 122.625C336.503 123.736 340.006 126.097 343.004 129.522C346.003 132.948 348.415 137.344 350.05 142.364C351.686 147.385 352.5 152.893 352.429 158.454L327.838 157.819L321.503 123.123Z" fill="#F765A3"/>
<rect width="20.2186" height="8" transform="matrix(1 0.000484193 -0.000891074 1 374.646 129.841)" fill="#F765A3"/>
<path d="M404.915 137.356L404.922 128.628L407.871 128.63C408.556 128.63 409.115 128.754 409.55 129.001C409.987 129.246 410.311 129.577 410.521 129.995C410.73 130.413 410.835 130.878 410.835 131.393C410.834 131.907 410.729 132.374 410.518 132.795C410.31 133.215 409.989 133.55 409.554 133.8C409.119 134.047 408.562 134.17 407.883 134.17L405.77 134.169L405.771 133.231L407.85 133.232C408.319 133.232 408.695 133.152 408.98 132.99C409.264 132.828 409.47 132.609 409.598 132.334C409.729 132.056 409.795 131.742 409.795 131.392C409.795 131.043 409.73 130.73 409.6 130.455C409.472 130.179 409.265 129.963 408.978 129.807C408.691 129.647 408.311 129.568 407.836 129.567L405.978 129.566L405.971 137.356L404.915 137.356ZM412.395 137.359L412.401 130.814L413.373 130.814L413.372 131.803L413.44 131.803C413.56 131.479 413.776 131.217 414.089 131.015C414.401 130.813 414.754 130.713 415.146 130.713C415.22 130.713 415.312 130.714 415.423 130.717C415.533 130.72 415.617 130.725 415.674 130.73L415.673 131.753C415.639 131.744 415.561 131.732 415.439 131.715C415.319 131.695 415.193 131.685 415.06 131.685C414.741 131.684 414.457 131.751 414.207 131.884C413.96 132.015 413.764 132.197 413.619 132.43C413.476 132.66 413.405 132.922 413.405 133.218L413.401 137.36L412.395 137.359ZM419.32 137.499C418.729 137.499 418.211 137.358 417.765 137.076C417.322 136.795 416.976 136.401 416.726 135.896C416.48 135.39 416.357 134.799 416.357 134.123C416.358 133.441 416.482 132.846 416.729 132.337C416.98 131.829 417.327 131.434 417.77 131.153C418.217 130.872 418.735 130.732 419.326 130.732C419.917 130.732 420.434 130.873 420.877 131.155C421.323 131.436 421.669 131.831 421.916 132.34C422.165 132.848 422.29 133.444 422.289 134.126C422.288 134.802 422.163 135.392 421.912 135.898C421.665 136.404 421.318 136.797 420.872 137.078C420.428 137.359 419.911 137.499 419.32 137.499ZM419.321 136.596C419.77 136.596 420.139 136.481 420.429 136.251C420.719 136.021 420.934 135.719 421.073 135.344C421.213 134.969 421.283 134.563 421.283 134.125C421.284 133.688 421.214 133.28 421.076 132.902C420.937 132.524 420.722 132.218 420.433 131.985C420.143 131.752 419.774 131.636 419.325 131.635C418.876 131.635 418.507 131.752 418.217 131.984C417.927 132.217 417.712 132.522 417.573 132.9C417.433 133.278 417.363 133.686 417.363 134.123C417.362 134.561 417.432 134.967 417.571 135.342C417.709 135.717 417.924 136.02 418.213 136.25C418.503 136.48 418.872 136.595 419.321 136.596ZM426.293 137.502C425.747 137.502 425.266 137.364 424.848 137.088C424.431 136.81 424.105 136.418 423.869 135.912C423.634 135.403 423.517 134.802 423.517 134.109C423.518 133.422 423.636 132.825 423.873 132.319C424.109 131.814 424.437 131.423 424.858 131.148C425.279 130.873 425.765 130.735 426.316 130.735C426.742 130.736 427.078 130.807 427.325 130.949C427.575 131.088 427.766 131.247 427.896 131.427C428.029 131.603 428.133 131.748 428.207 131.861L428.292 131.861L428.295 128.64L429.301 128.64L429.293 137.368L428.321 137.367L428.322 136.361L428.203 136.361C428.129 136.481 428.024 136.631 427.887 136.813C427.751 136.992 427.556 137.152 427.303 137.294C427.05 137.433 426.713 137.503 426.293 137.502ZM426.43 136.599C426.833 136.599 427.174 136.494 427.453 136.284C427.731 136.071 427.943 135.777 428.089 135.402C428.234 135.025 428.307 134.589 428.307 134.094C428.308 133.606 428.237 133.178 428.095 132.812C427.953 132.442 427.743 132.155 427.465 131.95C427.187 131.743 426.843 131.639 426.434 131.639C426.008 131.639 425.653 131.748 425.369 131.966C425.087 132.182 424.875 132.476 424.733 132.848C424.593 133.218 424.523 133.632 424.523 134.092C424.523 134.558 424.593 134.982 424.735 135.362C424.879 135.74 425.092 136.042 425.373 136.266C425.657 136.488 426.009 136.599 426.43 136.599ZM435.402 134.694L435.405 130.825L436.411 130.826L436.405 137.371L435.399 137.37L435.4 136.263L435.332 136.263C435.178 136.595 434.94 136.877 434.615 137.11C434.291 137.34 433.882 137.455 433.388 137.455C432.979 137.455 432.615 137.365 432.297 137.186C431.979 137.004 431.729 136.731 431.548 136.367C431.366 136.001 431.276 135.539 431.276 134.982L431.28 130.823L432.286 130.824L432.282 134.914C432.282 135.392 432.415 135.772 432.682 136.057C432.951 136.341 433.295 136.483 433.713 136.483C433.963 136.483 434.217 136.42 434.476 136.292C434.737 136.164 434.956 135.968 435.132 135.704C435.312 135.44 435.401 135.103 435.402 134.694ZM440.906 137.51C440.292 137.509 439.764 137.364 439.321 137.074C438.878 136.784 438.538 136.385 438.299 135.876C438.061 135.368 437.942 134.786 437.943 134.133C437.944 133.468 438.066 132.882 438.311 132.373C438.559 131.862 438.903 131.463 439.343 131.176C439.787 130.887 440.304 130.742 440.895 130.742C441.355 130.743 441.77 130.828 442.139 130.999C442.508 131.169 442.811 131.408 443.046 131.715C443.282 132.022 443.428 132.38 443.484 132.789L442.478 132.789C442.402 132.49 442.232 132.226 441.968 131.996C441.707 131.763 441.354 131.646 440.911 131.646C440.519 131.646 440.175 131.748 439.88 131.952C439.587 132.154 439.358 132.439 439.193 132.808C439.031 133.175 438.949 133.605 438.949 134.099C438.948 134.605 439.027 135.046 439.186 135.421C439.348 135.796 439.575 136.087 439.867 136.295C440.163 136.502 440.509 136.606 440.907 136.606C441.168 136.606 441.405 136.561 441.619 136.47C441.832 136.379 442.012 136.249 442.16 136.078C442.308 135.908 442.413 135.703 442.476 135.465L443.482 135.465C443.424 135.852 443.284 136.2 443.059 136.509C442.837 136.816 442.543 137.06 442.176 137.242C441.812 137.42 441.389 137.51 440.906 137.51ZM447.803 130.831L447.802 131.683L444.41 131.682L444.41 130.829L447.803 130.831ZM445.401 129.262L446.406 129.262L446.401 135.501C446.4 135.785 446.441 135.998 446.524 136.14C446.609 136.279 446.717 136.373 446.847 136.421C446.981 136.467 447.121 136.49 447.269 136.49C447.38 136.49 447.471 136.484 447.542 136.473C447.613 136.459 447.67 136.447 447.712 136.439L447.916 137.342C447.848 137.368 447.753 137.394 447.63 137.419C447.508 137.447 447.353 137.462 447.166 137.461C446.882 137.461 446.603 137.4 446.331 137.278C446.061 137.155 445.837 136.969 445.658 136.719C445.482 136.469 445.394 136.154 445.395 135.773L445.401 129.262ZM452.667 137.379L452.668 136.612L455.552 133.46C455.89 133.091 456.169 132.77 456.388 132.497C456.607 132.222 456.769 131.963 456.874 131.722C456.982 131.478 457.037 131.222 457.037 130.955C457.037 130.648 456.963 130.382 456.816 130.158C456.671 129.933 456.473 129.76 456.22 129.638C455.967 129.515 455.683 129.454 455.368 129.454C455.032 129.454 454.74 129.523 454.49 129.662C454.242 129.799 454.05 129.99 453.914 130.237C453.78 130.485 453.713 130.774 453.713 131.107L452.707 131.106C452.708 130.595 452.826 130.146 453.062 129.76C453.298 129.373 453.619 129.072 454.026 128.857C454.435 128.641 454.894 128.533 455.403 128.534C455.914 128.534 456.367 128.642 456.762 128.858C457.156 129.074 457.466 129.366 457.69 129.732C457.914 130.099 458.026 130.506 458.025 130.955C458.025 131.276 457.967 131.59 457.85 131.897C457.736 132.201 457.537 132.54 457.252 132.915C456.971 133.287 456.58 133.742 456.079 134.278L454.117 136.374L454.117 136.442L458.174 136.444L458.173 137.382L452.667 137.379Z" fill="black"/>
<rect width="20.2186" height="8" transform="matrix(1 0.000484193 -0.000891074 1 374.624 153.841)" fill="#16BFD6"/>
<path d="M404.893 161.356L404.901 152.628L407.85 152.63C408.535 152.63 409.094 152.754 409.528 153.001C409.966 153.246 410.289 153.577 410.499 153.995C410.709 154.413 410.814 154.878 410.813 155.393C410.813 155.907 410.707 156.374 410.497 156.795C410.289 157.215 409.968 157.55 409.533 157.8C409.098 158.047 408.541 158.17 407.862 158.17L405.748 158.169L405.749 157.231L407.829 157.232C408.297 157.232 408.674 157.152 408.958 156.99C409.242 156.828 409.449 156.609 409.577 156.334C409.708 156.056 409.773 155.742 409.774 155.392C409.774 155.043 409.709 154.73 409.578 154.455C409.451 154.179 409.244 153.963 408.957 153.807C408.67 153.647 408.289 153.568 407.815 153.567L405.957 153.566L405.95 161.356L404.893 161.356ZM412.374 161.359L412.38 154.814L413.351 154.814L413.351 155.803L413.419 155.803C413.538 155.479 413.754 155.217 414.067 155.015C414.38 154.813 414.732 154.713 415.124 154.713C415.198 154.713 415.29 154.714 415.401 154.717C415.512 154.72 415.596 154.725 415.653 154.73L415.652 155.753C415.618 155.744 415.54 155.732 415.417 155.715C415.298 155.695 415.172 155.685 415.038 155.685C414.72 155.684 414.436 155.751 414.186 155.884C413.938 156.015 413.742 156.197 413.597 156.43C413.455 156.66 413.384 156.922 413.383 157.218L413.38 161.36L412.374 161.359ZM419.299 161.499C418.708 161.499 418.189 161.358 417.744 161.076C417.301 160.795 416.954 160.401 416.705 159.896C416.458 159.39 416.335 158.799 416.336 158.123C416.336 157.441 416.46 156.846 416.708 156.337C416.958 155.829 417.305 155.434 417.749 155.153C418.195 154.872 418.714 154.732 419.305 154.732C419.896 154.732 420.412 154.873 420.855 155.155C421.301 155.436 421.647 155.831 421.894 156.34C422.144 156.848 422.268 157.444 422.268 158.126C422.267 158.802 422.141 159.392 421.891 159.898C421.643 160.404 421.296 160.797 420.85 161.078C420.407 161.359 419.89 161.499 419.299 161.499ZM419.299 160.596C419.748 160.596 420.118 160.481 420.408 160.251C420.698 160.021 420.912 159.719 421.052 159.344C421.191 158.969 421.261 158.563 421.262 158.125C421.262 157.688 421.193 157.28 421.054 156.902C420.915 156.524 420.701 156.218 420.411 155.985C420.122 155.752 419.753 155.636 419.304 155.635C418.855 155.635 418.486 155.752 418.196 155.984C417.906 156.217 417.691 156.522 417.551 156.9C417.412 157.278 417.342 157.686 417.341 158.123C417.341 158.561 417.41 158.967 417.549 159.342C417.688 159.717 417.902 160.02 418.192 160.25C418.481 160.48 418.851 160.595 419.299 160.596ZM426.271 161.502C425.726 161.502 425.244 161.364 424.827 161.088C424.41 160.81 424.083 160.418 423.848 159.912C423.613 159.403 423.495 158.802 423.496 158.109C423.496 157.422 423.615 156.825 423.851 156.319C424.087 155.814 424.416 155.423 424.837 155.148C425.257 154.873 425.743 154.735 426.294 154.735C426.72 154.736 427.057 154.807 427.304 154.949C427.554 155.088 427.744 155.247 427.875 155.427C428.008 155.603 428.112 155.748 428.185 155.861L428.271 155.861L428.273 152.64L429.279 152.64L429.271 161.368L428.3 161.367L428.301 160.361L428.181 160.361C428.107 160.481 428.002 160.631 427.866 160.813C427.729 160.992 427.534 161.152 427.281 161.294C427.028 161.433 426.692 161.503 426.271 161.502ZM426.408 160.599C426.812 160.599 427.153 160.494 427.431 160.284C427.71 160.071 427.922 159.777 428.067 159.402C428.212 159.025 428.285 158.589 428.286 158.094C428.286 157.606 428.215 157.178 428.074 156.812C427.932 156.442 427.722 156.155 427.444 155.95C427.166 155.743 426.822 155.639 426.413 155.639C425.987 155.639 425.632 155.748 425.347 155.966C425.066 156.182 424.854 156.476 424.711 156.848C424.572 157.218 424.502 157.632 424.502 158.092C424.501 158.558 424.572 158.982 424.714 159.362C424.858 159.74 425.071 160.042 425.352 160.266C425.636 160.488 425.988 160.599 426.408 160.599ZM435.38 158.694L435.384 154.825L436.389 154.826L436.384 161.371L435.378 161.37L435.379 160.263L435.311 160.263C435.157 160.595 434.918 160.877 434.594 161.11C434.27 161.34 433.861 161.455 433.366 161.455C432.957 161.455 432.594 161.365 432.276 161.186C431.958 161.004 431.708 160.731 431.527 160.367C431.345 160.001 431.255 159.539 431.255 158.982L431.259 154.823L432.264 154.824L432.261 158.914C432.26 159.392 432.394 159.772 432.66 160.057C432.93 160.341 433.274 160.483 433.691 160.483C433.941 160.483 434.196 160.42 434.454 160.292C434.716 160.164 434.935 159.968 435.111 159.704C435.29 159.44 435.38 159.103 435.38 158.694ZM440.885 161.51C440.271 161.509 439.743 161.364 439.3 161.074C438.857 160.784 438.516 160.385 438.278 159.876C438.04 159.368 437.921 158.786 437.922 158.133C437.922 157.468 438.045 156.882 438.29 156.373C438.537 155.862 438.881 155.463 439.322 155.176C439.765 154.887 440.283 154.742 440.874 154.742C441.334 154.743 441.748 154.828 442.118 154.999C442.487 155.169 442.789 155.408 443.025 155.715C443.26 156.022 443.406 156.38 443.463 156.789L442.457 156.789C442.381 156.49 442.21 156.226 441.946 155.996C441.685 155.763 441.333 155.646 440.89 155.646C440.498 155.646 440.154 155.748 439.858 155.952C439.565 156.154 439.337 156.439 439.171 156.808C439.009 157.175 438.928 157.605 438.927 158.099C438.927 158.605 439.006 159.046 439.165 159.421C439.326 159.796 439.553 160.087 439.846 160.295C440.141 160.502 440.488 160.606 440.885 160.606C441.147 160.606 441.384 160.561 441.597 160.47C441.81 160.379 441.991 160.249 442.139 160.078C442.287 159.908 442.392 159.703 442.455 159.465L443.46 159.465C443.403 159.852 443.262 160.2 443.037 160.509C442.816 160.816 442.521 161.06 442.155 161.242C441.791 161.42 441.368 161.51 440.885 161.51ZM447.781 154.831L447.78 155.683L444.388 155.682L444.389 154.829L447.781 154.831ZM445.379 153.262L446.385 153.262L446.379 159.501C446.379 159.785 446.42 159.998 446.502 160.14C446.587 160.279 446.695 160.373 446.826 160.421C446.959 160.467 447.1 160.49 447.248 160.49C447.358 160.49 447.449 160.484 447.52 160.473C447.591 160.459 447.648 160.447 447.691 160.439L447.895 161.342C447.826 161.368 447.731 161.394 447.609 161.419C447.487 161.447 447.332 161.462 447.145 161.461C446.86 161.461 446.582 161.4 446.309 161.278C446.04 161.155 445.815 160.969 445.637 160.719C445.461 160.469 445.373 160.154 445.373 159.773L445.379 153.262ZM455.595 161.5C455.032 161.499 454.531 161.402 454.091 161.209C453.653 161.016 453.306 160.747 453.047 160.403C452.792 160.056 452.653 159.654 452.631 159.197L453.705 159.198C453.727 159.479 453.824 159.722 453.994 159.926C454.164 160.128 454.387 160.285 454.663 160.395C454.938 160.506 455.243 160.562 455.579 160.562C455.954 160.562 456.286 160.497 456.576 160.367C456.866 160.236 457.093 160.054 457.258 159.821C457.423 159.589 457.506 159.319 457.506 159.012C457.506 158.691 457.427 158.408 457.268 158.164C457.109 157.917 456.877 157.723 456.57 157.584C456.263 157.445 455.888 157.375 455.445 157.375L454.746 157.374L454.747 156.437L455.446 156.437C455.792 156.437 456.097 156.375 456.358 156.25C456.622 156.125 456.828 155.949 456.976 155.722C457.127 155.495 457.203 155.228 457.203 154.921C457.203 154.625 457.138 154.368 457.008 154.149C456.877 153.931 456.693 153.76 456.454 153.638C456.218 153.516 455.94 153.454 455.619 153.454C455.318 153.454 455.034 153.509 454.767 153.62C454.502 153.728 454.286 153.885 454.118 154.093C453.951 154.297 453.86 154.544 453.845 154.834L452.822 154.833C452.84 154.376 452.978 153.976 453.237 153.632C453.496 153.286 453.834 153.016 454.252 152.823C454.672 152.63 455.134 152.533 455.637 152.534C456.177 152.534 456.64 152.644 457.026 152.863C457.412 153.079 457.709 153.364 457.916 153.719C458.123 154.075 458.226 154.458 458.226 154.87C458.225 155.362 458.096 155.781 457.837 156.127C457.581 156.474 457.233 156.713 456.792 156.847L456.792 156.915C457.343 157.006 457.773 157.241 458.083 157.619C458.392 157.994 458.546 158.458 458.546 159.012C458.545 159.487 458.416 159.913 458.157 160.291C457.901 160.665 457.551 160.961 457.108 161.176C456.664 161.392 456.16 161.5 455.595 161.5Z" fill="black"/>
<rect width="20.2186" height="8" transform="matrix(1 0.000484193 -0.000891074 1 374.603 177.841)" fill="#A155B9"/>
<path d="M404.872 185.356L404.88 176.628L407.828 176.63C408.513 176.63 409.073 176.754 409.507 177.001C409.944 177.246 410.268 177.577 410.478 177.995C410.688 178.413 410.792 178.878 410.792 179.393C410.791 179.907 410.686 180.374 410.475 180.795C410.268 181.215 409.946 181.55 409.511 181.8C409.076 182.047 408.52 182.17 407.841 182.17L405.727 182.169L405.728 181.231L407.807 181.232C408.276 181.232 408.653 181.152 408.937 180.99C409.221 180.828 409.427 180.609 409.555 180.334C409.686 180.056 409.752 179.742 409.752 179.392C409.752 179.043 409.687 178.73 409.557 178.455C409.429 178.179 409.222 177.963 408.935 177.807C408.649 177.647 408.268 177.568 407.794 177.567L405.936 177.566L405.929 185.356L404.872 185.356ZM412.353 185.359L412.358 178.814L413.33 178.814L413.329 179.803L413.397 179.803C413.517 179.479 413.733 179.217 414.046 179.015C414.358 178.813 414.711 178.713 415.103 178.713C415.177 178.713 415.269 178.714 415.38 178.717C415.491 178.72 415.574 178.725 415.631 178.73L415.63 179.753C415.596 179.744 415.518 179.732 415.396 179.715C415.277 179.695 415.15 179.685 415.017 179.685C414.699 179.684 414.414 179.751 414.164 179.884C413.917 180.015 413.721 180.197 413.576 180.43C413.434 180.66 413.362 180.922 413.362 181.218L413.358 185.36L412.353 185.359ZM419.277 185.499C418.686 185.499 418.168 185.358 417.722 185.076C417.279 184.795 416.933 184.401 416.683 183.896C416.437 183.39 416.314 182.799 416.314 182.123C416.315 181.441 416.439 180.846 416.687 180.337C416.937 179.829 417.284 179.434 417.727 179.153C418.174 178.872 418.692 178.732 419.283 178.732C419.874 178.732 420.391 178.873 420.834 179.155C421.28 179.436 421.626 179.831 421.873 180.34C422.122 180.848 422.247 181.444 422.246 182.126C422.246 182.802 422.12 183.392 421.87 183.898C421.622 184.404 421.275 184.797 420.829 185.078C420.385 185.359 419.868 185.499 419.277 185.499ZM419.278 184.596C419.727 184.596 420.096 184.481 420.386 184.251C420.676 184.021 420.891 183.719 421.031 183.344C421.17 182.969 421.24 182.563 421.24 182.125C421.241 181.688 421.172 181.28 421.033 180.902C420.894 180.524 420.68 180.218 420.39 179.985C420.101 179.752 419.731 179.636 419.282 179.635C418.834 179.635 418.464 179.752 418.174 179.984C417.884 180.217 417.669 180.522 417.53 180.9C417.39 181.278 417.32 181.686 417.32 182.123C417.32 182.561 417.389 182.967 417.528 183.342C417.667 183.717 417.881 184.02 418.17 184.25C418.46 184.48 418.829 184.595 419.278 184.596ZM426.25 185.502C425.704 185.502 425.223 185.364 424.806 185.088C424.388 184.81 424.062 184.418 423.827 183.912C423.591 183.403 423.474 182.802 423.474 182.109C423.475 181.422 423.594 180.825 423.83 180.319C424.066 179.814 424.395 179.423 424.815 179.148C425.236 178.873 425.722 178.735 426.273 178.735C426.699 178.736 427.036 178.807 427.283 178.949C427.533 179.088 427.723 179.247 427.853 179.427C427.987 179.603 428.09 179.748 428.164 179.861L428.249 179.861L428.252 176.64L429.258 176.64L429.25 185.368L428.278 185.367L428.279 184.361L428.16 184.361C428.086 184.481 427.981 184.631 427.844 184.813C427.708 184.992 427.513 185.152 427.26 185.294C427.007 185.433 426.67 185.503 426.25 185.502ZM426.387 184.599C426.79 184.599 427.131 184.494 427.41 184.284C427.689 184.071 427.901 183.777 428.046 183.402C428.191 183.025 428.264 182.589 428.264 182.094C428.265 181.606 428.194 181.178 428.052 180.812C427.911 180.442 427.701 180.155 427.422 179.95C427.144 179.743 426.801 179.639 426.391 179.639C425.965 179.639 425.61 179.748 425.326 179.966C425.044 180.182 424.832 180.476 424.69 180.848C424.551 181.218 424.481 181.632 424.48 182.092C424.48 182.558 424.55 182.982 424.692 183.362C424.837 183.74 425.049 184.042 425.331 184.266C425.614 184.488 425.967 184.599 426.387 184.599ZM435.359 182.694L435.362 178.825L436.368 178.826L436.362 185.371L435.357 185.37L435.358 184.263L435.289 184.263C435.136 184.595 434.897 184.877 434.573 185.11C434.249 185.34 433.839 185.455 433.345 185.455C432.936 185.455 432.572 185.365 432.254 185.186C431.936 185.004 431.687 184.731 431.505 184.367C431.324 184.001 431.233 183.539 431.234 182.982L431.237 178.823L432.243 178.824L432.239 182.914C432.239 183.392 432.372 183.772 432.639 184.057C432.909 184.341 433.252 184.483 433.67 184.483C433.92 184.483 434.174 184.42 434.433 184.292C434.694 184.164 434.913 183.968 435.09 183.704C435.269 183.44 435.359 183.103 435.359 182.694ZM440.863 185.51C440.25 185.509 439.721 185.364 439.278 185.074C438.835 184.784 438.495 184.385 438.257 183.876C438.018 183.368 437.9 182.786 437.9 182.133C437.901 181.468 438.024 180.882 438.268 180.373C438.516 179.862 438.86 179.463 439.301 179.176C439.744 178.887 440.261 178.742 440.852 178.742C441.312 178.743 441.727 178.828 442.096 178.999C442.465 179.169 442.768 179.408 443.003 179.715C443.239 180.022 443.385 180.38 443.441 180.789L442.436 180.789C442.359 180.49 442.189 180.226 441.925 179.996C441.664 179.763 441.312 179.646 440.868 179.646C440.476 179.646 440.132 179.748 439.837 179.952C439.544 180.154 439.315 180.439 439.15 180.808C438.988 181.175 438.906 181.605 438.906 182.099C438.906 182.605 438.985 183.046 439.143 183.421C439.305 183.796 439.532 184.087 439.824 184.295C440.12 184.502 440.466 184.606 440.864 184.606C441.125 184.606 441.363 184.561 441.576 184.47C441.789 184.379 441.969 184.249 442.117 184.078C442.265 183.908 442.37 183.703 442.433 183.465L443.439 183.465C443.382 183.852 443.241 184.2 443.016 184.509C442.794 184.816 442.5 185.06 442.133 185.242C441.769 185.42 441.346 185.51 440.863 185.51ZM447.76 178.831L447.759 179.683L444.367 179.682L444.368 178.829L447.76 178.831ZM445.358 177.262L446.363 177.262L446.358 183.501C446.358 183.785 446.399 183.998 446.481 184.14C446.566 184.279 446.674 184.373 446.804 184.421C446.938 184.467 447.079 184.49 447.226 184.49C447.337 184.49 447.428 184.484 447.499 184.473C447.57 184.459 447.627 184.447 447.67 184.439L447.873 185.342C447.805 185.368 447.71 185.394 447.588 185.419C447.465 185.447 447.311 185.462 447.123 185.461C446.839 185.461 446.561 185.4 446.288 185.278C446.018 185.155 445.794 184.969 445.615 184.719C445.439 184.469 445.352 184.154 445.352 183.773L445.358 177.262ZM455.573 185.5C455.011 185.499 454.51 185.402 454.069 185.209C453.632 185.016 453.284 184.747 453.026 184.403C452.771 184.056 452.632 183.654 452.61 183.197L453.683 183.198C453.706 183.479 453.802 183.722 453.973 183.926C454.143 184.128 454.366 184.285 454.641 184.395C454.917 184.506 455.222 184.562 455.557 184.562C455.932 184.562 456.265 184.497 456.555 184.367C456.844 184.236 457.072 184.054 457.237 183.821C457.402 183.589 457.484 183.319 457.485 183.012C457.485 182.691 457.406 182.408 457.247 182.164C457.088 181.917 456.855 181.723 456.548 181.584C456.242 181.445 455.867 181.375 455.424 181.375L454.725 181.374L454.726 180.437L455.425 180.437C455.771 180.437 456.075 180.375 456.337 180.25C456.601 180.125 456.807 179.949 456.955 179.722C457.106 179.495 457.181 179.228 457.182 178.921C457.182 178.625 457.117 178.368 456.986 178.149C456.856 177.931 456.671 177.76 456.433 177.638C456.197 177.516 455.919 177.454 455.598 177.454C455.296 177.454 455.012 177.509 454.745 177.62C454.481 177.728 454.265 177.885 454.097 178.093C453.929 178.297 453.838 178.544 453.824 178.834L452.801 178.833C452.818 178.376 452.957 177.976 453.215 177.632C453.474 177.286 453.812 177.016 454.23 176.823C454.651 176.63 455.113 176.533 455.615 176.534C456.155 176.534 456.618 176.644 457.004 176.863C457.391 177.079 457.687 177.364 457.894 177.719C458.101 178.075 458.205 178.458 458.204 178.87C458.204 179.362 458.074 179.781 457.815 180.127C457.559 180.474 457.211 180.713 456.771 180.847L456.771 180.915C457.322 181.006 457.752 181.241 458.061 181.619C458.371 181.994 458.525 182.458 458.524 183.012C458.524 183.487 458.394 183.913 458.136 184.291C457.88 184.665 457.53 184.961 457.086 185.176C456.643 185.392 456.139 185.5 455.573 185.5Z" fill="black"/>
</g>
<defs>
<filter id="filter0_d_492_5938" x="0" y="0" width="510.772" height="262.146" filterUnits="userSpaceOnUse" color-interpolation-filters="sRGB">
<feFlood flood-opacity="0" result="BackgroundImageFix"/>
<feColorMatrix in="SourceAlpha" type="matrix" values="0 0 0 0 0 0 0 0 0 0 0 0 0 0 0 0 0 0 127 0" result="hardAlpha"/>
<feOffset dy="4"/>
<feGaussianBlur stdDeviation="2"/>
<feComposite in2="hardAlpha" operator="out"/>
<feColorMatrix type="matrix" values="0 0 0 0 0 0 0 0 0 0 0 0 0 0 0 0 0 0 0.25 0"/>
<feBlend mode="normal" in2="BackgroundImageFix" result="effect1_dropShadow_492_5938"/>
<feBlend mode="normal" in="SourceGraphic" in2="effect1_dropShadow_492_5938" result="shape"/>
</filter>
<clipPath id="clip0_492_5938">
<rect width="252.47" height="501.931" fill="white" transform="translate(4 252.468) rotate(-89.8084)"/>
</clipPath>
</defs>
</svg>
