<svg width="503" height="255" viewBox="0 0 503 255" fill="none" xmlns="http://www.w3.org/2000/svg">
<g clip-path="url(#clip0_489_5490)">
<mask id="mask0_489_5490" style="mask-type:luminance" maskUnits="userSpaceOnUse" x="28" y="13" width="465" height="228">
<path d="M28.9111 239.309L29.6666 13.3526L486.232 14.8791C489.811 14.8911 492.703 17.8684 492.691 21.5289L491.981 233.626C491.968 237.62 488.792 240.846 484.888 240.833L28.9111 239.309Z" fill="white"/>
</mask>
<g mask="url(#mask0_489_5490)">
<path d="M28.9111 239.309L29.6666 13.3526L486.232 14.8791C489.811 14.8911 492.703 17.8684 492.691 21.5289L491.981 233.626C491.968 237.62 488.792 240.846 484.888 240.833L28.9111 239.309Z" fill="#4F5EC7"/>
<path d="M291.619 75.388L291.265 181.437C291.246 187.094 295.714 191.695 301.245 191.714L306.548 191.731C312.079 191.75 316.578 187.179 316.597 181.521L316.951 75.4727C316.97 69.8155 312.502 65.2144 306.971 65.1959L301.669 65.1782C296.137 65.1597 291.638 69.7308 291.619 75.388Z" fill="#4F5EC7"/>
</g>
<path d="M18.1662 238.67C13.0393 238.653 8.89481 235.141 8.90924 230.827L9.62051 18.0932C9.62938 15.4382 12.1942 13.2942 15.3492 13.3047L33.2013 13.3644L32.4478 238.718L18.1662 238.67Z" fill="#140E46"/>
<path opacity="0.35" d="M19.4732 32.1002L19.4944 25.7554C19.498 24.672 20.3594 23.797 21.4183 23.8005L22.4967 23.8041C23.5557 23.8076 24.4112 24.6884 24.4076 25.7718L24.3864 32.1167C24.3828 33.2001 23.5214 34.0751 22.4624 34.0715L21.384 34.0679C20.3251 34.0644 19.4695 33.1836 19.4732 32.1002Z" stroke="#ECECEC" stroke-width="0.751085"/>
<path opacity="0.4" d="M20.9374 22.839L22.9839 22.8458C22.8119 22.4361 22.4096 22.1691 21.9629 22.1676C21.5162 22.1661 21.1121 22.4304 20.9374 22.839Z" fill="#ECECEC"/>
<path d="M129.234 2.59229L129.237 1.70051C129.239 1.20822 129.632 0.810054 130.116 0.811671L187.311 1.0029C187.794 1.00452 188.185 1.40531 188.183 1.89759L188.18 2.78937L129.234 2.59229Z" fill="#303030"/>
<path d="M199.608 250.75L199.605 251.642C199.603 252.135 199.21 252.533 198.727 252.531L164.293 252.416C163.809 252.414 163.419 252.014 163.42 251.521L163.423 250.629L199.608 250.75Z" fill="#303030"/>
<path d="M151.75 250.59L151.747 251.482C151.746 251.975 151.352 252.373 150.869 252.371L116.435 252.256C115.951 252.254 115.561 251.854 115.563 251.361L115.566 250.469L151.75 250.59Z" fill="white"/>
<path d="M98.0571 250.411L98.0541 251.303C98.0525 251.795 97.6588 252.193 97.1757 252.191L80.2504 252.135C79.7667 252.133 79.3763 251.733 79.3779 251.24L79.3809 250.348L98.0571 250.411Z" fill="white"/>
<path fill-rule="evenodd" clip-rule="evenodd" d="M26.2271 248.279C31.9351 250.19 38.9961 250.213 53.1178 250.26L447.648 251.579C461.77 251.627 468.83 251.65 474.551 249.778C486.113 245.994 495.199 236.8 498.99 225.048C500.866 219.233 500.89 212.04 500.938 197.655L501.406 57.9402C501.454 43.5543 501.478 36.3617 499.64 30.5343C495.928 18.7569 486.904 9.50283 475.367 5.64164C469.659 3.73053 462.599 3.70691 448.477 3.6597L53.9467 2.34059C39.825 2.29338 32.7641 2.26978 27.0434 4.14268C15.4816 7.92664 6.39617 17.1202 2.60432 28.8724C0.728165 34.6875 0.704116 41.8801 0.656017 56.2659L0.188885 195.98C0.140787 210.366 0.116738 217.559 1.95397 223.386C5.66715 235.164 14.6909 244.418 26.2271 248.279ZM14.5175 187.11L17.1438 187.119L17.1426 187.076L17.4356 187.12C24.3656 187.143 30.0027 181.439 30.0263 174.379L30.3483 78.0651C30.3719 71.0056 24.7731 65.2638 17.8431 65.2406L17.5499 65.2824L17.5513 65.2403L14.925 65.2315C13.1522 65.2256 11.72 63.7566 11.726 61.9507L11.7516 54.2929C11.7916 42.3215 11.8116 36.3357 13.5984 31.5677C16.4068 24.074 22.2411 18.1698 29.6164 15.3594C34.3087 13.5711 40.1845 13.5907 51.9363 13.63L450.412 14.9623C462.163 15.0016 468.039 15.0212 472.72 16.8409C480.076 19.7005 485.871 25.6437 488.628 33.1559C490.383 37.9358 490.363 43.9216 490.323 55.893L489.843 199.627C489.803 211.598 489.783 217.584 487.996 222.352C485.188 229.846 479.353 235.75 471.978 238.56C467.286 240.349 461.41 240.329 449.658 240.29L51.1829 238.957C39.4311 238.918 33.5553 238.898 28.8751 237.079C21.5187 234.219 15.724 228.276 12.9658 220.764C11.211 215.984 11.231 209.998 11.271 198.027L11.2967 190.369C11.3027 188.563 12.7447 187.104 14.5175 187.11Z" fill="white"/>
<path fill-rule="evenodd" clip-rule="evenodd" d="M1.8242 56.0313L1.35548 196.222C1.30797 210.433 1.29189 217.397 3.06546 223.022C6.66441 234.437 15.4105 243.407 26.5918 247.149C32.102 248.993 38.9386 249.024 52.8884 249.07L447.885 250.391C461.835 250.438 468.672 250.453 474.194 248.646C485.401 244.978 494.207 236.067 497.881 224.677C499.693 219.063 499.723 212.099 499.771 197.888L500.239 57.6978C500.287 43.4872 500.303 36.5229 498.529 30.8976C494.931 19.4821 486.184 10.5134 475.003 6.77087C469.493 4.9261 462.656 4.89601 448.706 4.84937L53.7094 3.52871C39.7595 3.48207 32.9229 3.46644 27.4005 5.27433C16.1944 8.94198 7.38856 17.8521 3.71336 29.2432C1.90221 34.8565 1.87172 41.8208 1.8242 56.0313ZM26.4095 247.714C32.0297 249.595 38.982 249.618 52.8865 249.665L447.883 250.985C461.788 251.032 468.74 251.055 474.373 249.212C485.756 245.486 494.703 236.434 498.436 224.862C500.283 219.137 500.307 212.055 500.354 197.89L500.823 57.6997C500.87 43.5356 500.894 36.4532 499.085 30.7156C495.429 19.1193 486.544 10.0078 475.185 6.20569C469.565 4.32499 462.613 4.30175 448.708 4.25526L53.7114 2.9346C39.8069 2.88811 32.8546 2.86486 27.222 4.70793C15.8381 8.43404 6.89245 17.4859 3.15891 29.0575C1.31162 34.7829 1.28794 41.8652 1.24058 56.0294L0.771857 196.22C0.724499 210.384 0.70082 217.467 2.50979 223.204C6.16586 234.8 15.0508 243.912 26.4095 247.714Z" fill="#303030"/>
<path fill-rule="evenodd" clip-rule="evenodd" d="M27.1383 245.453C32.4073 247.217 38.925 247.239 51.9605 247.282L448.825 248.609C461.86 248.653 468.378 248.675 473.659 246.946C484.331 243.453 492.718 234.967 496.218 224.119C497.95 218.751 497.972 212.112 498.017 198.833L498.492 56.7394C498.536 43.4604 498.558 36.8209 496.862 31.4422C493.435 20.5703 485.105 12.0283 474.456 8.46412C469.187 6.7003 462.669 6.6785 449.634 6.63492L52.7695 5.30801C39.734 5.26443 33.2163 5.24264 27.9357 6.97119C17.2632 10.4641 8.87668 18.9501 5.37653 29.7989C3.64469 35.1661 3.62249 41.8056 3.5781 55.0846L3.10301 197.178C3.05861 210.457 3.03641 217.096 4.73232 222.475C8.15985 233.347 16.4895 241.889 27.1383 245.453ZM14.5175 187.109L17.1438 187.118L17.1426 187.075L17.4356 187.119C24.3656 187.142 30.0026 181.438 30.0262 174.379L30.3482 78.0646C30.3718 71.0052 24.7731 65.2634 17.8431 65.2402L17.5498 65.282L17.5513 65.2392L14.925 65.2304C13.1522 65.2245 11.7199 63.7561 11.726 61.9497L11.7516 54.2919C11.7916 42.321 11.8116 36.3353 13.5983 31.5672C16.4068 24.073 22.241 18.1693 29.6164 15.3584C34.3086 13.5706 40.1845 13.5903 51.9363 13.6295L450.412 14.9618C462.163 15.0011 468.039 15.0208 472.72 16.8399C480.076 19.7001 485.871 25.6426 488.628 33.1554C490.383 37.9354 490.363 43.9211 490.323 55.8919L489.843 199.626C489.803 211.597 489.783 217.583 487.996 222.351C485.188 229.845 479.353 235.749 471.978 238.56C467.286 240.348 461.41 240.328 449.658 240.289L51.1829 238.957C39.4311 238.917 33.5553 238.898 28.875 237.078C21.5187 234.218 15.724 228.276 12.9658 220.763C11.2109 215.983 11.231 209.997 11.271 198.026L11.2966 190.368C11.3026 188.562 12.7447 187.103 14.5175 187.109Z" fill="#121515"/>
<path d="M0.6719 51.5089L0.659973 55.076L3.5781 55.0858L3.59002 51.5186L0.6719 51.5089Z" fill="#414141"/>
<path d="M51.0286 2.33053L51.0187 5.30322L54.5204 5.31493L54.5304 2.34223L51.0286 2.33053Z" fill="#414141"/>
<path d="M50.2096 247.277L50.1997 250.25L53.7015 250.262L53.7114 247.289L50.2096 247.277Z" fill="#414141"/>
<path d="M447.074 248.604L447.064 251.577L450.566 251.588L450.576 248.616L447.074 248.604Z" fill="#414141"/>
<path d="M447.893 3.65743L447.883 6.63013L451.385 6.64183L451.395 3.66914L447.893 3.65743Z" fill="#414141"/>
<path d="M498.017 198.834L498.005 202.401L500.923 202.411L500.935 198.843L498.017 198.834Z" fill="#414141"/>
<path fill-rule="evenodd" clip-rule="evenodd" d="M23.852 100.933C23.8608 98.3063 21.7775 96.1699 19.1989 96.1612C16.6203 96.1526 14.5228 98.275 14.514 100.902C14.5052 103.529 16.5885 105.665 19.1671 105.674C21.7457 105.682 23.8432 103.56 23.852 100.933Z" fill="#262C2D"/>
<path fill-rule="evenodd" clip-rule="evenodd" d="M22.1011 100.928C22.1066 99.2862 20.8045 97.9508 19.1929 97.9454C17.5812 97.94 16.2703 99.2667 16.2648 100.908C16.2593 102.55 17.5614 103.885 19.173 103.891C20.7846 103.896 22.0956 102.569 22.1011 100.928Z" fill="#121515"/>
<path opacity="0.4" fill-rule="evenodd" clip-rule="evenodd" d="M18.5999 100.915C18.601 100.586 18.3405 100.319 18.018 100.318C17.6955 100.317 17.4332 100.582 17.4321 100.911C17.431 101.24 17.6916 101.507 18.014 101.508C18.3365 101.509 18.5988 101.244 18.5999 100.915Z" fill="#636F73"/>
<path fill-rule="evenodd" clip-rule="evenodd" d="M19.0496 140.751C18.0826 140.747 17.3014 139.943 17.3048 138.954L17.3902 113.403C17.3935 112.415 18.18 111.615 19.147 111.619C20.114 111.622 20.8952 112.426 20.8919 113.415L20.8065 138.966C20.8032 139.954 20.0166 140.754 19.0496 140.751Z" fill="#262C2D"/>
<rect width="201.567" height="186.588" rx="17" transform="matrix(1 0.000484193 -0.000891074 1 47.8589 34.6311)" fill="#271B80"/>
<path d="M122.88 48.2923L122.87 59.6673L120.909 59.6664L120.919 48.2914L122.88 48.2923ZM126.393 53.0206L126.387 59.669L124.504 59.6681L124.512 51.215L126.285 51.2159L126.393 53.0206ZM126.055 55.1298L125.446 55.1217C125.452 54.5228 125.536 53.9733 125.697 53.4734C125.865 52.9735 126.094 52.5439 126.386 52.1847C126.683 51.8254 127.038 51.5496 127.449 51.3571C127.861 51.1593 128.319 51.0606 128.825 51.0608C129.231 51.061 129.598 51.1185 129.926 51.2333C130.259 51.3428 130.543 51.5226 130.777 51.7727C131.016 52.0228 131.198 52.3485 131.323 52.7496C131.448 53.1454 131.51 53.6325 131.509 54.2106L131.504 59.6715L129.614 59.6706L129.619 54.2019C129.619 53.7956 129.559 53.4753 129.44 53.2408C129.325 53.0012 129.156 52.8318 128.932 52.7328C128.714 52.6285 128.44 52.5763 128.112 52.5761C127.789 52.576 127.5 52.6435 127.245 52.7788C126.99 52.9141 126.773 53.0989 126.596 53.3332C126.424 53.5675 126.291 53.8383 126.197 54.1455C126.103 54.4528 126.056 54.7809 126.055 55.1298ZM138.248 51.2217L139.959 51.2225L139.952 59.4412C139.951 60.2016 139.789 60.8474 139.465 61.3785C139.142 61.9096 138.691 62.313 138.113 62.5888C137.534 62.8698 136.865 63.0101 136.105 63.0097C135.782 63.0095 135.422 62.9625 135.027 62.8685C134.636 62.7746 134.256 62.6234 133.886 62.4149C133.522 62.2116 133.218 61.9432 132.973 61.6097L133.857 60.5008C134.159 60.8603 134.492 61.1235 134.856 61.2903C135.221 61.4572 135.603 61.5407 136.004 61.5409C136.437 61.5411 136.804 61.4605 137.106 61.2992C137.414 61.1431 137.651 60.9115 137.818 60.6043C137.985 60.2971 138.068 59.9221 138.069 59.4794L138.074 53.1356L138.248 51.2217ZM132.502 55.5392L132.502 55.3751C132.503 54.7345 132.581 54.1512 132.738 53.6252C132.895 53.0941 133.119 52.6384 133.411 52.2584C133.703 51.8731 134.057 51.579 134.474 51.3761C134.891 51.168 135.363 51.064 135.889 51.0643C136.436 51.0645 136.902 51.1637 137.287 51.3618C137.677 51.5599 138.003 51.8439 138.263 52.2139C138.523 52.5786 138.725 53.0162 138.871 53.5266C139.021 54.0319 139.133 54.5945 139.205 55.2143L139.205 55.7377C139.137 56.3419 139.021 56.8939 138.86 57.3938C138.698 57.8938 138.484 58.3259 138.218 58.6904C137.952 59.0548 137.623 59.3359 137.233 59.5337C136.847 59.7314 136.391 59.8301 135.865 59.8299C135.35 59.8296 134.884 59.7226 134.467 59.5089C134.056 59.2951 133.702 58.9955 133.405 58.6099C133.114 58.2244 132.89 57.7711 132.735 57.2502C132.579 56.7241 132.501 56.1538 132.502 55.5392ZM134.385 55.376L134.385 55.5401C134.384 55.9255 134.42 56.2849 134.493 56.6183C134.571 56.9516 134.688 57.246 134.844 57.5013C135.005 57.7513 135.208 57.9494 135.453 58.0953C135.703 58.2361 135.997 58.3065 136.335 58.3067C136.778 58.3069 137.14 58.2133 137.422 58.0259C137.708 57.8386 137.927 57.5861 138.078 57.2685C138.235 56.9456 138.345 56.5863 138.408 56.1905L138.409 54.7764C138.378 54.4691 138.313 54.1826 138.214 53.917C138.121 53.6513 137.993 53.4195 137.832 53.2215C137.671 53.0183 137.468 52.8619 137.223 52.7524C136.978 52.6377 136.689 52.5803 136.356 52.5801C136.018 52.58 135.723 52.6527 135.473 52.7984C135.223 52.9442 135.017 53.1446 134.855 53.3997C134.699 53.6548 134.581 53.9517 134.503 54.2902C134.425 54.6287 134.385 54.9906 134.385 55.376ZM143.201 52.8334L143.195 59.6772L141.312 59.6763L141.32 51.2231L143.117 51.224L143.201 52.8334ZM145.789 51.1706L145.771 52.9206C145.657 52.8997 145.532 52.884 145.396 52.8736C145.266 52.8631 145.136 52.8578 145.006 52.8577C144.683 52.8576 144.399 52.9043 144.154 52.998C143.909 53.0864 143.703 53.2165 143.537 53.3883C143.375 53.5549 143.25 53.7579 143.161 53.9975C143.072 54.237 143.02 54.5052 143.004 54.8021L142.574 54.8331C142.575 54.3019 142.627 53.8097 142.732 53.3566C142.837 52.9036 142.993 52.5052 143.202 52.1616C143.416 51.8179 143.681 51.5498 143.999 51.3573C144.322 51.1647 144.695 51.0685 145.117 51.0687C145.231 51.0688 145.354 51.0793 145.484 51.1002C145.619 51.1211 145.721 51.1445 145.789 51.1706ZM149.931 59.8367C149.306 59.8364 148.741 59.7346 148.236 59.5312C147.736 59.3226 147.309 59.0333 146.955 58.6634C146.607 58.2934 146.339 57.8584 146.152 57.3583C145.965 56.8582 145.871 56.3191 145.872 55.741L145.872 55.4285C145.873 54.767 145.97 54.1681 146.163 53.6317C146.356 53.0954 146.625 52.6372 146.969 52.2571C147.313 51.8719 147.719 51.5778 148.188 51.3749C148.657 51.172 149.165 51.0707 149.712 51.071C150.316 51.0713 150.845 51.1731 151.298 51.3764C151.751 51.5798 152.125 51.8664 152.422 52.2363C152.724 52.6011 152.947 53.0361 153.093 53.5413C153.243 54.0466 153.318 54.604 153.318 55.2133L153.317 56.018L146.786 56.0149L146.787 54.6633L151.459 54.6656L151.459 54.5171C151.449 54.1786 151.381 53.8608 151.257 53.5639C151.137 53.267 150.953 53.0273 150.703 52.8449C150.453 52.6625 150.12 52.5712 149.703 52.571C149.39 52.5708 149.112 52.6384 148.867 52.7737C148.627 52.9038 148.426 53.0938 148.265 53.3437C148.103 53.5936 147.978 53.8956 147.889 54.2498C147.805 54.5987 147.763 54.9919 147.763 55.4294L147.763 55.7419C147.762 56.1117 147.811 56.4555 147.91 56.7732C148.014 57.0858 148.165 57.3593 148.363 57.5937C148.56 57.8282 148.8 58.0132 149.081 58.1488C149.362 58.2791 149.682 58.3444 150.042 58.3446C150.495 58.3448 150.898 58.2538 151.253 58.0717C151.607 57.8896 151.915 57.6319 152.175 57.2987L153.167 58.2601C152.984 58.5257 152.747 58.7808 152.455 59.0254C152.163 59.2649 151.806 59.46 151.384 59.6108C150.967 59.7617 150.483 59.837 149.931 59.8367ZM158.927 57.3957C158.927 57.2082 158.88 57.0389 158.787 56.8879C158.693 56.7316 158.513 56.5908 158.248 56.4657C157.988 56.3406 157.602 56.2258 157.092 56.1214C156.644 56.0222 156.233 55.9048 155.858 55.7692C155.488 55.6284 155.171 55.459 154.905 55.261C154.64 55.0629 154.434 54.8285 154.289 54.5576C154.143 54.2866 154.07 53.9741 154.071 53.6199C154.071 53.2762 154.147 52.9507 154.298 52.6435C154.45 52.3363 154.666 52.0655 154.947 51.8313C155.229 51.5971 155.57 51.4123 155.971 51.2771C156.378 51.1419 156.831 51.0744 157.331 51.0746C158.039 51.075 158.646 51.1951 159.151 51.4349C159.661 51.6695 160.051 51.99 160.322 52.3964C160.592 52.7976 160.727 53.2508 160.727 53.756L158.844 53.7551C158.844 53.5311 158.787 53.3227 158.673 53.13C158.564 52.932 158.397 52.7731 158.173 52.6532C157.949 52.5281 157.668 52.4654 157.33 52.4653C157.007 52.4651 156.738 52.5171 156.525 52.6211C156.316 52.72 156.16 52.8501 156.056 53.0115C155.957 53.1729 155.907 53.35 155.907 53.5427C155.907 53.6833 155.933 53.811 155.985 53.9256C156.042 54.035 156.135 54.1366 156.266 54.2304C156.396 54.319 156.573 54.4024 156.797 54.4806C157.026 54.5589 157.312 54.6345 157.656 54.7076C158.301 54.8433 158.856 55.0181 159.319 55.2319C159.788 55.4404 160.147 55.7114 160.397 56.0449C160.646 56.3731 160.771 56.7899 160.771 57.2951C160.77 57.6701 160.689 58.0138 160.528 58.3262C160.371 58.6334 160.142 58.9015 159.839 59.1306C159.537 59.3544 159.175 59.5287 158.753 59.6535C158.336 59.7783 157.867 59.8405 157.346 59.8403C156.581 59.8399 155.933 59.7042 155.402 59.4331C154.871 59.1568 154.467 58.805 154.192 58.3778C153.921 57.9454 153.786 57.4974 153.786 57.0339L155.607 57.0348C155.627 57.3837 155.723 57.6624 155.895 57.8708C156.072 58.074 156.291 58.2226 156.551 58.3165C156.817 58.4051 157.09 58.4495 157.371 58.4497C157.71 58.4498 157.994 58.4057 158.223 58.3173C158.452 58.2236 158.627 58.0987 158.747 57.9425C158.867 57.7811 158.927 57.5989 158.927 57.3957ZM161.461 55.5532L161.461 55.3735C161.462 54.7641 161.551 54.1991 161.729 53.6783C161.906 53.1524 162.162 52.6968 162.495 52.3115C162.834 51.9211 163.246 51.6192 163.731 51.4059C164.22 51.1874 164.773 51.0783 165.387 51.0785C166.007 51.0788 166.559 51.1885 167.043 51.4075C167.532 51.6213 167.946 51.9235 168.284 52.3143C168.623 52.6999 168.88 53.1558 169.057 53.6819C169.233 54.2028 169.321 54.768 169.321 55.3773L169.321 55.557C169.32 56.1664 169.231 56.7315 169.053 57.2522C168.876 57.7729 168.618 58.2286 168.279 58.619C167.94 59.0043 167.528 59.3061 167.044 59.5247C166.559 59.738 166.009 59.8445 165.395 59.8442C164.775 59.8439 164.221 59.7368 163.731 59.5231C163.247 59.3041 162.836 59.0018 162.498 58.6162C162.159 58.2254 161.902 57.7696 161.725 57.2487C161.549 56.7277 161.461 56.1626 161.461 55.5532ZM163.344 55.3744L163.344 55.5541C163.344 55.9343 163.382 56.2937 163.46 56.6323C163.538 56.9709 163.66 57.2678 163.827 57.5231C163.993 57.7784 164.206 57.979 164.467 58.125C164.727 58.2709 165.037 58.344 165.396 58.3442C165.745 58.3443 166.047 58.2716 166.303 58.1259C166.563 57.9802 166.777 57.7797 166.944 57.5246C167.111 57.2695 167.233 56.9727 167.312 56.6342C167.395 56.2957 167.437 55.9363 167.438 55.5561L167.438 55.3764C167.438 55.0014 167.397 54.6472 167.314 54.3139C167.236 53.9753 167.111 53.6757 166.94 53.4152C166.773 53.1547 166.56 52.9515 166.3 52.8056C166.045 52.6544 165.74 52.5787 165.386 52.5785C165.032 52.5784 164.724 52.6537 164.464 52.8047C164.208 52.9504 163.997 53.1534 163.83 53.4137C163.663 53.6741 163.541 53.9735 163.462 54.312C163.384 54.6453 163.345 54.9994 163.344 55.3744ZM175.039 57.4035C175.039 57.216 174.993 57.0467 174.899 56.8957C174.805 56.7394 174.626 56.5986 174.36 56.4735C174.1 56.3484 173.715 56.2336 173.204 56.1292C172.757 56.03 172.345 55.9126 171.97 55.777C171.601 55.6362 171.283 55.4668 171.018 55.2688C170.752 55.0707 170.547 54.8363 170.401 54.5654C170.256 54.2944 170.183 53.9819 170.183 53.6277C170.184 53.284 170.259 52.9585 170.411 52.6513C170.562 52.3441 170.778 52.0733 171.06 51.8391C171.341 51.6049 171.683 51.4201 172.084 51.2849C172.49 51.1497 172.943 51.0822 173.443 51.0825C174.152 51.0828 174.758 51.2029 175.263 51.4427C175.774 51.6773 176.164 51.9978 176.434 52.4042C176.705 52.8054 176.84 53.2586 176.839 53.7638L174.957 53.7629C174.957 53.5389 174.9 53.3306 174.785 53.1378C174.676 52.9398 174.51 52.7809 174.286 52.661C174.062 52.5359 173.781 52.4732 173.442 52.4731C173.119 52.4729 172.851 52.5249 172.637 52.6289C172.429 52.7278 172.272 52.8579 172.168 53.0193C172.069 53.1807 172.019 53.3578 172.019 53.5505C172.019 53.6911 172.045 53.8188 172.097 53.9334C172.154 54.0428 172.248 54.1444 172.378 54.2382C172.508 54.3268 172.685 54.4102 172.909 54.4884C173.138 54.5667 173.425 54.6423 173.768 54.7154C174.414 54.8511 174.968 55.0259 175.432 55.2397C175.9 55.4482 176.26 55.7192 176.509 56.0527C176.759 56.3809 176.884 56.7977 176.883 57.3029C176.883 57.6779 176.802 58.0216 176.64 58.334C176.483 58.6412 176.254 58.9093 175.952 59.1384C175.65 59.3622 175.287 59.5365 174.865 59.6613C174.449 59.7861 173.98 59.8483 173.459 59.8481C172.693 59.8477 172.045 59.712 171.514 59.4409C170.983 59.1646 170.58 58.8128 170.304 58.3856C170.034 57.9532 169.899 57.5052 169.899 57.0417L171.719 57.0426C171.74 57.3915 171.836 57.6702 172.008 57.8786C172.185 58.0818 172.403 58.2304 172.663 58.3243C172.929 58.4129 173.202 58.4573 173.484 58.4575C173.822 58.4576 174.106 58.4135 174.335 58.3251C174.565 58.2314 174.739 58.1065 174.859 57.9503C174.979 57.7889 175.039 57.6067 175.039 57.4035Z" fill="white" fill-opacity="0.9"/>
<path d="M108.856 79.727L106.607 79.1752L107.54 70.5975L116.739 70.6019L116.737 72.9926L109.882 72.9892L109.409 77.1726C109.675 77.0165 110.042 76.8643 110.511 76.7161C110.98 76.5601 111.515 76.4822 112.117 76.4825C112.921 76.4829 113.64 76.6161 114.273 76.882C114.913 77.1401 115.456 77.5193 115.901 78.0195C116.345 78.5119 116.685 79.1136 116.918 79.8247C117.152 80.5279 117.269 81.3209 117.268 82.2038C117.267 82.9928 117.149 83.731 116.914 84.4184C116.687 85.1058 116.343 85.7111 115.882 86.2343C115.42 86.7576 114.838 87.1674 114.134 87.464C113.439 87.7527 112.614 87.8968 111.661 87.8964C110.95 87.896 110.267 87.7941 109.611 87.5907C108.963 87.3794 108.381 87.0705 107.865 86.664C107.35 86.2497 106.937 85.7417 106.625 85.14C106.313 84.5305 106.134 83.8312 106.087 83.0421L108.853 83.0434C108.923 83.5982 109.075 84.0709 109.309 84.4616C109.551 84.8446 109.871 85.1377 110.269 85.341C110.667 85.5443 111.128 85.6461 111.652 85.6464C112.128 85.6466 112.538 85.5647 112.882 85.4009C113.226 85.2291 113.512 84.9871 113.738 84.6747C113.973 84.3545 114.145 83.9796 114.255 83.55C114.373 83.1203 114.432 82.6438 114.432 82.1204C114.432 81.6204 114.366 81.1633 114.234 80.7492C114.109 80.335 113.918 79.9756 113.661 79.6708C113.411 79.366 113.095 79.1314 112.712 78.9672C112.33 78.7951 111.888 78.709 111.388 78.7087C110.716 78.7084 110.201 78.8058 109.841 79.0009C109.489 79.1961 109.161 79.4381 108.856 79.727ZM118.907 86.2592C118.908 85.8217 119.056 85.4546 119.354 85.1579C119.651 84.8533 120.053 84.7012 120.561 84.7014C121.077 84.7017 121.479 84.8542 121.768 85.1591C122.064 85.4561 122.212 85.8233 122.212 86.2608C122.212 86.6983 122.063 87.0655 121.766 87.3622C121.476 87.6589 121.074 87.8072 120.558 87.8069C120.05 87.8067 119.648 87.658 119.352 87.361C119.055 87.064 118.907 86.6967 118.907 86.2592ZM126.68 85.4427L126.914 85.4428C127.992 85.4433 128.891 85.3031 129.61 85.0222C130.337 84.7335 130.915 84.3354 131.345 83.8278C131.776 83.3202 132.085 82.7227 132.273 82.0352C132.461 81.3478 132.555 80.6018 132.556 79.7971L132.559 76.8557C132.559 76.1604 132.486 75.551 132.338 75.0275C132.197 74.4961 131.995 74.0546 131.729 73.7029C131.472 73.3434 131.171 73.0738 130.828 72.8939C130.492 72.7141 130.129 72.624 129.738 72.6239C129.308 72.6237 128.922 72.7211 128.578 72.9163C128.242 73.1036 127.956 73.3652 127.722 73.701C127.495 74.029 127.319 74.4157 127.193 74.8609C127.076 75.2984 127.017 75.7671 127.016 76.2671C127.016 76.7358 127.07 77.189 127.179 77.6265C127.296 78.0563 127.467 78.4392 127.694 78.7752C127.92 79.1113 128.205 79.377 128.548 79.5725C128.892 79.768 129.294 79.8658 129.755 79.8661C130.193 79.8663 130.595 79.7844 130.962 79.6205C131.33 79.4488 131.65 79.2185 131.924 78.9296C132.198 78.6407 132.413 78.3166 132.569 77.9573C132.726 77.598 132.812 77.2308 132.828 76.8558L133.906 77.1845C133.905 77.7782 133.78 78.3641 133.529 78.9421C133.287 79.5123 132.946 80.0356 132.508 80.5119C132.078 80.9805 131.574 81.3552 130.996 81.6362C130.425 81.9172 129.804 82.0575 129.132 82.0572C128.32 82.0568 127.601 81.9041 126.976 81.5991C126.359 81.2863 125.844 80.8642 125.431 80.3327C125.025 79.8013 124.721 79.1917 124.518 78.5041C124.316 77.8165 124.215 77.0938 124.215 76.336C124.216 75.5157 124.342 74.7462 124.592 74.0276C124.843 73.309 125.207 72.6764 125.684 72.1297C126.161 71.5753 126.739 71.1458 127.419 70.8415C128.107 70.5293 128.885 70.3734 129.752 70.3739C130.674 70.3743 131.482 70.5544 132.177 70.9141C132.872 71.2738 133.458 71.7702 133.934 72.4032C134.41 73.0363 134.768 73.7708 135.01 74.6069C135.251 75.4429 135.372 76.3414 135.371 77.3024L135.37 78.2985C135.369 79.3063 135.278 80.2789 135.098 81.2163C134.917 82.1459 134.623 83.009 134.216 83.8057C133.817 84.5946 133.289 85.2896 132.633 85.8909C131.984 86.4843 131.186 86.9488 130.241 87.2843C129.303 87.6119 128.201 87.7755 126.936 87.7748L126.678 87.7747L126.68 85.4427ZM148.305 83.0274C148.305 84.0899 148.058 84.9843 147.565 85.7106C147.072 86.4369 146.4 86.9874 145.548 87.362C144.704 87.7288 143.75 87.9119 142.688 87.9114C141.625 87.9109 140.668 87.7268 139.817 87.3592C138.966 86.9838 138.295 86.4327 137.803 85.7059C137.312 84.9791 137.066 84.0844 137.067 83.0219C137.068 82.3188 137.205 81.6822 137.479 81.112C137.753 80.534 138.14 80.0381 138.641 79.6243C139.149 79.2026 139.743 78.8787 140.423 78.6525C141.11 78.4262 141.86 78.3133 142.673 78.3137C143.751 78.3142 144.716 78.5139 145.567 78.9128C146.418 79.3116 147.086 79.8627 147.569 80.5661C148.061 81.2694 148.306 82.0899 148.305 83.0274ZM145.47 82.8854C145.47 82.3151 145.353 81.815 145.119 81.3852C144.885 80.9554 144.558 80.6232 144.136 80.3886C143.714 80.1541 143.226 80.0366 142.671 80.0364C142.109 80.0361 141.621 80.153 141.206 80.3872C140.792 80.6214 140.467 80.9533 140.233 81.3828C140.006 81.8124 139.892 82.3124 139.892 82.8827C139.891 83.4608 140.004 83.9609 140.23 84.3828C140.456 84.797 140.78 85.1136 141.202 85.3325C141.624 85.5515 142.12 85.6611 142.69 85.6614C143.26 85.6617 143.752 85.5525 144.167 85.334C144.581 85.1154 144.902 84.7992 145.128 84.3852C145.355 83.9635 145.469 83.4635 145.47 82.8854ZM147.926 75.1053C147.925 75.9569 147.698 76.7146 147.244 77.3784C146.798 78.0423 146.181 78.5654 145.391 78.9478C144.602 79.3225 143.703 79.5095 142.695 79.509C141.68 79.5085 140.774 79.3206 139.977 78.9452C139.188 78.562 138.568 78.0383 138.115 77.374C137.67 76.7097 137.448 75.9518 137.449 75.1002C137.45 74.0846 137.674 73.2293 138.12 72.5342C138.573 71.8313 139.195 71.2964 139.984 70.9296C140.774 70.5628 141.676 70.3796 142.692 70.3801C143.707 70.3806 144.61 70.5647 145.398 70.9322C146.187 71.2998 146.804 71.8352 147.248 72.5386C147.701 73.2341 147.927 74.0897 147.926 75.1053ZM145.102 75.1977C145.102 74.6899 145.001 74.2445 144.798 73.8616C144.603 73.4709 144.326 73.1661 143.967 72.9472C143.608 72.7282 143.182 72.6186 142.69 72.6184C142.198 72.6182 141.772 72.7234 141.412 72.9342C141.053 73.145 140.775 73.4417 140.579 73.8244C140.384 74.2071 140.286 74.6641 140.285 75.1954C140.285 75.7188 140.382 76.1759 140.577 76.5666C140.772 76.9495 141.049 77.2504 141.408 77.4694C141.775 77.6883 142.205 77.7979 142.697 77.7981C143.189 77.7983 143.615 77.6892 143.974 77.4706C144.334 77.252 144.612 76.9514 144.807 76.5687C145.003 76.1781 145.101 75.7211 145.102 75.1977ZM161.233 70.6235L161.232 72.1704L154.397 87.6827L151.421 87.6812L158.243 72.872L149.407 72.8678L149.409 70.6178L161.233 70.6235ZM165.441 84.9693L165.428 86.9849C165.427 87.7818 165.227 88.602 164.828 89.4455C164.429 90.2891 163.901 90.9841 163.244 91.5307L161.733 90.6511C161.952 90.2996 162.152 89.9442 162.332 89.585C162.512 89.2257 162.657 88.8429 162.766 88.4367C162.876 88.0305 162.931 87.5813 162.932 87.0891L162.933 84.9681L165.441 84.9693ZM170.419 77.8818L172.106 77.8827C172.762 77.883 173.305 77.77 173.735 77.5436C174.173 77.3172 174.498 77.0049 174.709 76.6066C174.92 76.2082 175.026 75.7513 175.026 75.2356C175.027 74.6966 174.93 74.2356 174.735 73.8527C174.548 73.462 174.259 73.161 173.868 72.9499C173.486 72.7388 172.998 72.6331 172.404 72.6328C171.904 72.6326 171.451 72.7339 171.044 72.9368C170.646 73.1319 170.329 73.413 170.094 73.7801C169.859 74.1394 169.742 74.569 169.741 75.069L166.906 75.0676C166.906 74.1614 167.145 73.3568 167.623 72.6539C168.1 71.951 168.749 71.4006 169.569 71.0025C170.398 70.5967 171.328 70.394 172.359 70.3945C173.46 70.395 174.421 70.5791 175.241 70.9467C176.069 71.3064 176.713 71.8458 177.173 72.5648C177.634 73.2838 177.863 74.1745 177.862 75.237C177.862 75.7214 177.748 76.2135 177.521 76.7134C177.294 77.2133 176.958 77.6702 176.512 78.084C176.067 78.49 175.512 78.8218 174.847 79.0793C174.183 79.329 173.413 79.4536 172.538 79.4532L170.417 79.4521L170.419 77.8818ZM170.417 80.085L170.418 78.5381L172.539 78.5391C173.539 78.5396 174.391 78.6572 175.094 78.8919C175.804 79.1266 176.382 79.4511 176.827 79.8654C177.272 80.2719 177.596 80.7369 177.798 81.2604C178.009 81.7839 178.114 82.3387 178.113 82.9246C178.113 83.7215 177.968 84.4324 177.678 85.0572C177.396 85.6743 176.993 86.1975 176.469 86.627C175.946 87.0564 175.332 87.3803 174.629 87.5987C173.933 87.8171 173.175 87.9261 172.355 87.9257C171.621 87.9254 170.918 87.8235 170.246 87.62C169.574 87.4166 168.973 87.1155 168.442 86.7168C167.911 86.3103 167.49 85.8062 167.178 85.2045C166.874 84.595 166.722 83.8918 166.723 83.0949L169.547 83.0963C169.546 83.6041 169.663 84.0533 169.897 84.4441C170.139 84.827 170.475 85.128 170.904 85.3469C171.341 85.5659 171.841 85.6755 172.404 85.6758C172.998 85.6761 173.509 85.5708 173.939 85.3601C174.369 85.1494 174.698 84.837 174.925 84.4231C175.159 84.0091 175.277 83.5092 175.277 82.9233C175.278 82.2592 175.15 81.7201 174.892 81.3059C174.635 80.8917 174.268 80.5868 173.791 80.3913C173.315 80.1879 172.753 80.0861 172.104 80.0858L170.417 80.085ZM191.593 81.6187L191.591 83.8687L179.287 83.8627L179.195 82.1634L186.564 70.6357L188.826 70.6368L186.373 74.831L182.136 81.6141L191.593 81.6187ZM189.47 70.6372L189.455 87.6996L186.631 87.6983L186.646 70.6358L189.47 70.6372Z" fill="white"/>
<path d="M123.126 160.461C123.122 165.178 122.481 169.848 121.241 174.205C120.001 178.562 118.186 182.52 115.899 185.855L98.5302 160.449L123.126 160.461Z" fill="#A155B9"/>
<path d="M115.899 185.855C113.218 189.765 109.954 192.718 106.364 194.485C102.774 196.251 98.9532 196.784 95.2004 196.04C91.4477 195.297 87.8641 193.297 84.7289 190.198C81.5938 187.099 78.9919 182.984 77.1261 178.173C75.2602 173.362 74.1808 167.986 73.972 162.464C73.7633 156.942 74.4307 151.422 75.9224 146.336C77.4141 141.25 79.6897 136.735 82.5718 133.142C85.4539 129.549 88.8647 126.976 92.5382 125.623L98.5302 160.449L115.899 185.855Z" fill="#16BFD6"/>
<path d="M92.1954 125.754C95.8756 124.316 99.7333 124.146 103.465 125.256C107.196 126.367 110.699 128.728 113.697 132.153C116.695 135.578 119.107 139.975 120.743 144.995C122.378 150.016 123.193 155.524 123.122 161.085L98.5303 160.45L92.1954 125.754Z" fill="#F765A3"/>
<rect width="20.2186" height="8" transform="matrix(1 0.000484193 -0.000891074 1 145.339 132.472)" fill="#F765A3"/>
<path d="M175.607 139.987L175.615 131.26L178.564 131.261C179.249 131.261 179.808 131.385 180.243 131.633C180.68 131.877 181.003 132.208 181.213 132.626C181.423 133.044 181.528 133.51 181.527 134.024C181.527 134.538 181.421 135.005 181.211 135.426C181.003 135.846 180.682 136.181 180.247 136.431C179.812 136.678 179.255 136.801 178.576 136.801L176.462 136.8L176.463 135.862L178.543 135.863C179.011 135.863 179.388 135.783 179.672 135.621C179.956 135.459 180.163 135.24 180.291 134.965C180.422 134.687 180.487 134.373 180.488 134.023C180.488 133.674 180.423 133.361 180.292 133.086C180.165 132.81 179.958 132.594 179.671 132.438C179.384 132.278 179.003 132.199 178.529 132.198L176.671 132.198L176.664 139.987L175.607 139.987ZM183.088 139.99L183.094 133.445L184.065 133.445L184.065 134.434L184.133 134.434C184.252 134.11 184.469 133.848 184.781 133.646C185.094 133.445 185.446 133.344 185.838 133.344C185.912 133.344 186.004 133.346 186.115 133.348C186.226 133.351 186.31 133.356 186.367 133.361L186.366 134.384C186.332 134.376 186.254 134.363 186.131 134.346C186.012 134.326 185.886 134.316 185.752 134.316C185.434 134.315 185.15 134.382 184.9 134.515C184.652 134.646 184.456 134.828 184.311 135.061C184.169 135.291 184.098 135.553 184.097 135.849L184.094 139.991L183.088 139.99ZM190.013 140.13C189.422 140.13 188.903 139.989 188.458 139.708C188.015 139.426 187.668 139.032 187.419 138.527C187.172 138.021 187.049 137.43 187.05 136.754C187.05 136.072 187.174 135.477 187.422 134.968C187.673 134.46 188.019 134.065 188.463 133.784C188.909 133.503 189.428 133.363 190.019 133.363C190.61 133.363 191.126 133.504 191.569 133.786C192.015 134.067 192.361 134.462 192.608 134.971C192.858 135.48 192.982 136.075 192.982 136.757C192.981 137.433 192.855 138.024 192.605 138.529C192.357 139.035 192.01 139.428 191.564 139.709C191.121 139.99 190.604 140.13 190.013 140.13ZM190.013 139.227C190.462 139.227 190.832 139.112 191.122 138.882C191.412 138.652 191.626 138.35 191.766 137.975C191.906 137.6 191.975 137.194 191.976 136.756C191.976 136.319 191.907 135.911 191.768 135.533C191.629 135.155 191.415 134.85 191.126 134.617C190.836 134.383 190.467 134.267 190.018 134.267C189.569 134.266 189.2 134.383 188.91 134.615C188.62 134.848 188.405 135.154 188.265 135.531C188.126 135.909 188.056 136.317 188.055 136.754C188.055 137.192 188.124 137.598 188.263 137.973C188.402 138.348 188.616 138.651 188.906 138.881C189.195 139.111 189.565 139.227 190.013 139.227ZM196.985 140.134C196.44 140.133 195.958 139.995 195.541 139.719C195.124 139.441 194.797 139.049 194.562 138.543C194.327 138.034 194.209 137.433 194.21 136.74C194.211 136.053 194.329 135.456 194.565 134.951C194.801 134.445 195.13 134.055 195.551 133.779C195.971 133.504 196.457 133.366 197.008 133.367C197.435 133.367 197.771 133.438 198.018 133.58C198.268 133.719 198.458 133.879 198.589 134.058C198.722 134.234 198.826 134.379 198.899 134.492L198.985 134.492L198.988 131.271L199.993 131.271L199.985 139.999L199.014 139.998L199.015 138.992L198.895 138.992C198.821 139.112 198.716 139.262 198.58 139.444C198.443 139.623 198.248 139.783 197.995 139.925C197.742 140.064 197.406 140.134 196.985 140.134ZM197.122 139.23C197.526 139.23 197.867 139.125 198.145 138.915C198.424 138.702 198.636 138.408 198.781 138.034C198.926 137.656 198.999 137.22 199 136.725C199 136.237 198.929 135.809 198.788 135.443C198.646 135.073 198.436 134.786 198.158 134.582C197.88 134.374 197.536 134.27 197.127 134.27C196.701 134.27 196.346 134.379 196.061 134.598C195.78 134.813 195.568 135.107 195.426 135.479C195.286 135.849 195.216 136.263 195.216 136.724C195.215 137.19 195.286 137.613 195.428 137.994C195.572 138.372 195.785 138.673 196.066 138.897C196.35 139.119 196.702 139.23 197.122 139.23ZM206.094 137.325L206.098 133.456L207.103 133.457L207.098 140.002L206.092 140.002L206.093 138.894L206.025 138.894C205.871 139.226 205.632 139.508 205.308 139.741C204.984 139.971 204.575 140.086 204.081 140.086C203.671 140.086 203.308 139.996 202.99 139.817C202.672 139.635 202.422 139.362 202.241 138.998C202.059 138.632 201.969 138.17 201.969 137.613L201.973 133.454L202.978 133.455L202.975 137.546C202.974 138.023 203.108 138.404 203.374 138.688C203.644 138.972 203.988 139.114 204.405 139.114C204.655 139.115 204.91 139.051 205.168 138.923C205.43 138.795 205.649 138.599 205.825 138.335C206.004 138.071 206.094 137.735 206.094 137.325ZM211.599 140.141C210.985 140.14 210.457 139.995 210.014 139.705C209.571 139.415 209.23 139.016 208.992 138.507C208.754 137.999 208.635 137.418 208.636 136.764C208.636 136.099 208.759 135.513 209.004 135.004C209.251 134.493 209.595 134.094 210.036 133.807C210.479 133.518 210.997 133.373 211.588 133.374C212.048 133.374 212.462 133.459 212.832 133.63C213.201 133.8 213.503 134.039 213.739 134.346C213.974 134.653 214.12 135.011 214.177 135.42L213.171 135.42C213.095 135.121 212.924 134.857 212.66 134.627C212.399 134.394 212.047 134.277 211.604 134.277C211.212 134.277 210.868 134.379 210.572 134.583C210.279 134.785 210.051 135.07 209.885 135.44C209.723 135.806 209.642 136.236 209.641 136.731C209.641 137.236 209.72 137.677 209.879 138.052C210.04 138.427 210.267 138.718 210.56 138.926C210.855 139.133 211.202 139.237 211.599 139.237C211.861 139.237 212.098 139.192 212.311 139.101C212.524 139.01 212.705 138.88 212.853 138.709C213.001 138.539 213.106 138.335 213.169 138.096L214.174 138.096C214.117 138.483 213.976 138.831 213.751 139.14C213.53 139.447 213.235 139.691 212.869 139.873C212.505 140.052 212.082 140.141 211.599 140.141ZM218.495 133.462L218.494 134.314L215.102 134.313L215.103 133.461L218.495 133.462ZM216.093 131.893L217.099 131.893L217.093 138.132C217.093 138.416 217.134 138.629 217.216 138.771C217.301 138.91 217.409 139.004 217.54 139.053C217.673 139.098 217.814 139.121 217.962 139.121C218.072 139.121 218.163 139.115 218.234 139.104C218.305 139.09 218.362 139.079 218.405 139.07L218.609 139.974C218.54 139.999 218.445 140.025 218.323 140.05C218.201 140.078 218.046 140.093 217.859 140.093C217.574 140.092 217.296 140.031 217.023 139.909C216.754 139.787 216.529 139.6 216.351 139.35C216.175 139.1 216.087 138.785 216.087 138.404L216.093 131.893ZM223.36 140.01L223.361 139.243L226.244 136.091C226.583 135.722 226.861 135.401 227.08 135.128C227.299 134.853 227.461 134.594 227.567 134.353C227.675 134.109 227.729 133.853 227.729 133.586C227.73 133.279 227.656 133.013 227.509 132.789C227.364 132.564 227.165 132.391 226.912 132.269C226.66 132.146 226.376 132.085 226.06 132.085C225.725 132.085 225.432 132.154 225.182 132.294C224.935 132.43 224.743 132.621 224.606 132.869C224.473 133.116 224.406 133.405 224.405 133.738L223.4 133.737C223.4 133.226 223.518 132.777 223.755 132.391C223.991 132.005 224.312 131.704 224.719 131.488C225.128 131.272 225.587 131.164 226.095 131.165C226.607 131.165 227.06 131.273 227.454 131.489C227.849 131.705 228.158 131.997 228.382 132.363C228.607 132.73 228.718 133.138 228.718 133.586C228.718 133.907 228.659 134.221 228.542 134.528C228.429 134.832 228.229 135.171 227.945 135.546C227.663 135.918 227.272 136.373 226.772 136.909L224.81 139.005L224.81 139.073L228.867 139.075L228.866 140.013L223.36 140.01Z" fill="white"/>
<rect width="20.2186" height="8" transform="matrix(1 0.000484193 -0.000891074 1 145.317 156.472)" fill="#16BFD6"/>
<path d="M175.586 163.987L175.594 155.26L178.542 155.261C179.227 155.261 179.787 155.385 180.221 155.633C180.658 155.877 180.982 156.208 181.192 156.626C181.402 157.044 181.506 157.51 181.506 158.024C181.505 158.538 181.4 159.005 181.189 159.426C180.982 159.846 180.66 160.181 180.225 160.431C179.791 160.678 179.234 160.801 178.555 160.801L176.441 160.8L176.442 159.862L178.521 159.863C178.99 159.863 179.367 159.783 179.651 159.621C179.935 159.459 180.141 159.24 180.269 158.965C180.4 158.687 180.466 158.373 180.466 158.023C180.466 157.674 180.401 157.361 180.271 157.086C180.143 156.81 179.936 156.594 179.649 156.438C179.363 156.278 178.982 156.199 178.508 156.198L176.65 156.198L176.643 163.987L175.586 163.987ZM183.067 163.99L183.073 157.445L184.044 157.445L184.043 158.434L184.111 158.434C184.231 158.11 184.447 157.848 184.76 157.646C185.073 157.445 185.425 157.344 185.817 157.344C185.891 157.344 185.983 157.346 186.094 157.348C186.205 157.351 186.289 157.356 186.345 157.361L186.344 158.384C186.31 158.376 186.232 158.363 186.11 158.346C185.991 158.326 185.864 158.316 185.731 158.316C185.413 158.315 185.128 158.382 184.878 158.515C184.631 158.646 184.435 158.828 184.29 159.061C184.148 159.291 184.076 159.553 184.076 159.849L184.072 163.991L183.067 163.99ZM189.991 164.13C189.4 164.13 188.882 163.989 188.436 163.708C187.993 163.426 187.647 163.032 187.398 162.527C187.151 162.021 187.028 161.43 187.028 160.754C187.029 160.072 187.153 159.477 187.401 158.968C187.651 158.46 187.998 158.065 188.442 157.784C188.888 157.503 189.406 157.363 189.997 157.363C190.588 157.363 191.105 157.504 191.548 157.786C191.994 158.067 192.34 158.462 192.587 158.971C192.836 159.48 192.961 160.075 192.96 160.757C192.96 161.433 192.834 162.024 192.584 162.529C192.336 163.035 191.989 163.428 191.543 163.709C191.099 163.99 190.582 164.13 189.991 164.13ZM189.992 163.227C190.441 163.227 190.81 163.112 191.1 162.882C191.39 162.652 191.605 162.35 191.745 161.975C191.884 161.6 191.954 161.194 191.955 160.756C191.955 160.319 191.886 159.911 191.747 159.533C191.608 159.155 191.394 158.85 191.104 158.617C190.815 158.383 190.445 158.267 189.996 158.267C189.548 158.266 189.178 158.383 188.888 158.615C188.598 158.848 188.383 159.154 188.244 159.531C188.104 159.909 188.034 160.317 188.034 160.754C188.034 161.192 188.103 161.598 188.242 161.973C188.381 162.348 188.595 162.651 188.884 162.881C189.174 163.111 189.543 163.227 189.992 163.227ZM196.964 164.134C196.418 164.133 195.937 163.995 195.52 163.719C195.102 163.441 194.776 163.049 194.541 162.543C194.305 162.034 194.188 161.433 194.189 160.74C194.189 160.053 194.308 159.456 194.544 158.951C194.78 158.445 195.109 158.055 195.529 157.779C195.95 157.504 196.436 157.366 196.987 157.367C197.413 157.367 197.75 157.438 197.997 157.58C198.247 157.719 198.437 157.879 198.567 158.058C198.701 158.234 198.804 158.379 198.878 158.492L198.963 158.492L198.966 155.271L199.972 155.271L199.964 163.999L198.992 163.998L198.993 162.992L198.874 162.992C198.8 163.112 198.695 163.262 198.558 163.444C198.422 163.623 198.227 163.783 197.974 163.925C197.721 164.064 197.384 164.134 196.964 164.134ZM197.101 163.23C197.505 163.23 197.846 163.125 198.124 162.915C198.403 162.702 198.615 162.408 198.76 162.034C198.905 161.656 198.978 161.22 198.978 160.725C198.979 160.237 198.908 159.809 198.766 159.443C198.625 159.073 198.415 158.786 198.136 158.582C197.858 158.374 197.515 158.27 197.106 158.27C196.679 158.27 196.324 158.379 196.04 158.598C195.758 158.813 195.547 159.107 195.404 159.479C195.265 159.849 195.195 160.263 195.194 160.724C195.194 161.19 195.264 161.613 195.406 161.994C195.551 162.372 195.764 162.673 196.045 162.897C196.328 163.119 196.681 163.23 197.101 163.23ZM206.073 161.325L206.076 157.456L207.082 157.457L207.076 164.002L206.071 164.002L206.072 162.894L206.003 162.894C205.85 163.226 205.611 163.508 205.287 163.741C204.963 163.971 204.553 164.086 204.059 164.086C203.65 164.086 203.286 163.996 202.968 163.817C202.65 163.635 202.401 163.362 202.219 162.998C202.038 162.632 201.947 162.17 201.948 161.613L201.951 157.454L202.957 157.455L202.953 161.546C202.953 162.023 203.086 162.404 203.353 162.688C203.623 162.972 203.966 163.114 204.384 163.114C204.634 163.115 204.888 163.051 205.147 162.923C205.408 162.795 205.627 162.599 205.804 162.335C205.983 162.071 206.073 161.735 206.073 161.325ZM211.577 164.141C210.964 164.14 210.435 163.995 209.992 163.705C209.549 163.415 209.209 163.016 208.971 162.507C208.733 161.999 208.614 161.418 208.614 160.764C208.615 160.099 208.738 159.513 208.982 159.004C209.23 158.493 209.574 158.094 210.015 157.807C210.458 157.518 210.975 157.373 211.566 157.374C212.026 157.374 212.441 157.459 212.81 157.63C213.179 157.8 213.482 158.039 213.717 158.346C213.953 158.653 214.099 159.011 214.155 159.42L213.15 159.42C213.073 159.121 212.903 158.857 212.639 158.627C212.378 158.394 212.026 158.277 211.582 158.277C211.19 158.277 210.847 158.379 210.551 158.583C210.258 158.785 210.029 159.07 209.864 159.44C209.702 159.806 209.62 160.236 209.62 160.731C209.62 161.236 209.699 161.677 209.857 162.052C210.019 162.427 210.246 162.718 210.539 162.926C210.834 163.133 211.18 163.237 211.578 163.237C211.839 163.237 212.077 163.192 212.29 163.101C212.503 163.01 212.683 162.88 212.831 162.709C212.979 162.539 213.084 162.335 213.147 162.096L214.153 162.096C214.096 162.483 213.955 162.831 213.73 163.14C213.508 163.447 213.214 163.691 212.847 163.873C212.484 164.052 212.06 164.141 211.577 164.141ZM218.474 157.462L218.473 158.314L215.081 158.313L215.082 157.461L218.474 157.462ZM216.072 155.893L217.077 155.893L217.072 162.132C217.072 162.416 217.113 162.629 217.195 162.771C217.28 162.91 217.388 163.004 217.519 163.053C217.652 163.098 217.793 163.121 217.94 163.121C218.051 163.121 218.142 163.115 218.213 163.104C218.284 163.09 218.341 163.079 218.384 163.07L218.587 163.974C218.519 163.999 218.424 164.025 218.302 164.05C218.18 164.078 218.025 164.093 217.837 164.093C217.553 164.092 217.275 164.031 217.002 163.909C216.732 163.787 216.508 163.6 216.329 163.35C216.153 163.1 216.066 162.785 216.066 162.404L216.072 155.893ZM226.287 164.131C225.725 164.13 225.224 164.034 224.783 163.84C224.346 163.647 223.998 163.378 223.74 163.034C223.485 162.688 223.346 162.286 223.324 161.828L224.397 161.829C224.42 162.11 224.516 162.353 224.687 162.557C224.857 162.759 225.08 162.916 225.355 163.027C225.631 163.137 225.936 163.193 226.271 163.193C226.646 163.193 226.979 163.128 227.269 162.998C227.558 162.867 227.786 162.685 227.951 162.453C228.116 162.22 228.198 161.95 228.199 161.643C228.199 161.322 228.12 161.039 227.961 160.795C227.802 160.548 227.569 160.354 227.263 160.215C226.956 160.076 226.581 160.006 226.138 160.006L225.439 160.005L225.44 159.068L226.139 159.068C226.485 159.068 226.789 159.006 227.051 158.881C227.315 158.756 227.521 158.58 227.669 158.353C227.82 158.126 227.895 157.859 227.896 157.552C227.896 157.256 227.831 156.999 227.7 156.781C227.57 156.562 227.385 156.391 227.147 156.269C226.911 156.147 226.633 156.085 226.312 156.085C226.011 156.085 225.726 156.14 225.459 156.251C225.195 156.359 224.979 156.516 224.811 156.724C224.643 156.928 224.552 157.175 224.538 157.465L223.515 157.465C223.532 157.007 223.671 156.607 223.929 156.263C224.188 155.917 224.527 155.647 224.944 155.454C225.365 155.261 225.827 155.165 226.33 155.165C226.869 155.165 227.332 155.275 227.718 155.494C228.105 155.71 228.401 155.995 228.608 156.351C228.815 156.706 228.919 157.089 228.918 157.501C228.918 157.993 228.788 158.412 228.529 158.758C228.273 159.105 227.925 159.345 227.485 159.478L227.485 159.546C228.036 159.637 228.466 159.872 228.775 160.25C229.085 160.625 229.239 161.09 229.239 161.643C229.238 162.118 229.108 162.544 228.85 162.922C228.594 163.297 228.244 163.592 227.801 163.808C227.357 164.023 226.853 164.131 226.287 164.131Z" fill="white"/>
<rect width="20.2186" height="8" transform="matrix(1 0.000484193 -0.000891074 1 145.296 180.472)" fill="#A155B9"/>
<path d="M175.564 187.987L175.572 179.26L178.521 179.261C179.206 179.261 179.765 179.385 180.2 179.633C180.637 179.877 180.961 180.208 181.17 180.626C181.38 181.044 181.485 181.51 181.485 182.024C181.484 182.538 181.379 183.005 181.168 183.426C180.96 183.846 180.639 184.181 180.204 184.431C179.769 184.678 179.212 184.801 178.533 184.801L176.42 184.8L176.42 183.862L178.5 183.863C178.969 183.863 179.345 183.783 179.629 183.621C179.914 183.459 180.12 183.24 180.248 182.965C180.379 182.687 180.444 182.373 180.445 182.023C180.445 181.674 180.38 181.361 180.25 181.086C180.122 180.81 179.915 180.594 179.628 180.438C179.341 180.278 178.961 180.199 178.486 180.198L176.628 180.198L176.621 187.987L175.564 187.987ZM183.045 187.99L183.051 181.445L184.023 181.445L184.022 182.434L184.09 182.434C184.21 182.11 184.426 181.848 184.738 181.646C185.051 181.445 185.403 181.344 185.795 181.344C185.869 181.344 185.962 181.346 186.072 181.348C186.183 181.351 186.267 181.356 186.324 181.361L186.323 182.384C186.289 182.376 186.211 182.363 186.089 182.346C185.969 182.326 185.843 182.316 185.709 182.316C185.391 182.315 185.107 182.382 184.857 182.515C184.61 182.646 184.413 182.828 184.268 183.061C184.126 183.291 184.055 183.553 184.055 183.849L184.051 187.991L183.045 187.99ZM189.97 188.13C189.379 188.13 188.861 187.989 188.415 187.708C187.972 187.426 187.626 187.032 187.376 186.527C187.129 186.021 187.006 185.43 187.007 184.754C187.008 184.072 187.132 183.477 187.379 182.968C187.63 182.46 187.977 182.065 188.42 181.784C188.866 181.503 189.385 181.363 189.976 181.363C190.567 181.363 191.084 181.504 191.527 181.786C191.972 182.067 192.319 182.462 192.565 182.971C192.815 183.48 192.939 184.075 192.939 184.757C192.938 185.433 192.813 186.024 192.562 186.529C192.315 187.035 191.968 187.428 191.521 187.709C191.078 187.99 190.561 188.13 189.97 188.13ZM189.971 187.227C190.42 187.227 190.789 187.112 191.079 186.882C191.369 186.652 191.584 186.35 191.723 185.975C191.863 185.6 191.933 185.194 191.933 184.756C191.933 184.319 191.864 183.911 191.725 183.533C191.587 183.155 191.372 182.85 191.083 182.617C190.793 182.383 190.424 182.267 189.975 182.267C189.526 182.266 189.157 182.383 188.867 182.615C188.577 182.848 188.362 183.154 188.223 183.531C188.083 183.909 188.013 184.317 188.013 184.754C188.012 185.192 188.081 185.598 188.22 185.973C188.359 186.348 188.573 186.651 188.863 186.881C189.153 187.111 189.522 187.227 189.971 187.227ZM196.943 188.134C196.397 188.133 195.916 187.995 195.498 187.719C195.081 187.441 194.755 187.049 194.519 186.543C194.284 186.034 194.167 185.433 194.167 184.74C194.168 184.053 194.286 183.456 194.522 182.951C194.759 182.445 195.087 182.055 195.508 181.779C195.929 181.504 196.414 181.366 196.966 181.367C197.392 181.367 197.728 181.438 197.975 181.58C198.225 181.719 198.415 181.879 198.546 182.058C198.679 182.234 198.783 182.379 198.857 182.492L198.942 182.492L198.945 179.271L199.95 179.271L199.943 187.999L198.971 187.998L198.972 186.992L198.853 186.992C198.779 187.112 198.673 187.262 198.537 187.444C198.4 187.623 198.206 187.783 197.953 187.925C197.7 188.064 197.363 188.134 196.943 188.134ZM197.08 187.23C197.483 187.23 197.824 187.125 198.103 186.915C198.381 186.702 198.593 186.408 198.738 186.034C198.884 185.656 198.956 185.22 198.957 184.725C198.957 184.237 198.887 183.809 198.745 183.443C198.603 183.073 198.393 182.786 198.115 182.582C197.837 182.374 197.493 182.27 197.084 182.27C196.658 182.27 196.303 182.379 196.018 182.598C195.737 182.813 195.525 183.107 195.383 183.479C195.243 183.849 195.173 184.263 195.173 184.724C195.172 185.19 195.243 185.613 195.385 185.994C195.529 186.372 195.742 186.673 196.023 186.897C196.307 187.119 196.659 187.23 197.08 187.23ZM206.052 185.325L206.055 181.456L207.061 181.457L207.055 188.002L206.049 188.002L206.05 186.894L205.982 186.894C205.828 187.226 205.589 187.508 205.265 187.741C204.941 187.971 204.532 188.086 204.038 188.086C203.629 188.086 203.265 187.996 202.947 187.817C202.629 187.635 202.379 187.362 202.198 186.998C202.016 186.632 201.926 186.17 201.926 185.613L201.93 181.454L202.936 181.455L202.932 185.546C202.932 186.023 203.065 186.404 203.332 186.688C203.601 186.972 203.945 187.114 204.362 187.114C204.612 187.115 204.867 187.051 205.125 186.923C205.387 186.795 205.606 186.599 205.782 186.335C205.961 186.071 206.051 185.735 206.052 185.325ZM211.556 188.141C210.942 188.14 210.414 187.995 209.971 187.705C209.528 187.415 209.187 187.016 208.949 186.507C208.711 185.999 208.592 185.418 208.593 184.764C208.593 184.099 208.716 183.513 208.961 183.004C209.209 182.493 209.553 182.094 209.993 181.807C210.437 181.518 210.954 181.373 211.545 181.374C212.005 181.374 212.42 181.459 212.789 181.63C213.158 181.8 213.46 182.039 213.696 182.346C213.931 182.653 214.077 183.011 214.134 183.42L213.128 183.42C213.052 183.121 212.882 182.857 212.618 182.627C212.356 182.394 212.004 182.277 211.561 182.277C211.169 182.277 210.825 182.379 210.529 182.583C210.237 182.785 210.008 183.07 209.843 183.44C209.68 183.806 209.599 184.236 209.599 184.731C209.598 185.236 209.677 185.677 209.836 186.052C209.998 186.427 210.225 186.718 210.517 186.926C210.812 187.133 211.159 187.237 211.557 187.237C211.818 187.237 212.055 187.192 212.268 187.101C212.482 187.01 212.662 186.88 212.81 186.709C212.958 186.539 213.063 186.335 213.126 186.096L214.131 186.096C214.074 186.483 213.933 186.831 213.709 187.14C213.487 187.447 213.193 187.691 212.826 187.873C212.462 188.052 212.039 188.141 211.556 188.141ZM218.452 181.462L218.452 182.314L215.06 182.313L215.06 181.461L218.452 181.462ZM216.05 179.893L217.056 179.893L217.05 186.132C217.05 186.416 217.091 186.629 217.173 186.771C217.259 186.91 217.366 187.004 217.497 187.053C217.631 187.098 217.771 187.121 217.919 187.121C218.03 187.121 218.121 187.115 218.192 187.104C218.263 187.09 218.32 187.079 218.362 187.07L218.566 187.974C218.498 187.999 218.402 188.025 218.28 188.05C218.158 188.078 218.003 188.093 217.816 188.093C217.532 188.092 217.253 188.031 216.981 187.909C216.711 187.787 216.487 187.6 216.308 187.35C216.132 187.1 216.044 186.785 216.045 186.404L216.05 179.893ZM226.266 188.131C225.704 188.13 225.202 188.034 224.762 187.84C224.325 187.647 223.977 187.378 223.719 187.034C223.463 186.688 223.324 186.286 223.302 185.828L224.376 185.829C224.399 186.11 224.495 186.353 224.665 186.557C224.835 186.759 225.058 186.916 225.334 187.027C225.609 187.137 225.915 187.193 226.25 187.193C226.625 187.193 226.957 187.128 227.247 186.998C227.537 186.867 227.764 186.685 227.929 186.453C228.094 186.22 228.177 185.95 228.177 185.643C228.178 185.322 228.098 185.039 227.939 184.795C227.781 184.548 227.548 184.354 227.241 184.215C226.934 184.076 226.559 184.006 226.116 184.006L225.417 184.005L225.418 183.068L226.117 183.068C226.464 183.068 226.768 183.006 227.029 182.881C227.294 182.756 227.5 182.58 227.648 182.353C227.798 182.126 227.874 181.859 227.874 181.552C227.874 181.256 227.809 180.999 227.679 180.781C227.548 180.562 227.364 180.391 227.125 180.269C226.89 180.147 226.611 180.085 226.29 180.085C225.989 180.085 225.705 180.14 225.438 180.251C225.174 180.359 224.957 180.516 224.79 180.724C224.622 180.928 224.531 181.175 224.516 181.465L223.494 181.465C223.511 181.007 223.649 180.607 223.908 180.263C224.167 179.917 224.505 179.647 224.923 179.454C225.344 179.261 225.805 179.165 226.308 179.165C226.848 179.165 227.311 179.275 227.697 179.494C228.083 179.71 228.38 179.995 228.587 180.351C228.794 180.706 228.897 181.089 228.897 181.501C228.896 181.993 228.767 182.412 228.508 182.758C228.252 183.105 227.904 183.345 227.463 183.478L227.463 183.546C228.014 183.637 228.445 183.872 228.754 184.25C229.063 184.625 229.218 185.09 229.217 185.643C229.217 186.118 229.087 186.544 228.828 186.922C228.572 187.297 228.222 187.592 227.779 187.808C227.336 188.023 226.831 188.131 226.266 188.131Z" fill="white"/>
<rect width="200.721" height="186.588" rx="17" transform="matrix(0.999984 -0.00572202 0.00568419 0.999984 274.972 33.4489)" fill="#271B80"/>
<path d="M361.331 52.1425L361.355 56.4862C361.195 56.7006 360.944 56.9364 360.602 57.1936C360.264 57.4455 359.815 57.6643 359.254 57.8498C358.692 58.0353 357.992 58.1304 357.154 58.1352C356.44 58.1393 355.786 58.0233 355.191 57.7871C354.596 57.5457 354.081 57.1919 353.646 56.7256C353.216 56.2593 352.882 55.6909 352.644 55.0204C352.405 54.3446 352.284 53.5745 352.279 52.7099L352.275 51.9209C352.27 51.0615 352.372 50.2953 352.582 49.6222C352.797 48.9439 353.106 48.3692 353.509 47.8981C353.913 47.427 354.401 47.0701 354.972 46.8272C355.549 46.5791 356.202 46.453 356.931 46.4488C357.863 46.4435 358.635 46.5953 359.246 46.9043C359.862 47.2081 360.339 47.6325 360.675 48.1774C361.012 48.7224 361.226 49.3462 361.319 50.0488L359.397 50.0598C359.332 49.6643 359.208 49.3108 359.024 48.9994C358.845 48.6879 358.588 48.4446 358.254 48.2694C357.925 48.089 357.497 48.0003 356.971 48.0033C356.518 48.0059 356.12 48.0941 355.777 48.2679C355.434 48.4418 355.149 48.696 354.922 49.0307C354.7 49.3653 354.533 49.7725 354.421 50.2523C354.309 50.7321 354.255 51.2793 354.259 51.8939L354.263 52.6985C354.267 53.3235 354.335 53.8778 354.468 54.3615C354.606 54.8451 354.801 55.2528 355.053 55.5847C355.31 55.9166 355.622 56.1674 355.987 56.3372C356.353 56.5018 356.765 56.5827 357.223 56.5801C357.671 56.5776 358.038 56.539 358.324 56.4644C358.61 56.3847 358.836 56.2922 359.002 56.1871C359.173 56.0768 359.305 55.9718 359.399 55.8723L359.386 53.6146L357.019 53.6281L357.01 52.1672L361.331 52.1425ZM367.504 56.2244L367.481 52.1932C367.479 51.8911 367.423 51.631 367.313 51.4129C367.202 51.1948 367.034 51.0265 366.81 50.908C366.59 50.7894 366.314 50.7311 365.981 50.733C365.673 50.7348 365.408 50.7884 365.185 50.8938C364.961 50.9993 364.787 51.1409 364.663 51.3187C364.54 51.4965 364.478 51.6974 364.479 51.9213L362.604 51.9321C362.603 51.5987 362.681 51.2754 362.841 50.9619C363.001 50.6485 363.234 50.3685 363.539 50.122C363.845 49.8754 364.211 49.6806 364.638 49.5376C365.064 49.3945 365.543 49.3215 366.074 49.3184C366.709 49.3148 367.273 49.4183 367.763 49.6291C368.259 49.8398 368.649 50.1605 368.933 50.5911C369.222 51.0166 369.368 51.5522 369.372 52.198L369.393 55.9558C369.395 56.3412 369.423 56.6874 369.477 56.9944C369.536 57.2961 369.618 57.5587 369.724 57.782L369.724 57.907L367.795 57.9181C367.705 57.7155 367.633 57.4581 367.579 57.1459C367.531 56.8284 367.506 56.5213 367.504 56.2244ZM367.758 52.7776L367.78 53.9415L366.428 53.9493C366.08 53.9513 365.772 53.9869 365.507 54.0561C365.242 54.1201 365.021 54.2151 364.845 54.3412C364.668 54.4672 364.536 54.619 364.449 54.7966C364.361 54.9741 364.318 55.1749 364.319 55.3989C364.321 55.6228 364.374 55.8282 364.479 56.0151C364.584 56.1968 364.736 56.3392 364.935 56.4422C365.139 56.5452 365.384 56.5959 365.67 56.5943C366.055 56.5921 366.391 56.512 366.677 56.3541C366.967 56.191 367.195 55.9944 367.361 55.7643C367.526 55.529 367.613 55.3071 367.623 55.0987L368.237 55.9311C368.175 56.145 368.07 56.3748 367.92 56.6205C367.771 56.8661 367.574 57.1016 367.331 57.327C367.092 57.5471 366.804 57.7284 366.466 57.871C366.134 58.0135 365.749 58.086 365.311 58.0885C364.759 58.0917 364.266 57.9851 363.833 57.7689C363.399 57.5474 363.059 57.2499 362.812 56.8763C362.565 56.4975 362.44 56.0685 362.438 55.5893C362.435 55.1414 362.516 54.7451 362.681 54.4004C362.851 54.0505 363.099 53.7574 363.426 53.5211C363.758 53.2849 364.163 53.1054 364.642 52.9829C365.12 52.8552 365.667 52.7895 366.281 52.786L367.758 52.7776ZM375.502 55.5849C375.501 55.3974 375.453 55.2284 375.358 55.0779C375.264 54.9222 375.083 54.7826 374.817 54.6591C374.556 54.5356 374.17 54.4232 373.659 54.322C373.21 54.2256 372.798 54.1107 372.422 53.9775C372.052 53.839 371.733 53.6715 371.466 53.4751C371.2 53.2787 370.993 53.0455 370.845 52.7755C370.698 52.5055 370.623 52.1935 370.621 51.8393C370.619 51.4956 370.693 51.1696 370.842 50.8615C370.992 50.5533 371.206 50.2812 371.486 50.0453C371.766 49.8093 372.106 49.6224 372.506 49.4847C372.912 49.347 373.365 49.2767 373.865 49.2738C374.573 49.2698 375.18 49.3861 375.687 49.6228C376.199 49.8542 376.591 50.1723 376.864 50.577C377.137 50.9765 377.275 51.4288 377.278 51.934L375.395 51.9448C375.394 51.7209 375.336 51.5128 375.22 51.3208C375.109 51.1235 374.942 50.9656 374.717 50.8471C374.493 50.7234 374.211 50.6625 373.872 50.6644C373.55 50.6663 373.282 50.7199 373.069 50.8253C372.861 50.9254 372.705 51.0565 372.602 51.2186C372.504 51.3806 372.456 51.558 372.457 51.7507C372.458 51.8913 372.484 52.0188 372.537 52.133C372.595 52.2421 372.689 52.3431 372.82 52.4361C372.951 52.5239 373.128 52.6062 373.353 52.6831C373.582 52.7599 373.869 52.8338 374.213 52.9047C374.86 53.0364 375.416 53.2077 375.88 53.4186C376.35 53.6243 376.711 53.893 376.963 54.2249C377.215 54.5516 377.342 54.9676 377.345 55.4728C377.347 55.8478 377.268 56.192 377.109 56.5054C376.954 56.8136 376.727 57.0831 376.426 57.314C376.125 57.5397 375.764 57.7162 375.343 57.8436C374.927 57.971 374.459 58.0362 373.938 58.0392C373.172 58.0436 372.523 57.9119 371.99 57.6441C371.457 57.3711 371.052 57.0218 370.773 56.5963C370.5 56.1656 370.362 55.7185 370.359 55.2549L372.18 55.2445C372.203 55.5933 372.3 55.8714 372.473 56.0788C372.652 56.2809 372.871 56.4281 373.132 56.5203C373.398 56.6073 373.672 56.6501 373.953 56.6484C374.292 56.6465 374.575 56.6006 374.804 56.5108C375.033 56.4157 375.207 56.2897 375.325 56.1328C375.444 55.9706 375.503 55.788 375.502 55.5849ZM382.234 49.3822L382.242 50.7572L377.476 50.7844L377.468 49.4095L382.234 49.3822ZM378.832 47.3313L380.714 47.3205L380.761 55.5079C380.762 55.7683 380.8 55.9686 380.874 56.1088C380.953 56.2438 381.06 56.3343 381.196 56.3804C381.331 56.4265 381.49 56.4491 381.673 56.448C381.803 56.4473 381.928 56.4387 382.047 56.4224C382.167 56.4061 382.263 56.39 382.336 56.3739L382.352 57.8113C382.196 57.8591 382.014 57.9018 381.806 57.9395C381.603 57.9771 381.369 57.9967 381.103 57.9982C380.671 58.0007 380.288 57.9273 379.954 57.7782C379.619 57.6239 379.358 57.3727 379.168 57.0249C378.979 56.677 378.882 56.214 378.879 55.6359L378.832 47.3313ZM382.565 53.7007L382.564 53.521C382.56 52.9116 382.646 52.346 382.82 51.8242C382.994 51.2971 383.246 50.84 383.578 50.4526C383.914 50.0601 384.324 49.7557 384.807 49.5394C385.295 49.3178 385.847 49.2053 386.461 49.2018C387.081 49.1982 387.634 49.3044 388.119 49.5204C388.61 49.7311 389.026 50.0308 389.367 50.4195C389.707 50.803 389.968 51.2572 390.148 51.7823C390.328 52.3021 390.42 52.8667 390.423 53.476L390.424 53.6557C390.428 54.2651 390.342 54.8307 390.168 55.3525C389.994 55.8744 389.739 56.3316 389.402 56.7241C389.066 57.1115 388.656 57.4159 388.173 57.6374C387.69 57.8537 387.141 57.9636 386.527 57.9671C385.907 57.9707 385.352 57.8671 384.861 57.6564C384.375 57.4404 383.962 57.1407 383.621 56.7572C383.281 56.3685 383.02 55.9143 382.84 55.3945C382.66 54.8746 382.568 54.3101 382.565 53.7007ZM384.447 53.5102L384.448 53.6899C384.45 54.0701 384.491 54.4293 384.571 54.7673C384.651 55.1054 384.775 55.4016 384.943 55.6559C385.111 55.9101 385.326 56.1094 385.587 56.2537C385.848 56.3981 386.159 56.4692 386.518 56.4672C386.867 56.4652 387.169 56.3905 387.423 56.2432C387.683 56.0959 387.895 55.8942 388.06 55.638C388.226 55.3819 388.346 55.0843 388.422 54.7453C388.504 54.4063 388.543 54.0467 388.541 53.6665L388.54 53.4868C388.538 53.1118 388.494 52.7579 388.409 52.425C388.329 52.0869 388.202 51.7882 388.029 51.5288C387.861 51.2693 387.646 51.0674 387.385 50.9231C387.129 50.7735 386.824 50.6997 386.47 50.7017C386.116 50.7038 385.809 50.781 385.549 50.9336C385.295 51.0809 385.085 51.2852 384.92 51.5465C384.755 51.8079 384.634 52.1081 384.558 52.4471C384.482 52.7808 384.444 53.1352 384.447 53.5102ZM396.155 55.4667C396.154 55.2792 396.106 55.1102 396.011 54.9597C395.917 54.804 395.736 54.6644 395.47 54.5409C395.209 54.4174 394.823 54.305 394.312 54.2038C393.863 54.1074 393.451 53.9926 393.075 53.8593C392.705 53.7208 392.386 53.5533 392.119 53.3569C391.853 53.1606 391.645 52.9274 391.498 52.6574C391.351 52.3874 391.276 52.0753 391.274 51.7211C391.272 51.3774 391.346 51.0514 391.495 50.7433C391.644 50.4351 391.859 50.1631 392.139 49.9271C392.419 49.6911 392.759 49.5043 393.159 49.3666C393.565 49.2288 394.017 49.1585 394.517 49.1557C395.226 49.1516 395.833 49.2679 396.34 49.5046C396.851 49.7361 397.244 50.0541 397.517 50.4588C397.79 50.8583 397.928 51.3107 397.931 51.8159L396.048 51.8266C396.047 51.6027 395.988 51.3947 395.873 51.2026C395.762 51.0053 395.595 50.8474 395.37 50.7289C395.145 50.6052 394.864 50.5443 394.525 50.5463C394.202 50.5481 393.934 50.6017 393.721 50.7071C393.514 50.8073 393.358 50.9384 393.255 51.1004C393.157 51.2624 393.108 51.4398 393.109 51.6325C393.11 51.7731 393.137 51.9006 393.19 52.0149C393.248 52.1239 393.342 52.2249 393.473 52.3179C393.603 52.4057 393.781 52.488 394.005 52.5649C394.235 52.6417 394.522 52.7156 394.866 52.7865C395.513 52.9183 396.068 53.0896 396.533 53.3004C397.003 53.5061 397.364 53.7749 397.616 54.1068C397.868 54.4334 397.995 54.8494 397.998 55.3546C398 55.7296 397.921 56.0738 397.762 56.3872C397.607 56.6954 397.379 56.9649 397.079 57.1958C396.778 57.4215 396.417 57.598 395.996 57.7255C395.58 57.8528 395.111 57.918 394.591 57.921C393.825 57.9254 393.176 57.7937 392.643 57.5259C392.11 57.2529 391.705 56.9036 391.426 56.4782C391.153 56.0474 391.015 55.6003 391.012 55.1367L392.832 55.1263C392.855 55.4752 392.953 55.7533 393.126 55.9606C393.305 56.1627 393.524 56.3099 393.785 56.4022C394.051 56.4892 394.325 56.5319 394.606 56.5303C394.945 56.5283 395.228 56.4824 395.457 56.3926C395.686 56.2975 395.859 56.1715 395.978 56.0146C396.097 55.8525 396.156 55.6698 396.155 55.4667Z" fill="white" fill-opacity="0.9"/>
<path d="M342.682 76.2535L344.37 76.2438C345.026 76.2401 345.568 76.1237 345.997 75.8947C346.433 75.6656 346.755 75.3513 346.964 74.9516C347.173 74.552 347.276 74.0943 347.273 73.5787C347.27 73.0397 347.169 72.5793 346.972 72.1976C346.782 71.8081 346.491 71.5089 346.099 71.3003C345.715 71.0915 345.227 70.9888 344.633 70.9922C344.133 70.9951 343.68 71.0992 343.275 71.3047C342.878 71.5023 342.563 71.7853 342.331 72.1539C342.098 72.5146 341.984 72.9449 341.987 73.4449L339.151 73.4611C339.146 72.5549 339.379 71.7489 339.852 71.043C340.324 70.3372 340.97 69.7827 341.788 69.3796C342.614 68.9686 343.542 68.7602 344.573 68.7543C345.675 68.748 346.637 68.926 347.459 69.2885C348.289 69.6432 348.937 70.1785 349.402 70.8946C349.867 71.6107 350.102 72.5 350.108 73.5625C350.111 74.0469 350.001 74.5397 349.777 75.041C349.553 75.5423 349.22 76.0012 348.777 76.4178C348.334 76.8266 347.781 77.1618 347.119 77.4234C346.456 77.6772 345.687 77.8066 344.812 77.8116L342.691 77.8238L342.682 76.2535ZM342.695 78.4566L342.686 76.9097L344.807 76.8976C345.807 76.8919 346.659 77.0042 347.364 77.2345C348.076 77.4648 348.656 77.7857 349.104 78.1972C349.551 78.6009 349.878 79.0639 350.084 79.5862C350.298 80.1084 350.407 80.6625 350.41 81.2484C350.415 82.0453 350.274 82.757 349.989 83.3837C349.711 84.0024 349.311 84.5282 348.79 84.9609C348.269 85.3935 347.658 85.7213 346.956 85.944C346.262 86.1667 345.505 86.2805 344.685 86.2852C343.95 86.2894 343.247 86.1918 342.574 85.9925C341.901 85.7933 341.297 85.4959 340.764 85.1005C340.23 84.6973 339.805 84.1958 339.49 83.5961C339.181 82.9885 339.025 82.2862 339.021 81.4894L341.845 81.4732C341.848 81.981 341.967 82.4295 342.204 82.8188C342.448 83.2002 342.786 83.4991 343.217 83.7154C343.656 83.9316 344.156 84.0381 344.719 84.0349C345.312 84.0315 345.824 83.9231 346.252 83.7097C346.681 83.4963 347.007 83.182 347.231 82.7666C347.463 82.3512 347.577 81.8506 347.574 81.2646C347.57 80.6006 347.438 80.0623 347.178 79.6497C346.918 79.2371 346.549 78.9345 346.071 78.7419C345.594 78.5415 345.031 78.4432 344.382 78.4469L342.695 78.4566ZM352.435 84.6002C352.433 84.1627 352.579 83.7946 352.874 83.4961C353.17 83.1897 353.571 83.035 354.079 83.0321C354.594 83.0292 354.998 83.1792 355.288 83.4822C355.587 83.7774 355.737 84.1437 355.74 84.5812C355.742 85.0187 355.596 85.3868 355.301 85.6853C355.014 85.9839 354.612 86.1346 354.096 86.1375C353.589 86.1405 353.185 85.9943 352.887 85.6991C352.588 85.404 352.438 85.0376 352.435 84.6002ZM369.071 81.2588C369.077 82.3213 368.836 83.2172 368.348 83.9466C367.86 84.676 367.191 85.2306 366.342 85.6104C365.5 85.9824 364.548 86.1715 363.486 86.1776C362.423 86.1836 361.465 86.0055 360.612 85.6432C359.758 85.2731 359.083 84.7262 358.587 84.0024C358.09 83.2787 357.839 82.3856 357.833 81.3231C357.829 80.62 357.962 79.9825 358.232 79.4106C358.503 78.831 358.887 78.3327 359.384 77.9157C359.89 77.491 360.481 77.1634 361.16 76.9329C361.846 76.7024 362.595 76.5849 363.408 76.5802C364.486 76.574 365.452 76.7677 366.306 77.1613C367.16 77.5548 367.831 78.1018 368.319 78.8021C368.815 79.5024 369.066 80.3213 369.071 81.2588ZM366.235 81.1344C366.231 80.5641 366.111 80.0648 365.875 79.6365C365.638 79.2081 365.308 78.878 364.885 78.646C364.461 78.414 363.972 78.2997 363.418 78.3028C362.855 78.3061 362.368 78.426 361.955 78.6628C361.542 78.8995 361.22 79.2334 360.988 79.6644C360.764 80.0954 360.653 80.596 360.657 81.1663C360.66 81.7444 360.776 82.2438 361.005 82.6644C361.234 83.0771 361.56 83.3917 361.983 83.608C362.406 83.8243 362.903 83.9309 363.473 83.9276C364.043 83.9243 364.535 83.8122 364.948 83.591C365.361 83.3699 365.679 83.0517 365.903 82.6363C366.127 82.2132 366.238 81.7125 366.235 81.1344ZM368.64 73.3393C368.644 74.1908 368.422 74.9499 367.973 75.6166C367.531 76.2832 366.917 76.8101 366.13 77.1974C365.343 77.577 364.446 77.7696 363.438 77.7754C362.423 77.7812 361.515 77.5989 360.716 77.2284C359.925 76.8501 359.301 76.3303 358.844 75.6688C358.395 75.0073 358.168 74.2508 358.163 73.3992C358.157 72.3836 358.375 71.5269 358.817 70.829C359.266 70.1233 359.884 69.5846 360.671 69.2129C361.458 68.8412 362.359 68.6525 363.375 68.6467C364.39 68.6409 365.293 68.8193 366.085 69.182C366.876 69.5446 367.496 70.0762 367.945 70.7768C368.402 71.4695 368.634 72.3237 368.64 73.3393ZM365.816 73.4492C365.813 72.9414 365.709 72.4967 365.504 72.115C365.306 71.7255 365.027 71.4224 364.666 71.2057C364.306 70.989 363.879 70.8821 363.387 70.8849C362.895 70.8877 362.47 70.9956 362.112 71.2086C361.754 71.4216 361.478 71.7201 361.285 72.104C361.092 72.4879 360.997 72.9455 361 73.4767C361.003 74.0002 361.103 74.4566 361.3 74.8461C361.498 75.2278 361.777 75.527 362.137 75.7437C362.506 75.9604 362.936 76.0673 363.428 76.0645C363.921 76.0616 364.346 75.9498 364.704 75.729C365.062 75.5082 365.338 75.2059 365.531 74.8219C365.724 74.4302 365.819 73.9726 365.816 73.4492ZM381.746 75.8776L381.762 78.6666C381.77 80.0025 381.644 81.1439 381.383 82.0907C381.131 83.0297 380.76 83.7935 380.271 84.3823C379.782 84.971 379.195 85.4041 378.509 85.6814C377.831 85.9588 377.07 86.0998 376.226 86.1047C375.554 86.1085 374.929 86.0262 374.35 85.8576C373.779 85.689 373.261 85.4224 372.798 85.0579C372.335 84.6933 371.938 84.2229 371.607 83.6467C371.283 83.0626 371.029 82.3648 370.845 81.5534C370.668 80.7419 370.577 79.801 370.571 78.7307L370.555 75.9416C370.548 74.5979 370.674 73.4644 370.934 72.541C371.195 71.6098 371.569 70.8537 372.058 70.2728C372.547 69.684 373.13 69.2549 373.809 68.9854C374.495 68.7159 375.259 68.5787 376.103 68.5738C376.783 68.5699 377.408 68.6523 377.98 68.8209C378.559 68.9817 379.076 69.2404 379.531 69.5972C379.994 69.9539 380.387 70.4204 380.711 70.9967C381.042 71.5652 381.296 72.2551 381.473 73.0666C381.649 73.8703 381.74 74.8073 381.746 75.8776ZM378.94 79.0812L378.92 75.4719C378.916 74.7922 378.873 74.1948 378.792 73.6796C378.711 73.1566 378.592 72.7159 378.433 72.3574C378.283 71.9911 378.094 71.6953 377.866 71.47C377.638 71.237 377.379 71.0705 377.09 70.9706C376.8 70.8629 376.475 70.81 376.116 70.8121C375.678 70.8146 375.288 70.9028 374.946 71.0766C374.603 71.2426 374.315 71.5099 374.083 71.8784C373.851 72.2469 373.674 72.7323 373.552 73.3346C373.438 73.929 373.384 74.652 373.389 75.5035L373.409 79.1129C373.413 79.8003 373.456 80.4056 373.537 80.9286C373.618 81.4515 373.738 81.9001 373.896 82.2742C374.054 82.6405 374.243 82.9441 374.464 83.185C374.691 83.4181 374.95 83.5885 375.24 83.6962C375.537 83.8039 375.862 83.8567 376.214 83.8547C376.659 83.8522 377.053 83.764 377.396 83.5901C377.738 83.4163 378.026 83.1412 378.258 82.7649C378.49 82.3807 378.663 81.8836 378.777 81.2736C378.891 80.6636 378.945 79.9328 378.94 79.0812ZM394.487 75.8047L394.503 78.5937C394.51 79.9296 394.384 81.071 394.124 82.0178C393.871 82.9568 393.501 83.7206 393.012 84.3094C392.523 84.8981 391.935 85.3312 391.25 85.6085C390.571 85.8859 389.81 86.0269 388.967 86.0318C388.295 86.0356 387.669 85.9532 387.09 85.7847C386.519 85.6161 386.002 85.3495 385.539 84.985C385.076 84.6204 384.679 84.15 384.347 83.5738C384.024 82.9897 383.77 82.2919 383.585 81.4805C383.409 80.6689 383.318 79.7281 383.311 78.6578L383.296 75.8687C383.288 74.525 383.414 73.3915 383.675 72.4681C383.935 71.5369 384.31 70.7808 384.799 70.1999C385.287 69.6111 385.871 69.182 386.549 68.9125C387.235 68.643 388 68.5058 388.844 68.5009C389.523 68.497 390.149 68.5794 390.72 68.748C391.299 68.9088 391.816 69.1675 392.271 69.5243C392.734 69.881 393.128 70.3475 393.451 70.9238C393.783 71.4923 394.037 72.1822 394.213 72.9937C394.389 73.7974 394.481 74.7344 394.487 75.8047ZM391.681 79.0083L391.66 75.399C391.656 74.7193 391.614 74.1219 391.533 73.6067C391.452 73.0837 391.332 72.643 391.174 72.2845C391.023 71.9182 390.834 71.6224 390.606 71.3971C390.378 71.1641 390.12 70.9976 389.83 70.8977C389.54 70.79 389.216 70.7371 388.856 70.7392C388.419 70.7417 388.029 70.8299 387.686 71.0037C387.343 71.1697 387.056 71.437 386.823 71.8055C386.591 72.174 386.414 72.6594 386.293 73.2617C386.179 73.8561 386.124 74.5791 386.129 75.4306L386.15 79.04C386.153 79.7274 386.196 80.3327 386.277 80.8557C386.358 81.3786 386.478 81.8272 386.636 82.2013C386.795 82.5676 386.984 82.8712 387.204 83.1121C387.432 83.3452 387.691 83.5156 387.98 83.6233C388.278 83.731 388.602 83.7838 388.954 83.7818C389.399 83.7793 389.793 83.6911 390.136 83.5172C390.479 83.3434 390.766 83.0683 390.999 82.692C391.231 82.3078 391.404 81.8107 391.517 81.2007C391.631 80.5906 391.686 79.8599 391.681 79.0083ZM398.96 83.0214L398.96 85.0371C398.964 85.8339 398.77 86.6554 398.376 87.5014C397.982 88.3474 397.459 89.0457 396.806 89.5963L395.289 88.7261C395.506 88.3733 395.703 88.0167 395.881 87.6563C396.058 87.2959 396.201 86.9123 396.308 86.5054C396.415 86.0985 396.467 85.649 396.464 85.1568L396.452 83.0358L398.96 83.0214ZM403.55 77.7802L401.297 77.2423L402.174 68.659L411.373 68.6064L411.386 70.997L404.531 71.0362L404.086 75.2224C404.351 75.0647 404.717 74.9102 405.185 74.7591C405.653 74.6002 406.187 74.519 406.789 74.5155C407.594 74.5109 408.313 74.6396 408.948 74.9016C409.59 75.1558 410.135 75.5316 410.583 76.029C411.031 76.5186 411.374 77.1182 411.613 77.8278C411.851 78.5296 411.973 79.3219 411.978 80.2047C411.982 80.9937 411.869 81.7327 411.639 82.4215C411.416 83.1103 411.076 83.7177 410.618 84.2438C410.16 84.7699 409.58 85.1833 408.879 85.4842C408.185 85.7773 407.362 85.9265 406.409 85.932C405.698 85.936 405.014 85.8384 404.356 85.639C403.707 85.4318 403.123 85.1265 402.605 84.7232C402.087 84.3121 401.67 83.8067 401.354 83.2069C401.038 82.5994 400.854 81.9012 400.803 81.1124L403.569 81.0966C403.642 81.6508 403.797 82.1226 404.034 82.5119C404.278 82.8933 404.6 83.1845 405 83.3853C405.399 83.5861 405.861 83.6851 406.384 83.6821C406.861 83.6793 407.27 83.595 407.613 83.4289C407.956 83.2551 408.24 83.0113 408.464 82.6975C408.697 82.3758 408.867 81.9999 408.974 81.5696C409.088 81.1392 409.144 80.6623 409.141 80.1389C409.139 79.6389 409.07 79.1823 408.934 78.769C408.807 78.3556 408.614 77.9973 408.354 77.6941C408.102 77.3909 407.785 77.1583 407.401 76.9965C407.017 76.8268 406.575 76.7434 406.075 76.7462C405.403 76.7501 404.888 76.8507 404.53 77.048C404.18 77.2454 403.853 77.4894 403.55 77.7802Z" fill="white"/>
<path d="M350.343 158.813C350.369 163.53 349.768 168.204 348.571 172.569C347.375 176.933 345.608 180.903 343.371 184.251L326.047 158.952L350.343 158.813Z" fill="#A155B9"/>
<path d="M343.371 184.251C340.747 188.177 337.543 191.15 334.008 192.939C330.473 194.728 326.703 195.284 322.991 194.563C319.279 193.843 315.726 191.866 312.609 188.786C309.491 185.706 306.894 181.606 305.019 176.807C303.145 172.008 302.043 166.639 301.801 161.118C301.558 155.597 302.181 150.074 303.621 144.978C305.062 139.883 307.28 135.354 310.103 131.744C312.927 128.133 316.279 125.539 319.899 124.164L326.047 158.953L343.371 184.251Z" fill="#16BFD6"/>
<path d="M319.561 124.296C323.187 122.836 326.997 122.642 330.69 123.73C334.383 124.817 337.859 127.157 340.843 130.564C343.827 133.971 346.239 138.352 347.887 143.363C349.536 148.373 350.376 153.876 350.343 159.437L326.047 158.953L319.561 124.296Z" fill="#F765A3"/>
<rect width="20.2186" height="8" transform="matrix(0.999984 -0.00572202 0.00568419 0.999984 372.247 130.688)" fill="#F765A3"/>
<path d="M402.565 138.015L402.515 129.287L405.464 129.271C406.148 129.267 406.709 129.387 407.145 129.632C407.584 129.873 407.909 130.203 408.122 130.619C408.335 131.035 408.442 131.501 408.445 132.015C408.448 132.529 408.346 132.997 408.138 133.419C407.933 133.84 407.614 134.177 407.181 134.43C406.747 134.679 406.191 134.806 405.512 134.81L403.399 134.822L403.393 133.885L405.473 133.873C405.942 133.87 406.318 133.787 406.601 133.623C406.884 133.46 407.089 133.24 407.215 132.964C407.344 132.685 407.408 132.37 407.406 132.021C407.404 131.671 407.336 131.359 407.204 131.084C407.075 130.81 406.866 130.595 406.578 130.44C406.291 130.283 405.909 130.205 405.435 130.208L403.577 130.219L403.621 138.008L402.565 138.015ZM410.045 137.972L410.008 131.426L410.98 131.421L410.985 132.409L411.053 132.409C411.171 132.084 411.385 131.82 411.697 131.617C412.008 131.413 412.36 131.311 412.752 131.308C412.826 131.308 412.918 131.309 413.029 131.311C413.14 131.313 413.223 131.317 413.28 131.322L413.286 132.345C413.252 132.337 413.174 132.324 413.051 132.308C412.932 132.289 412.806 132.28 412.672 132.28C412.354 132.282 412.07 132.351 411.821 132.486C411.575 132.618 411.38 132.801 411.236 133.034C411.095 133.265 411.026 133.529 411.027 133.824L411.051 137.966L410.045 137.972ZM416.971 138.068C416.38 138.072 415.861 137.934 415.413 137.655C414.968 137.377 414.619 136.985 414.366 136.481C414.116 135.977 413.989 135.387 413.986 134.71C413.982 134.029 414.102 133.433 414.346 132.923C414.593 132.413 414.938 132.016 415.379 131.732C415.824 131.448 416.341 131.305 416.932 131.302C417.523 131.298 418.041 131.436 418.486 131.714C418.933 131.993 419.282 132.386 419.532 132.893C419.785 133.4 419.913 133.995 419.917 134.677C419.921 135.353 419.8 135.944 419.552 136.451C419.308 136.958 418.964 137.354 418.519 137.638C418.078 137.921 417.562 138.065 416.971 138.068ZM416.966 137.165C417.414 137.162 417.783 137.045 418.072 136.814C418.36 136.582 418.573 136.278 418.71 135.902C418.847 135.526 418.914 135.12 418.912 134.682C418.909 134.245 418.837 133.838 418.696 133.46C418.555 133.083 418.338 132.779 418.047 132.548C417.756 132.317 417.386 132.202 416.937 132.205C416.488 132.207 416.12 132.326 415.831 132.561C415.543 132.795 415.33 133.102 415.193 133.481C415.056 133.859 414.989 134.267 414.991 134.705C414.994 135.142 415.066 135.548 415.207 135.922C415.348 136.296 415.565 136.598 415.856 136.826C416.147 137.055 416.517 137.168 416.966 137.165ZM423.943 138.029C423.398 138.032 422.915 137.897 422.496 137.623C422.077 137.347 421.748 136.957 421.509 136.453C421.271 135.946 421.15 135.346 421.146 134.652C421.142 133.965 421.256 133.368 421.489 132.861C421.722 132.354 422.048 131.961 422.467 131.683C422.886 131.405 423.371 131.265 423.922 131.262C424.348 131.259 424.685 131.328 424.933 131.469C425.184 131.607 425.375 131.765 425.507 131.943C425.641 132.118 425.746 132.262 425.82 132.376L425.905 132.375L425.887 129.154L426.893 129.148L426.942 137.875L425.971 137.881L425.965 136.875L425.846 136.876C425.773 136.995 425.668 137.146 425.533 137.329C425.398 137.509 425.204 137.67 424.952 137.814C424.7 137.955 424.364 138.026 423.943 138.029ZM424.074 137.124C424.478 137.122 424.818 137.015 425.095 136.803C425.373 136.589 425.583 136.293 425.725 135.917C425.868 135.539 425.938 135.102 425.935 134.608C425.932 134.119 425.859 133.692 425.715 133.327C425.571 132.958 425.359 132.672 425.079 132.469C424.8 132.264 424.455 132.162 424.046 132.164C423.62 132.167 423.266 132.278 422.983 132.498C422.703 132.716 422.493 133.011 422.353 133.384C422.216 133.754 422.149 134.169 422.151 134.63C422.154 135.096 422.227 135.518 422.371 135.898C422.518 136.275 422.733 136.575 423.016 136.798C423.301 137.018 423.654 137.127 424.074 137.124ZM433.034 135.164L433.012 131.295L434.017 131.289L434.054 137.834L433.049 137.84L433.043 136.732L432.974 136.733C432.823 137.066 432.586 137.35 432.263 137.585C431.941 137.817 431.532 137.934 431.038 137.937C430.629 137.939 430.265 137.852 429.946 137.675C429.626 137.495 429.375 137.223 429.191 136.861C429.007 136.495 428.913 136.034 428.91 135.477L428.887 131.318L429.892 131.313L429.916 135.403C429.918 135.881 430.054 136.261 430.323 136.543C430.594 136.826 430.939 136.966 431.356 136.963C431.606 136.962 431.86 136.897 432.118 136.767C432.379 136.638 432.596 136.441 432.771 136.175C432.948 135.91 433.036 135.573 433.034 135.164ZM438.556 137.945C437.943 137.948 437.413 137.807 436.969 137.519C436.524 137.232 436.181 136.835 435.939 136.328C435.698 135.821 435.575 135.24 435.571 134.587C435.567 133.922 435.686 133.335 435.928 132.825C436.172 132.312 436.513 131.911 436.952 131.622C437.394 131.329 437.91 131.181 438.501 131.178C438.961 131.175 439.376 131.258 439.746 131.427C440.117 131.595 440.421 131.832 440.658 132.137C440.896 132.443 441.044 132.8 441.103 133.209L440.098 133.214C440.019 132.917 439.847 132.653 439.582 132.425C439.319 132.193 438.966 132.079 438.523 132.081C438.131 132.084 437.788 132.188 437.493 132.394C437.202 132.597 436.975 132.884 436.812 133.255C436.652 133.622 436.574 134.053 436.577 134.547C436.58 135.053 436.662 135.493 436.823 135.867C436.987 136.241 437.216 136.531 437.51 136.736C437.806 136.942 438.153 137.044 438.551 137.042C438.812 137.04 439.049 136.993 439.262 136.901C439.475 136.809 439.654 136.677 439.801 136.506C439.948 136.335 440.052 136.13 440.113 135.891L441.118 135.885C441.064 136.271 440.925 136.62 440.703 136.931C440.483 137.239 440.19 137.485 439.825 137.669C439.462 137.85 439.039 137.942 438.556 137.945ZM445.409 131.224L445.414 132.076L442.022 132.095L442.017 131.243L445.409 131.224ZM442.996 129.669L444.002 129.664L444.038 135.902C444.039 136.186 444.082 136.399 444.165 136.541C444.251 136.679 444.359 136.772 444.49 136.82C444.624 136.865 444.765 136.887 444.913 136.886C445.023 136.885 445.114 136.879 445.185 136.867C445.256 136.853 445.313 136.841 445.355 136.832L445.565 137.734C445.497 137.76 445.402 137.786 445.28 137.813C445.158 137.842 445.003 137.857 444.816 137.858C444.532 137.86 444.253 137.8 443.98 137.68C443.709 137.559 443.483 137.374 443.303 137.125C443.126 136.876 443.036 136.561 443.034 136.181L442.996 129.669ZM450.317 137.741L450.312 136.974L453.175 133.804C453.511 133.433 453.788 133.111 454.005 132.837C454.222 132.56 454.382 132.3 454.486 132.058C454.593 131.813 454.645 131.557 454.644 131.29C454.642 130.983 454.567 130.718 454.418 130.495C454.271 130.271 454.072 130.099 453.818 129.978C453.565 129.857 453.28 129.798 452.965 129.8C452.63 129.802 452.337 129.873 452.088 130.014C451.842 130.151 451.651 130.344 451.516 130.592C451.384 130.84 451.319 131.13 451.321 131.463L450.315 131.468C450.312 130.957 450.428 130.508 450.661 130.12C450.895 129.732 451.214 129.429 451.619 129.211C452.027 128.993 452.485 128.882 452.994 128.879C453.505 128.876 453.959 128.982 454.355 129.195C454.751 129.409 455.062 129.698 455.289 130.064C455.515 130.429 455.63 130.836 455.632 131.285C455.634 131.606 455.578 131.92 455.463 132.227C455.351 132.532 455.154 132.873 454.872 133.249C454.593 133.623 454.205 134.08 453.708 134.62L451.76 136.727L451.76 136.795L455.817 136.772L455.822 137.71L450.317 137.741Z" fill="white"/>
<rect width="20.2186" height="8" transform="matrix(0.999984 -0.00572202 0.00568419 0.999984 372.383 154.688)" fill="#16BFD6"/>
<path d="M402.701 162.014L402.651 153.287L405.6 153.27C406.285 153.266 406.845 153.387 407.281 153.631C407.72 153.873 408.046 154.202 408.258 154.619C408.471 155.035 408.579 155.5 408.582 156.014C408.585 156.529 408.482 156.997 408.274 157.418C408.069 157.84 407.75 158.177 407.317 158.429C406.884 158.679 406.328 158.806 405.649 158.81L403.535 158.822L403.53 157.884L405.609 157.872C406.078 157.87 406.454 157.787 406.737 157.623C407.02 157.46 407.225 157.24 407.351 156.963C407.48 156.684 407.544 156.37 407.542 156.02C407.54 155.671 407.473 155.359 407.341 155.084C407.211 154.809 407.003 154.595 406.715 154.44C406.427 154.282 406.046 154.205 405.571 154.208L403.714 154.218L403.758 162.008L402.701 162.014ZM410.182 161.971L410.144 155.426L411.116 155.42L411.122 156.409L411.19 156.409C411.307 156.084 411.522 155.82 411.833 155.617C412.144 155.413 412.496 155.31 412.888 155.308C412.962 155.308 413.054 155.308 413.165 155.311C413.276 155.313 413.36 155.317 413.417 155.322L413.422 156.345C413.388 156.336 413.31 156.324 413.188 156.308C413.068 156.289 412.942 156.279 412.808 156.28C412.49 156.282 412.207 156.35 411.957 156.485C411.711 156.617 411.516 156.8 411.372 157.034C411.232 157.265 411.162 157.528 411.164 157.824L411.187 161.966L410.182 161.971ZM417.107 162.068C416.516 162.071 415.997 161.934 415.549 161.655C415.105 161.376 414.756 160.985 414.503 160.481C414.253 159.976 414.126 159.386 414.122 158.71C414.118 158.028 414.238 157.432 414.483 156.922C414.73 156.413 415.074 156.016 415.516 155.732C415.96 155.448 416.478 155.305 417.069 155.301C417.66 155.298 418.177 155.435 418.622 155.714C419.07 155.993 419.419 156.386 419.669 156.893C419.921 157.4 420.05 157.994 420.054 158.676C420.058 159.352 419.936 159.944 419.689 160.451C419.445 160.958 419.1 161.354 418.656 161.637C418.214 161.921 417.698 162.065 417.107 162.068ZM417.102 161.165C417.551 161.162 417.919 161.045 418.208 160.813C418.496 160.581 418.709 160.278 418.846 159.902C418.983 159.526 419.051 159.119 419.048 158.682C419.046 158.244 418.974 157.837 418.832 157.46C418.691 157.083 418.475 156.779 418.184 156.548C417.893 156.316 417.523 156.202 417.074 156.205C416.625 156.207 416.256 156.326 415.968 156.56C415.679 156.795 415.467 157.102 415.33 157.48C415.192 157.859 415.125 158.267 415.128 158.704C415.13 159.142 415.202 159.548 415.343 159.922C415.485 160.296 415.701 160.597 415.992 160.826C416.283 161.054 416.653 161.167 417.102 161.165ZM424.08 162.028C423.534 162.031 423.052 161.896 422.633 161.623C422.214 161.347 421.885 160.957 421.646 160.453C421.407 159.945 421.286 159.345 421.282 158.652C421.278 157.965 421.393 157.367 421.625 156.86C421.858 156.353 422.184 155.961 422.603 155.683C423.022 155.405 423.507 155.264 424.058 155.261C424.484 155.259 424.821 155.328 425.069 155.468C425.32 155.606 425.511 155.764 425.643 155.942C425.778 156.118 425.882 156.262 425.957 156.375L426.042 156.375L426.024 153.153L427.029 153.148L427.079 161.875L426.107 161.88L426.102 160.875L425.982 160.875C425.909 160.995 425.805 161.146 425.669 161.329C425.534 161.508 425.34 161.67 425.088 161.814C424.836 161.954 424.5 162.026 424.08 162.028ZM424.211 161.124C424.614 161.122 424.955 161.015 425.232 160.803C425.509 160.588 425.719 160.293 425.862 159.917C426.004 159.538 426.074 159.102 426.072 158.608C426.069 158.119 425.995 157.692 425.851 157.326C425.707 156.958 425.495 156.672 425.216 156.469C424.936 156.263 424.592 156.162 424.183 156.164C423.757 156.166 423.402 156.278 423.119 156.498C422.839 156.716 422.629 157.011 422.489 157.384C422.352 157.754 422.285 158.169 422.288 158.629C422.29 159.095 422.364 159.518 422.508 159.898C422.655 160.275 422.87 160.575 423.152 160.798C423.438 161.018 423.79 161.126 424.211 161.124ZM433.17 159.164L433.148 155.294L434.154 155.289L434.191 161.834L433.185 161.84L433.179 160.732L433.111 160.732C432.959 161.065 432.722 161.349 432.4 161.584C432.077 161.816 431.669 161.934 431.174 161.936C430.765 161.939 430.401 161.851 430.082 161.674C429.763 161.494 429.511 161.223 429.327 160.86C429.143 160.495 429.05 160.034 429.047 159.477L429.023 155.318L430.029 155.312L430.052 159.403C430.055 159.88 430.19 160.26 430.459 160.543C430.731 160.825 431.075 160.965 431.493 160.963C431.743 160.962 431.997 160.896 432.254 160.767C432.515 160.638 432.733 160.44 432.907 160.175C433.085 159.91 433.172 159.573 433.17 159.164ZM438.693 161.945C438.079 161.948 437.55 161.806 437.105 161.519C436.66 161.232 436.317 160.835 436.075 160.327C435.834 159.82 435.711 159.24 435.708 158.587C435.704 157.922 435.823 157.334 436.064 156.825C436.308 156.312 436.65 155.911 437.089 155.621C437.53 155.329 438.046 155.181 438.637 155.178C439.097 155.175 439.513 155.258 439.883 155.426C440.253 155.595 440.557 155.832 440.795 156.137C441.032 156.442 441.181 156.8 441.24 157.208L440.234 157.214C440.156 156.916 439.984 156.653 439.718 156.424C439.455 156.193 439.103 156.078 438.659 156.081C438.267 156.083 437.924 156.188 437.63 156.394C437.338 156.597 437.111 156.884 436.949 157.254C436.789 157.622 436.71 158.052 436.713 158.547C436.716 159.052 436.798 159.492 436.959 159.866C437.123 160.24 437.352 160.53 437.646 160.736C437.943 160.942 438.29 161.043 438.688 161.041C438.949 161.04 439.186 160.993 439.398 160.901C439.611 160.809 439.791 160.677 439.937 160.506C440.084 160.334 440.188 160.129 440.249 159.89L441.255 159.884C441.2 160.271 441.062 160.62 440.839 160.931C440.619 161.239 440.326 161.485 439.961 161.669C439.598 161.85 439.176 161.942 438.693 161.945ZM445.545 155.223L445.55 156.076L442.158 156.095L442.153 155.243L445.545 155.223ZM443.133 153.669L444.139 153.663L444.174 159.902C444.176 160.186 444.218 160.399 444.301 160.54C444.387 160.679 444.496 160.772 444.627 160.82C444.76 160.864 444.901 160.886 445.049 160.885C445.16 160.885 445.251 160.879 445.322 160.867C445.393 160.852 445.449 160.841 445.492 160.832L445.702 161.734C445.633 161.76 445.538 161.786 445.416 161.812C445.294 161.841 445.14 161.857 444.952 161.858C444.668 161.859 444.389 161.8 444.116 161.679C443.845 161.559 443.62 161.374 443.44 161.125C443.262 160.876 443.172 160.561 443.17 160.18L443.133 153.669ZM453.403 161.843C452.84 161.847 452.338 161.753 451.897 161.562C451.458 161.372 451.109 161.105 450.848 160.763C450.59 160.418 450.449 160.016 450.424 159.559L451.497 159.553C451.522 159.834 451.62 160.077 451.791 160.28C451.963 160.481 452.187 160.636 452.463 160.745C452.739 160.854 453.045 160.908 453.38 160.906C453.755 160.904 454.087 160.837 454.376 160.704C454.665 160.572 454.891 160.389 455.055 160.155C455.218 159.921 455.299 159.651 455.297 159.344C455.296 159.023 455.214 158.741 455.054 158.497C454.894 158.251 454.659 158.059 454.352 157.922C454.044 157.784 453.669 157.717 453.226 157.719L452.527 157.723L452.522 156.786L453.22 156.782C453.567 156.78 453.871 156.716 454.131 156.589C454.395 156.463 454.6 156.285 454.746 156.057C454.895 155.829 454.969 155.562 454.967 155.255C454.966 154.959 454.899 154.703 454.767 154.485C454.635 154.267 454.449 154.097 454.21 153.976C453.974 153.856 453.695 153.796 453.374 153.798C453.073 153.8 452.789 153.857 452.523 153.969C452.259 154.078 452.044 154.237 451.878 154.446C451.711 154.651 451.622 154.899 451.609 155.189L450.586 155.195C450.601 154.737 450.736 154.336 450.993 153.991C451.249 153.642 451.586 153.371 452.002 153.175C452.422 152.979 452.883 152.88 453.386 152.877C453.925 152.874 454.389 152.981 454.777 153.198C455.164 153.411 455.463 153.695 455.672 154.049C455.882 154.403 455.987 154.786 455.99 155.198C455.993 155.689 455.866 156.109 455.609 156.457C455.355 156.805 455.009 157.047 454.569 157.183L454.57 157.251C455.121 157.339 455.553 157.571 455.865 157.947C456.177 158.32 456.334 158.784 456.337 159.338C456.34 159.812 456.213 160.239 455.957 160.618C455.703 160.995 455.355 161.292 454.913 161.511C454.472 161.729 453.968 161.84 453.403 161.843Z" fill="white"/>
<rect width="20.2186" height="8" transform="matrix(0.999984 -0.00572202 0.00568419 0.999984 372.52 178.687)" fill="#A155B9"/>
<path d="M402.837 186.014L402.788 177.287L405.737 177.27C406.421 177.266 406.982 177.386 407.418 177.631C407.857 177.873 408.182 178.202 408.395 178.618C408.607 179.035 408.715 179.5 408.718 180.014C408.721 180.528 408.619 180.996 408.411 181.418C408.206 181.84 407.887 182.177 407.453 182.429C407.02 182.679 406.464 182.805 405.785 182.809L403.672 182.821L403.666 181.884L405.746 181.872C406.214 181.869 406.59 181.786 406.874 181.623C407.157 181.459 407.361 181.239 407.488 180.963C407.617 180.684 407.68 180.369 407.678 180.02C407.676 179.671 407.609 179.359 407.477 179.084C407.348 178.809 407.139 178.594 406.851 178.44C406.563 178.282 406.182 178.205 405.708 178.207L403.85 178.218L403.894 186.008L402.837 186.014ZM410.318 185.971L410.281 179.426L411.252 179.42L411.258 180.409L411.326 180.408C411.444 180.084 411.658 179.82 411.97 179.616C412.281 179.413 412.633 179.31 413.025 179.308C413.098 179.307 413.191 179.308 413.302 179.31C413.412 179.313 413.496 179.316 413.553 179.322L413.559 180.344C413.525 180.336 413.447 180.324 413.324 180.307C413.205 180.288 413.078 180.279 412.945 180.28C412.627 180.282 412.343 180.35 412.094 180.485C411.847 180.617 411.652 180.8 411.509 181.034C411.368 181.265 411.299 181.528 411.3 181.823L411.324 185.965L410.318 185.971ZM417.243 186.068C416.653 186.071 416.133 185.933 415.686 185.655C415.241 185.376 414.892 184.985 414.639 184.48C414.389 183.976 414.262 183.386 414.258 182.71C414.255 182.028 414.375 181.432 414.619 180.922C414.866 180.412 415.21 180.015 415.652 179.732C416.096 179.448 416.614 179.304 417.205 179.301C417.796 179.297 418.314 179.435 418.759 179.714C419.206 179.992 419.555 180.385 419.805 180.892C420.058 181.4 420.186 181.994 420.19 182.676C420.194 183.352 420.072 183.944 419.825 184.451C419.581 184.958 419.237 185.353 418.792 185.637C418.351 185.921 417.834 186.064 417.243 186.068ZM417.238 185.164C417.687 185.162 418.056 185.045 418.344 184.813C418.633 184.581 418.846 184.277 418.983 183.901C419.12 183.526 419.187 183.119 419.185 182.682C419.182 182.244 419.11 181.837 418.969 181.46C418.827 181.083 418.611 180.779 418.32 180.547C418.029 180.316 417.659 180.202 417.21 180.204C416.761 180.207 416.393 180.325 416.104 180.56C415.816 180.795 415.603 181.101 415.466 181.48C415.329 181.858 415.262 182.266 415.264 182.704C415.267 183.141 415.339 183.547 415.48 183.922C415.621 184.296 415.837 184.597 416.128 184.825C416.42 185.054 416.79 185.167 417.238 185.164ZM424.216 186.028C423.671 186.031 423.188 185.896 422.769 185.623C422.35 185.347 422.021 184.957 421.782 184.452C421.544 183.945 421.422 183.345 421.418 182.652C421.414 181.964 421.529 181.367 421.762 180.86C421.995 180.353 422.321 179.96 422.74 179.682C423.158 179.404 423.643 179.264 424.195 179.261C424.621 179.258 424.958 179.327 425.206 179.468C425.457 179.606 425.648 179.764 425.779 179.942C425.914 180.117 426.019 180.262 426.093 180.375L426.178 180.374L426.16 177.153L427.166 177.147L427.215 185.874L426.244 185.88L426.238 184.874L426.119 184.875C426.045 184.995 425.941 185.146 425.806 185.328C425.67 185.508 425.477 185.67 425.225 185.813C424.973 185.954 424.636 186.025 424.216 186.028ZM424.347 185.124C424.751 185.121 425.091 185.014 425.368 184.802C425.645 184.588 425.855 184.293 425.998 183.917C426.141 183.538 426.211 183.102 426.208 182.607C426.205 182.119 426.132 181.691 425.988 181.326C425.843 180.957 425.632 180.672 425.352 180.469C425.072 180.263 424.728 180.161 424.319 180.163C423.893 180.166 423.538 180.277 423.256 180.498C422.976 180.715 422.766 181.01 422.626 181.383C422.489 181.754 422.421 182.169 422.424 182.629C422.427 183.095 422.5 183.518 422.644 183.898C422.791 184.275 423.006 184.574 423.289 184.797C423.574 185.017 423.927 185.126 424.347 185.124ZM433.306 183.163L433.284 179.294L434.29 179.288L434.327 185.834L433.322 185.839L433.315 184.731L433.247 184.732C433.096 185.065 432.859 185.349 432.536 185.584C432.214 185.816 431.805 185.933 431.311 185.936C430.902 185.938 430.538 185.851 430.218 185.674C429.899 185.494 429.648 185.223 429.464 184.86C429.28 184.495 429.186 184.033 429.183 183.477L429.16 179.318L430.165 179.312L430.188 183.403C430.191 183.88 430.327 184.26 430.595 184.542C430.867 184.825 431.212 184.965 431.629 184.963C431.879 184.961 432.133 184.896 432.391 184.767C432.651 184.637 432.869 184.44 433.044 184.175C433.221 183.909 433.309 183.572 433.306 183.163ZM438.829 185.944C438.215 185.948 437.686 185.806 437.241 185.519C436.797 185.231 436.453 184.834 436.212 184.327C435.97 183.82 435.848 183.24 435.844 182.586C435.84 181.921 435.959 181.334 436.201 180.824C436.445 180.311 436.786 179.91 437.225 179.621C437.666 179.329 438.183 179.181 438.774 179.177C439.234 179.175 439.649 179.258 440.019 179.426C440.39 179.594 440.694 179.831 440.931 180.137C441.169 180.442 441.317 180.799 441.376 181.208L440.37 181.214C440.292 180.916 440.12 180.653 439.855 180.424C439.592 180.193 439.239 180.078 438.796 180.081C438.404 180.083 438.061 180.187 437.766 180.393C437.475 180.597 437.248 180.884 437.085 181.254C436.925 181.621 436.847 182.052 436.85 182.546C436.852 183.052 436.934 183.492 437.096 183.866C437.26 184.24 437.489 184.53 437.782 184.736C438.079 184.941 438.426 185.043 438.824 185.041C439.085 185.039 439.322 184.992 439.535 184.9C439.747 184.808 439.927 184.677 440.074 184.505C440.221 184.334 440.324 184.129 440.386 183.89L441.391 183.884C441.337 184.271 441.198 184.62 440.975 184.93C440.755 185.239 440.463 185.485 440.097 185.668C439.735 185.85 439.312 185.941 438.829 185.944ZM445.682 179.223L445.686 180.075L442.294 180.095L442.29 179.242L445.682 179.223ZM443.269 177.669L444.275 177.663L444.31 183.901C444.312 184.186 444.354 184.398 444.438 184.54C444.524 184.679 444.632 184.772 444.763 184.819C444.897 184.864 445.038 184.886 445.185 184.885C445.296 184.884 445.387 184.878 445.458 184.866C445.529 184.852 445.586 184.84 445.628 184.831L445.838 185.734C445.77 185.76 445.675 185.786 445.553 185.812C445.431 185.841 445.276 185.856 445.089 185.857C444.805 185.859 444.526 185.799 444.252 185.679C443.982 185.558 443.756 185.373 443.576 185.124C443.398 184.875 443.309 184.561 443.306 184.18L443.269 177.669ZM453.539 185.843C452.976 185.846 452.475 185.752 452.033 185.562C451.594 185.371 451.245 185.105 450.984 184.762C450.727 184.417 450.585 184.016 450.56 183.559L451.634 183.553C451.658 183.834 451.756 184.076 451.928 184.28C452.099 184.48 452.323 184.635 452.599 184.745C452.876 184.854 453.181 184.908 453.517 184.906C453.892 184.903 454.224 184.836 454.513 184.704C454.802 184.572 455.028 184.388 455.191 184.155C455.355 183.921 455.436 183.65 455.434 183.343C455.432 183.022 455.351 182.74 455.19 182.497C455.03 182.251 454.796 182.059 454.488 181.921C454.181 181.784 453.805 181.716 453.362 181.719L452.663 181.723L452.658 180.785L453.357 180.781C453.703 180.779 454.007 180.715 454.268 180.589C454.531 180.462 454.736 180.285 454.883 180.057C455.032 179.829 455.106 179.561 455.104 179.254C455.102 178.959 455.035 178.702 454.903 178.484C454.771 178.266 454.586 178.097 454.347 177.976C454.11 177.855 453.831 177.796 453.51 177.798C453.209 177.799 452.925 177.856 452.659 177.969C452.395 178.078 452.18 178.237 452.014 178.445C451.847 178.651 451.758 178.899 451.745 179.188L450.723 179.194C450.737 178.737 450.873 178.335 451.129 177.99C451.386 177.642 451.722 177.37 452.139 177.175C452.558 176.979 453.019 176.88 453.522 176.877C454.062 176.874 454.526 176.981 454.913 177.197C455.301 177.411 455.599 177.695 455.809 178.049C456.018 178.403 456.124 178.785 456.126 179.197C456.129 179.689 456.002 180.109 455.746 180.457C455.492 180.805 455.145 181.047 454.706 181.183L454.706 181.251C455.258 181.339 455.689 181.571 456.001 181.947C456.313 182.32 456.47 182.784 456.474 183.338C456.476 183.812 456.349 184.239 456.093 184.618C455.84 184.995 455.492 185.292 455.05 185.51C454.608 185.729 454.104 185.84 453.539 185.843Z" fill="white"/>
</g>
<defs>
<clipPath id="clip0_489_5490">
<rect width="252.47" height="501.931" fill="white" transform="translate(0 252.468) rotate(-89.8084)"/>
</clipPath>
</defs>
</svg>
