<svg width="251" height="247" viewBox="0 0 251 247" fill="none" xmlns="http://www.w3.org/2000/svg">
<rect width="251" height="247" rx="123.5" fill="#E1C512"/>
<path opacity="0.32" d="M146.132 151.559H103.989C103.236 151.559 102.609 150.942 102.609 150.201C102.609 149.46 103.236 148.842 103.989 148.842H146.132C146.885 148.842 147.513 149.46 147.513 150.201C147.513 150.942 146.885 151.559 146.132 151.559Z" fill="#1C1C1C"/>
<path opacity="0.32" d="M175.574 161.909H87.2725C86.5195 161.909 85.892 161.291 85.892 160.55C85.892 159.809 86.5195 159.192 87.2725 159.192H175.574C176.327 159.192 176.955 159.809 176.955 160.55C176.955 161.316 176.327 161.909 175.574 161.909Z" fill="#1C1C1C"/>
<path d="M169.224 124.76H80.8721V78.2249C80.8721 76.076 82.6291 74.347 84.8128 74.347H165.158C167.392 74.347 169.224 76.1501 169.224 78.3484V124.76Z" fill="#383939"/>
<path d="M82.3781 121.055V78.0767C82.3781 76.8417 83.3821 75.8537 84.6371 75.8537H165.459C166.714 75.8537 167.718 76.8417 167.718 78.0767V121.055C167.718 122.29 166.714 123.278 165.459 123.278H84.6371C83.4072 123.278 82.3781 122.265 82.3781 121.055Z" fill="#3A3A3A"/>
<path d="M169.224 124.76H80.8721V78.2249C80.8721 76.076 82.6291 74.347 84.8128 74.347H165.158C167.392 74.347 169.224 76.1501 169.224 78.3484V124.76Z" stroke="#383939" stroke-width="3" stroke-miterlimit="10" stroke-linecap="round" stroke-linejoin="round"/>
<path d="M164.201 119.8V79.2921L85.8887 79.2921L85.8887 119.8L164.201 119.8Z" fill="#4F4F4F"/>
<path d="M165.133 136.616H84.8379C82.6542 136.616 80.8721 134.862 80.8721 132.713V124.76H169.224V132.59C169.224 134.788 167.392 136.616 165.133 136.616Z" fill="#D4E8DC"/>
<path d="M84.838 134.64C83.7587 134.64 82.8802 133.775 82.8802 132.713V125.575H167.216V132.59C167.216 133.726 166.288 134.64 165.133 134.64H84.838Z" fill="#EBF2EE"/>
<path d="M165.133 136.616H84.8379C82.6542 136.616 80.8721 134.862 80.8721 132.713V124.76H169.224V132.59C169.224 134.788 167.392 136.616 165.133 136.616Z" stroke="#383939" stroke-width="3" stroke-miterlimit="10" stroke-linecap="round" stroke-linejoin="round"/>
<path d="M138.351 145.508H111.745L115.686 136.616H134.411L138.351 145.508Z" fill="#CAD8D0"/>
<path d="M136.167 140.568L134.41 136.616H115.686L113.929 140.568H136.167Z" fill="#A1ADA6"/>
<path d="M138.351 145.508H111.745L115.686 136.616H134.411L138.351 145.508Z" stroke="#383939" stroke-width="3" stroke-miterlimit="10" stroke-linecap="round" stroke-linejoin="round"/>
<path d="M143.371 149.46H106.725L107.102 148.151C107.553 146.594 109.034 145.508 110.741 145.508H139.355C141.062 145.508 142.568 146.594 142.995 148.151L143.371 149.46Z" fill="#DAEDE2"/>
<path d="M143.371 149.46H106.725L107.102 148.151C107.553 146.594 109.034 145.508 110.741 145.508H139.355C141.062 145.508 142.568 146.594 142.995 148.151L143.371 149.46Z" stroke="#383939" stroke-width="3" stroke-miterlimit="10" stroke-linecap="round" stroke-linejoin="round"/>
<path d="M92.3932 159.562H156.072C157.001 159.562 157.754 158.821 157.754 157.907C157.754 156.993 157.001 156.252 156.072 156.252H92.3932C91.4645 156.252 90.7115 156.993 90.7115 157.907C90.6864 158.821 91.4394 159.562 92.3932 159.562Z" fill="#DAEDE2"/>
<path d="M92.3932 159.562H156.072C157.001 159.562 157.754 158.821 157.754 157.907C157.754 156.993 157.001 156.252 156.072 156.252H92.3932C91.4645 156.252 90.7115 156.993 90.7115 157.907C90.6864 158.821 91.4394 159.562 92.3932 159.562Z" stroke="#383939" stroke-width="3" stroke-miterlimit="10" stroke-linecap="round" stroke-linejoin="round"/>
<path d="M111.921 156.228H142.543V155.24C142.543 154.424 141.865 153.758 141.037 153.758H113.427C112.599 153.758 111.921 154.424 111.921 155.24V156.228Z" fill="#383939"/>
<path d="M105.847 156.228H111.168V155.24C111.168 154.424 110.49 153.758 109.662 153.758H107.353C106.524 153.758 105.847 154.424 105.847 155.24V156.228Z" fill="#383939"/>
<path d="M99.6468 156.228H104.968V155.24C104.968 154.424 104.29 153.758 103.462 153.758H101.153C100.325 153.758 99.6468 154.424 99.6468 155.24V156.228Z" fill="#383939"/>
<path d="M149.646 156.228H154.968V155.24C154.968 154.424 154.29 153.758 153.462 153.758H151.152C150.324 153.758 149.646 154.424 149.646 155.24V156.228Z" fill="#383939"/>
<path d="M143.471 156.228H148.793V155.24C148.793 154.424 148.115 153.758 147.287 153.758H144.977C144.149 153.758 143.471 154.424 143.471 155.24V156.228Z" fill="#383939"/>
<path d="M93.4725 156.228H98.7937V155.24C98.7937 154.424 98.116 153.758 97.2877 153.758H94.9785C94.1502 153.758 93.4725 154.424 93.4725 155.24V156.228Z" fill="#383939"/>
<path d="M172.863 159.562C172.838 157.685 170.755 155.808 167.065 155.808C163.401 155.808 161.292 157.685 161.267 159.562H172.863Z" fill="#DAEDE2"/>
<path d="M172.863 159.562C172.838 157.685 170.755 155.808 167.065 155.808C163.401 155.808 161.292 157.685 161.267 159.562H172.863Z" stroke="#383939" stroke-width="3" stroke-miterlimit="10" stroke-linecap="round" stroke-linejoin="round"/>
<path d="M128.613 130.07C127.458 130.07 126.504 129.23 126.354 128.119C126.329 128.119 126.329 128.119 126.303 128.119C124.873 128.119 123.718 129.255 123.718 130.663C123.718 132.071 124.873 133.207 126.303 133.207C127.734 133.207 128.889 132.071 128.889 130.663C128.889 130.441 128.864 130.243 128.813 130.045C128.738 130.07 128.688 130.07 128.613 130.07Z" fill="#383939"/>
<path d="M127.784 99.1705C127.056 99.1705 126.429 98.6271 126.353 97.9355H126.328C125.425 97.9355 124.672 98.6765 124.672 99.5657C124.672 100.455 125.425 101.196 126.328 101.196C127.232 101.196 127.985 100.455 127.985 99.5657C127.985 99.4175 127.96 99.294 127.935 99.1705C127.859 99.1705 127.834 99.1705 127.784 99.1705Z" fill="#E7F7F7"/>
<path opacity="0.16" d="M94.7775 119.82H104.366L125.349 79.3117H115.761L94.7775 119.82Z" fill="#C2D3C9"/>
<path opacity="0.16" d="M112.122 119.82L133.105 79.3117H129.516L108.532 119.82H112.122Z" fill="#C2D3C9"/>
<g opacity="0.38">
<path d="M130.897 105.716H120.807C120.606 105.716 120.43 105.543 120.43 105.345C120.43 105.148 120.606 104.975 120.807 104.975H130.897C131.098 104.975 131.273 105.148 131.273 105.345C131.273 105.543 131.098 105.716 130.897 105.716Z" fill="#C2D3C9"/>
</g>
<path d="M124.296 104.975H120.807C120.606 104.975 120.43 105.148 120.43 105.345C120.43 105.543 120.606 105.716 120.807 105.716H124.296V104.975Z" fill="#C2D3C9"/>
</svg>
