<svg width="407" height="247" viewBox="0 0 407 247" fill="none" xmlns="http://www.w3.org/2000/svg">
<rect x="78" width="251" height="247" rx="123.5" fill="#418154"/>
<path opacity="0.32" d="M224.132 151.559H181.989C181.236 151.559 180.609 150.942 180.609 150.201C180.609 149.46 181.236 148.842 181.989 148.842H224.132C224.885 148.842 225.513 149.46 225.513 150.201C225.513 150.942 224.885 151.559 224.132 151.559Z" fill="#1C1C1C"/>
<path opacity="0.32" d="M253.574 161.909H165.273C164.52 161.909 163.892 161.291 163.892 160.55C163.892 159.809 164.52 159.192 165.273 159.192H253.574C254.327 159.192 254.955 159.809 254.955 160.55C254.955 161.316 254.327 161.909 253.574 161.909Z" fill="#1C1C1C"/>
<path d="M247.224 124.76H158.872V78.2249C158.872 76.076 160.629 74.347 162.813 74.347H243.158C245.392 74.347 247.224 76.1501 247.224 78.3484V124.76Z" fill="#383939"/>
<path d="M160.378 121.055V78.0767C160.378 76.8417 161.382 75.8537 162.637 75.8537H243.459C244.714 75.8537 245.718 76.8417 245.718 78.0767V121.055C245.718 122.29 244.714 123.278 243.459 123.278H162.637C161.407 123.278 160.378 122.265 160.378 121.055Z" fill="#3A3A3A"/>
<path d="M247.224 124.76H158.872V78.2249C158.872 76.076 160.629 74.347 162.813 74.347H243.158C245.392 74.347 247.224 76.1501 247.224 78.3484V124.76Z" stroke="#383939" stroke-width="3" stroke-miterlimit="10" stroke-linecap="round" stroke-linejoin="round"/>
<path d="M242.201 119.8V79.2921L163.889 79.2921V119.8L242.201 119.8Z" fill="#4F4F4F"/>
<path d="M243.133 136.616H162.838C160.654 136.616 158.872 134.862 158.872 132.713V124.76H247.224V132.59C247.224 134.788 245.392 136.616 243.133 136.616Z" fill="#D4E8DC"/>
<path d="M162.838 134.64C161.759 134.64 160.88 133.775 160.88 132.713V125.575H245.216V132.59C245.216 133.726 244.288 134.64 243.133 134.64H162.838Z" fill="#EBF2EE"/>
<path d="M243.133 136.616H162.838C160.654 136.616 158.872 134.862 158.872 132.713V124.76H247.224V132.59C247.224 134.788 245.392 136.616 243.133 136.616Z" stroke="#383939" stroke-width="3" stroke-miterlimit="10" stroke-linecap="round" stroke-linejoin="round"/>
<path d="M216.351 145.508H189.745L193.686 136.616H212.411L216.351 145.508Z" fill="#CAD8D0"/>
<path d="M214.167 140.568L212.41 136.616H193.686L191.929 140.568H214.167Z" fill="#A1ADA6"/>
<path d="M216.351 145.508H189.745L193.686 136.616H212.411L216.351 145.508Z" stroke="#383939" stroke-width="3" stroke-miterlimit="10" stroke-linecap="round" stroke-linejoin="round"/>
<path d="M221.371 149.46H184.725L185.102 148.151C185.553 146.594 187.034 145.508 188.741 145.508H217.355C219.062 145.508 220.568 146.594 220.995 148.151L221.371 149.46Z" fill="#DAEDE2"/>
<path d="M221.371 149.46H184.725L185.102 148.151C185.553 146.594 187.034 145.508 188.741 145.508H217.355C219.062 145.508 220.568 146.594 220.995 148.151L221.371 149.46Z" stroke="#383939" stroke-width="3" stroke-miterlimit="10" stroke-linecap="round" stroke-linejoin="round"/>
<path d="M170.393 159.562H234.072C235.001 159.562 235.754 158.821 235.754 157.907C235.754 156.993 235.001 156.252 234.072 156.252H170.393C169.465 156.252 168.712 156.993 168.712 157.907C168.686 158.821 169.439 159.562 170.393 159.562Z" fill="#DAEDE2"/>
<path d="M170.393 159.562H234.072C235.001 159.562 235.754 158.821 235.754 157.907C235.754 156.993 235.001 156.252 234.072 156.252H170.393C169.465 156.252 168.712 156.993 168.712 157.907C168.686 158.821 169.439 159.562 170.393 159.562Z" stroke="#383939" stroke-width="3" stroke-miterlimit="10" stroke-linecap="round" stroke-linejoin="round"/>
<path d="M189.921 156.228H220.543V155.24C220.543 154.424 219.865 153.758 219.037 153.758H191.427C190.599 153.758 189.921 154.424 189.921 155.24V156.228Z" fill="#383939"/>
<path d="M183.847 156.228H189.168V155.24C189.168 154.424 188.49 153.758 187.662 153.758H185.353C184.524 153.758 183.847 154.424 183.847 155.24V156.228Z" fill="#383939"/>
<path d="M177.647 156.228H182.968V155.24C182.968 154.424 182.29 153.758 181.462 153.758H179.153C178.324 153.758 177.647 154.424 177.647 155.24V156.228Z" fill="#383939"/>
<path d="M227.646 156.228H232.968V155.24C232.968 154.424 232.29 153.758 231.462 153.758H229.152C228.324 153.758 227.646 154.424 227.646 155.24V156.228Z" fill="#383939"/>
<path d="M221.471 156.228H226.792V155.24C226.792 154.424 226.115 153.758 225.286 153.758H222.977C222.149 153.758 221.471 154.424 221.471 155.24V156.228Z" fill="#383939"/>
<path d="M171.472 156.228H176.794V155.24C176.794 154.424 176.116 153.758 175.288 153.758H172.978C172.15 153.758 171.472 154.424 171.472 155.24V156.228Z" fill="#383939"/>
<path d="M250.863 159.562C250.838 157.685 248.755 155.808 245.065 155.808C241.401 155.808 239.292 157.685 239.267 159.562H250.863Z" fill="#DAEDE2"/>
<path d="M250.863 159.562C250.838 157.685 248.755 155.808 245.065 155.808C241.401 155.808 239.292 157.685 239.267 159.562H250.863Z" stroke="#383939" stroke-width="3" stroke-miterlimit="10" stroke-linecap="round" stroke-linejoin="round"/>
<path d="M206.613 130.07C205.458 130.07 204.504 129.23 204.354 128.119C204.328 128.119 204.328 128.119 204.303 128.119C202.873 128.119 201.718 129.255 201.718 130.663C201.718 132.071 202.873 133.207 204.303 133.207C205.734 133.207 206.889 132.071 206.889 130.663C206.889 130.441 206.864 130.243 206.813 130.045C206.738 130.07 206.688 130.07 206.613 130.07Z" fill="#383939"/>
<path d="M205.784 99.1705C205.056 99.1705 204.429 98.6271 204.354 97.9355H204.328C203.425 97.9355 202.672 98.6765 202.672 99.5657C202.672 100.455 203.425 101.196 204.328 101.196C205.232 101.196 205.985 100.455 205.985 99.5657C205.985 99.4175 205.96 99.294 205.935 99.1705C205.86 99.1705 205.834 99.1705 205.784 99.1705Z" fill="#E7F7F7"/>
<path opacity="0.16" d="M172.778 119.82H182.366L203.349 79.3117H193.761L172.778 119.82Z" fill="#C2D3C9"/>
<path opacity="0.16" d="M190.122 119.82L211.105 79.3117H207.516L186.532 119.82H190.122Z" fill="#C2D3C9"/>
<g opacity="0.38">
<path d="M208.897 105.716H198.807C198.606 105.716 198.43 105.543 198.43 105.345C198.43 105.148 198.606 104.975 198.807 104.975H208.897C209.098 104.975 209.273 105.148 209.273 105.345C209.273 105.543 209.098 105.716 208.897 105.716Z" fill="#C2D3C9"/>
</g>
<path d="M202.296 104.975H198.807C198.606 104.975 198.43 105.148 198.43 105.345C198.43 105.543 198.606 105.716 198.807 105.716H202.296V104.975Z" fill="#C2D3C9"/>
</svg>
