<svg width="361" height="255" viewBox="0 0 361 255" fill="none" xmlns="http://www.w3.org/2000/svg">
<g filter="url(#filter0_d_398_4366)">
<rect x="55" width="251" height="247" rx="123.5" fill="#418154"/>
<path opacity="0.4" d="M254.152 163.66L219.591 185.107C217.823 186.204 215.833 186.906 213.759 187.164C211.686 187.422 209.58 187.23 207.591 186.601L169.707 174.617C167.705 173.984 165.586 173.793 163.5 174.059C161.414 174.324 159.414 175.039 157.641 176.152L129.906 193.575C129.055 194.104 128.09 194.431 127.089 194.529C126.087 194.627 125.076 194.495 124.136 194.141C123.195 193.788 122.351 193.224 121.671 192.494C120.991 191.764 120.493 190.888 120.217 189.935L96.2791 107.353C95.8954 106.029 95.9577 104.618 96.4567 103.332C96.9558 102.045 97.8648 100.952 99.0477 100.217L133.977 78.4934C135.913 77.289 138.095 76.5176 140.367 76.2335C142.64 75.9495 144.948 76.1598 147.129 76.8496L183.804 88.4507C185.993 89.143 188.31 89.3524 190.59 89.0639C192.871 88.7754 195.058 87.9961 196.998 86.7815L223.262 70.334C224.113 69.8013 225.078 69.4714 226.081 69.3706C227.085 69.2698 228.098 69.4008 229.04 69.7532C229.983 70.1056 230.829 70.6697 231.511 71.4006C232.193 72.1315 232.692 73.009 232.969 73.9632L256.903 156.534C257.286 157.855 257.225 159.262 256.729 160.546C256.233 161.83 255.329 162.922 254.152 163.66Z" fill="#CCCDCF"/>
<path d="M255.501 154.895L225.989 173.376C224.049 174.591 221.861 175.37 219.581 175.659C217.301 175.947 214.984 175.738 212.795 175.046L176.117 163.445C173.936 162.755 171.628 162.545 169.356 162.828C167.083 163.112 164.901 163.884 162.965 165.088L131.254 184.811C130.403 185.34 129.438 185.667 128.437 185.765C127.435 185.863 126.424 185.73 125.484 185.377C124.543 185.024 123.7 184.46 123.019 183.73C122.339 183 121.841 182.124 121.565 181.171L97.6274 98.5891C97.2435 97.2649 97.3058 95.854 97.8048 94.5675C98.3038 93.281 99.2128 92.1882 100.396 91.4525L135.323 69.7281C137.26 68.5238 139.441 67.7524 141.714 67.4684C143.986 67.1845 146.295 67.3948 148.476 68.0846L185.153 79.6859C187.342 80.3783 189.659 80.5876 191.939 80.2991C194.219 80.0106 196.407 79.2312 198.347 78.0164L224.611 61.5692C225.462 61.0365 226.427 60.7066 227.43 60.6058C228.433 60.505 229.447 60.636 230.389 60.9884C231.332 61.3409 232.178 61.905 232.86 62.6358C233.542 63.3667 234.041 64.2442 234.318 65.1984L258.252 147.769C258.635 149.09 258.574 150.497 258.078 151.781C257.583 153.066 256.679 154.158 255.501 154.895Z" fill="#D7F0E6"/>
<path d="M172.597 154.11L167.109 138.873L141.176 147.61L133.067 124.489L111.945 128.626L126.754 179.714C126.82 179.938 126.958 180.135 127.147 180.275C127.337 180.415 127.568 180.49 127.805 180.489C128.005 180.488 128.202 180.43 128.37 180.321L158.518 161.57C158.387 161.419 172.597 154.11 172.597 154.11Z" fill="#EAF4F7"/>
<path d="M255.501 154.895L225.989 173.376C224.049 174.591 221.861 175.37 219.581 175.659C217.301 175.947 214.984 175.738 212.795 175.046L176.117 163.445C173.936 162.755 171.628 162.545 169.356 162.828C167.083 163.112 164.901 163.884 162.965 165.088L131.254 184.811C130.403 185.34 129.438 185.667 128.437 185.765C127.435 185.863 126.424 185.73 125.484 185.377C124.543 185.024 123.7 184.46 123.019 183.73C122.339 183 121.841 182.124 121.565 181.171L97.6274 98.5891C97.2435 97.2649 97.3058 95.854 97.8048 94.5675C98.3038 93.281 99.2128 92.1882 100.396 91.4525L135.323 69.7281C137.26 68.5238 139.441 67.7524 141.714 67.4684C143.986 67.1845 146.295 67.3948 148.476 68.0846L185.153 79.6859C187.342 80.3783 189.659 80.5876 191.939 80.2991C194.219 80.0106 196.407 79.2312 198.347 78.0164L224.611 61.5692C225.462 61.0365 226.427 60.7066 227.43 60.6058C228.433 60.505 229.447 60.636 230.389 60.9884C231.332 61.3409 232.178 61.905 232.86 62.6358C233.542 63.3667 234.041 64.2442 234.318 65.1984L258.252 147.769C258.635 149.09 258.574 150.497 258.078 151.781C257.583 153.066 256.679 154.158 255.501 154.895Z" stroke="#363A5A" stroke-width="3" stroke-miterlimit="10"/>
<path d="M145.376 144.637C145.376 144.637 145.826 144.522 146.584 144.304" stroke="#363A5A" stroke-width="2" stroke-linecap="round" stroke-linejoin="round"/>
<path d="M150.233 143.154C155.563 141.33 163.384 137.981 163.478 134.021C163.604 128.76 137.693 102.439 151.623 100.847C198.13 95.5354 177.292 133.6 198.502 132.749C207.463 132.389 190.892 120.266 216.495 111.502C220.29 110.203 218.404 100.705 217.131 95.7384" stroke="#363A5A" stroke-width="2" stroke-linecap="round" stroke-linejoin="round" stroke-dasharray="5.09 7.63"/>
<path d="M216.639 93.9158C216.427 93.1706 216.287 92.7302 216.287 92.7302" stroke="#363A5A" stroke-width="2" stroke-linecap="round" stroke-linejoin="round"/>
<path opacity="0.22" d="M143.757 157.183C150.437 157.183 155.853 151.854 155.853 145.28C155.853 138.706 150.437 133.377 143.757 133.377C137.076 133.377 131.661 138.706 131.661 145.28C131.661 151.854 137.076 157.183 143.757 157.183Z" fill="#3DC0CB"/>
<path d="M143.757 152.183C147.631 152.183 150.771 149.092 150.771 145.28C150.771 141.468 147.631 138.377 143.757 138.377C139.883 138.377 136.742 141.468 136.742 145.28C136.742 149.092 139.883 152.183 143.757 152.183Z" fill="#3DC0CB"/>
<path d="M143.756 138.377C142.681 138.377 141.62 138.62 140.656 139.088C139.691 139.556 138.849 140.236 138.195 141.076C139.574 140.153 141.242 139.744 142.899 139.923C144.557 140.101 146.095 140.854 147.239 142.048C148.383 143.242 149.058 144.797 149.142 146.436C149.226 148.075 148.714 149.689 147.698 150.99C148.939 150.16 149.877 148.961 150.374 147.568C150.871 146.176 150.902 144.662 150.461 143.251C150.02 141.84 149.131 140.605 147.924 139.728C146.718 138.851 145.257 138.377 143.757 138.377H143.756Z" fill="#64C7CF"/>
<path d="M143.757 152.183C147.631 152.183 150.771 149.092 150.771 145.28C150.771 141.468 147.631 138.377 143.757 138.377C139.883 138.377 136.742 141.468 136.742 145.28C136.742 149.092 139.883 152.183 143.757 152.183Z" stroke="#363A5A" stroke-width="3" stroke-miterlimit="10"/>
<path d="M146.953 83.6935L167.072 87.4461L162.452 79.4552L145.8 73.7384C144.837 73.4078 143.818 73.2671 142.799 73.3244C141.781 73.3817 140.784 73.6359 139.865 74.0723L103.278 95.9424C103.081 96.0657 102.93 96.2479 102.847 96.4621C102.764 96.6764 102.753 96.9112 102.816 97.132L108.717 117.488L124.803 113.574L121.849 101.912L146.953 83.6935Z" fill="#87D5F7" stroke="#259AD6" stroke-width="2" stroke-linecap="round" stroke-linejoin="round"/>
<path d="M178.836 134.103L190.316 136.948L195.867 149.466L183.499 147.471L178.836 134.103Z" fill="#FDDCBF" stroke="#ECB072" stroke-width="2" stroke-linecap="round" stroke-linejoin="round"/>
<path d="M216.5 96.6042C207.174 96.6042 199.613 93.9425 199.613 90.6592C199.613 87.3758 207.174 84.7139 216.5 84.7139C225.826 84.7139 233.387 87.3758 233.387 90.6592C233.387 93.9425 225.826 96.6042 216.5 96.6042Z" fill="#EAF4F7"/>
<path d="M221.799 130.289L242.865 121.265L251.186 146.214L217.075 165.291L210.823 147.927L224.161 140.543L221.799 130.289Z" fill="#FDDCBF" stroke="#ECB072" stroke-width="2" stroke-linecap="round" stroke-linejoin="round"/>
<path d="M241.363 61.6712C241.363 47.3946 229.588 35.8982 215.319 36.5656C202.543 37.1634 191.652 47.8738 191.652 60.8023C191.652 79.5044 216.501 93.925 216.501 93.925C216.501 93.925 241.363 79.5044 241.363 61.6712Z" fill="#EE4637"/>
<path d="M225.576 86.6881C223.617 88.1923 221.201 89.0054 218.716 88.997C216.23 88.9886 213.82 88.1591 211.871 86.6417C204.517 80.9113 193.88 70.5069 193.88 58.2712C193.899 53.0761 195.645 48.0298 198.852 43.9033C194.441 48.2865 191.651 54.26 191.651 60.8023C191.651 79.5044 216.5 93.925 216.5 93.925C216.5 93.925 226.634 88.0464 233.963 79.1544C231.376 81.8819 228.571 84.4012 225.576 86.6881Z" fill="#CD3C27"/>
<path d="M215.318 36.5656C210.839 36.7927 206.508 38.2211 202.793 40.6962C205.718 39.3083 208.896 38.5116 212.139 38.3534C226.408 37.6865 238.183 49.1821 238.183 63.459C238.183 77.4417 222.899 89.3258 216.298 93.8061C216.428 93.8837 216.499 93.9257 216.499 93.9257C216.499 93.9257 241.362 79.5043 241.362 61.6712C241.362 47.3946 229.587 35.8982 215.318 36.5656Z" fill="#F07378"/>
<path d="M216.5 71.2854C214.477 71.2855 212.499 70.6951 210.817 69.589C209.134 68.4829 207.823 66.9107 207.049 65.0713C206.274 63.2318 206.072 61.2077 206.467 59.2549C206.861 57.3022 207.836 55.5084 209.266 54.1005C210.697 52.6927 212.52 51.7339 214.504 51.3454C216.488 50.957 218.545 51.1563 220.414 51.9182C222.284 52.6802 223.881 53.9704 225.005 55.6259C226.13 57.2814 226.73 59.2277 226.73 61.2187C226.73 63.8885 225.652 66.449 223.733 68.3369C221.815 70.2248 219.213 71.2854 216.5 71.2854Z" fill="#D7F0E6"/>
<path d="M216.5 71.2855C214.477 71.2855 212.499 70.6951 210.817 69.589C209.134 68.4829 207.823 66.9107 207.049 65.0713C206.274 63.2318 206.072 61.2077 206.467 59.2549C206.861 57.3022 207.836 55.5084 209.266 54.1005C210.697 52.6927 212.52 51.7339 214.504 51.3454C216.488 50.957 218.545 51.1563 220.414 51.9182C222.284 52.6802 223.881 53.9704 225.005 55.6259C226.13 57.2814 226.73 59.2277 226.73 61.2187C226.73 63.8885 225.652 66.449 223.733 68.3369C221.815 70.2248 219.213 71.2854 216.5 71.2855Z" stroke="#363A5A" stroke-width="3" stroke-miterlimit="10"/>
<path d="M241.363 61.6712C241.363 47.3946 229.588 35.8982 215.319 36.5656C202.543 37.1634 191.652 47.8738 191.652 60.8023C191.652 79.5044 216.501 93.925 216.501 93.925C216.501 93.925 241.363 79.5044 241.363 61.6712Z" stroke="#363A5A" stroke-width="3" stroke-linecap="round" stroke-linejoin="round"/>
</g>
<defs>
<filter id="filter0_d_398_4366" x="-4" y="0" width="369" height="255" filterUnits="userSpaceOnUse" color-interpolation-filters="sRGB">
<feFlood flood-opacity="0" result="BackgroundImageFix"/>
<feColorMatrix in="SourceAlpha" type="matrix" values="0 0 0 0 0 0 0 0 0 0 0 0 0 0 0 0 0 0 127 0" result="hardAlpha"/>
<feOffset dy="4"/>
<feGaussianBlur stdDeviation="2"/>
<feComposite in2="hardAlpha" operator="out"/>
<feColorMatrix type="matrix" values="0 0 0 0 0 0 0 0 0 0 0 0 0 0 0 0 0 0 0.25 0"/>
<feBlend mode="normal" in2="BackgroundImageFix" result="effect1_dropShadow_398_4366"/>
<feBlend mode="normal" in="SourceGraphic" in2="effect1_dropShadow_398_4366" result="shape"/>
</filter>
</defs>
</svg>
