<svg width="251" height="247" viewBox="0 0 251 247" fill="none" xmlns="http://www.w3.org/2000/svg">
<rect width="251" height="247" rx="123.5" fill="#E1C512"/>
<path opacity="0.4" d="M199.151 163.66L164.591 185.107C162.823 186.204 160.832 186.906 158.759 187.164C156.686 187.422 154.58 187.23 152.591 186.601L114.707 174.617C112.705 173.984 110.585 173.793 108.5 174.059C106.414 174.324 104.414 175.039 102.641 176.152L74.9054 193.575C74.0545 194.104 73.09 194.431 72.0884 194.529C71.0868 194.627 70.0758 194.495 69.1354 194.141C68.1951 193.788 67.3513 193.224 66.6711 192.494C65.9909 191.764 65.493 190.888 65.2168 189.935L41.2789 107.353C40.8952 106.029 40.9575 104.618 41.4566 103.332C41.9556 102.045 42.8646 100.952 44.0475 100.217L78.9766 78.4934C80.9131 77.289 83.0947 76.5176 85.3673 76.2335C87.6398 75.9495 89.9481 76.1598 92.129 76.8496L128.804 88.4507C130.993 89.143 133.31 89.3524 135.59 89.0639C137.87 88.7754 140.058 87.9961 141.998 86.7815L168.262 70.334C169.113 69.8013 170.078 69.4714 171.081 69.3706C172.084 69.2698 173.098 69.4008 174.04 69.7532C174.983 70.1056 175.829 70.6697 176.511 71.4006C177.193 72.1315 177.692 73.009 177.969 73.9632L201.903 156.534C202.286 157.855 202.225 159.262 201.729 160.546C201.233 161.83 200.329 162.922 199.151 163.66Z" fill="#CCCDCF"/>
<path d="M200.501 154.895L170.989 173.376C169.049 174.591 166.862 175.37 164.581 175.659C162.301 175.947 159.984 175.738 157.795 175.046L121.118 163.445C118.937 162.755 116.628 162.545 114.356 162.828C112.083 163.112 109.902 163.884 107.965 165.088L76.2539 184.811C75.403 185.34 74.4385 185.667 73.4369 185.765C72.4353 185.863 71.4242 185.73 70.4839 185.377C69.5435 185.024 68.6998 184.46 68.0196 183.73C67.3394 183 66.8414 182.124 66.5653 181.171L42.6276 98.5891C42.2438 97.2649 42.306 95.854 42.805 94.5675C43.3041 93.281 44.213 92.1882 45.3959 91.4525L80.3234 69.7281C82.2599 68.5238 84.4415 67.7524 86.7141 67.4684C88.9866 67.1845 91.2949 67.3948 93.4758 68.0846L130.153 79.6859C132.342 80.3783 134.659 80.5876 136.939 80.2991C139.22 80.0106 141.407 79.2312 143.347 78.0164L169.611 61.5692C170.462 61.0365 171.427 60.7066 172.431 60.6058C173.434 60.505 174.447 60.636 175.389 60.9884C176.332 61.3409 177.178 61.905 177.86 62.6358C178.542 63.3667 179.041 64.2442 179.318 65.1984L203.252 147.769C203.635 149.09 203.574 150.497 203.079 151.781C202.583 153.066 201.679 154.158 200.501 154.895Z" fill="white"/>
<path d="M117.597 154.11L112.109 138.873L86.1762 147.61L78.0671 124.489L56.9452 128.626L71.7542 179.714C71.8197 179.938 71.9576 180.135 72.1472 180.275C72.3367 180.415 72.5675 180.49 72.8044 180.489C73.0053 180.488 73.2017 180.43 73.3694 180.321L103.518 161.57C103.387 161.419 117.597 154.11 117.597 154.11Z" fill="#EAF4F7"/>
<path d="M200.501 154.895L170.989 173.376C169.049 174.591 166.862 175.37 164.581 175.659C162.301 175.947 159.984 175.738 157.795 175.046L121.118 163.445C118.937 162.755 116.628 162.545 114.356 162.828C112.083 163.112 109.902 163.884 107.965 165.088L76.2539 184.811C75.403 185.34 74.4385 185.667 73.4369 185.765C72.4353 185.863 71.4242 185.73 70.4839 185.377C69.5435 185.024 68.6998 184.46 68.0196 183.73C67.3394 183 66.8414 182.124 66.5653 181.171L42.6276 98.5891C42.2438 97.2649 42.306 95.854 42.805 94.5675C43.3041 93.281 44.213 92.1882 45.3959 91.4525L80.3234 69.7281C82.2599 68.5238 84.4415 67.7524 86.7141 67.4684C88.9866 67.1845 91.2949 67.3948 93.4758 68.0846L130.153 79.6859C132.342 80.3783 134.659 80.5876 136.939 80.2991C139.22 80.0106 141.407 79.2312 143.347 78.0164L169.611 61.5692C170.462 61.0365 171.427 60.7066 172.431 60.6058C173.434 60.505 174.447 60.636 175.389 60.9884C176.332 61.3409 177.178 61.905 177.86 62.6358C178.542 63.3667 179.041 64.2442 179.318 65.1984L203.252 147.769C203.635 149.09 203.574 150.497 203.079 151.781C202.583 153.066 201.679 154.158 200.501 154.895Z" stroke="#363A5A" stroke-width="3" stroke-miterlimit="10"/>
<path d="M90.3765 144.637C90.3765 144.637 90.8263 144.522 91.5843 144.304" stroke="#363A5A" stroke-width="2" stroke-linecap="round" stroke-linejoin="round"/>
<path d="M95.2336 143.154C100.563 141.33 108.384 137.981 108.478 134.021C108.604 128.76 82.6926 102.439 96.6229 100.847C143.13 95.5354 122.292 133.6 143.503 132.749C152.463 132.389 135.892 120.266 161.495 111.502C165.29 110.203 163.405 100.705 162.131 95.7384" stroke="#363A5A" stroke-width="2" stroke-linecap="round" stroke-linejoin="round" stroke-dasharray="5.09 7.63"/>
<path d="M161.639 93.9158C161.427 93.1706 161.287 92.7302 161.287 92.7302" stroke="#363A5A" stroke-width="2" stroke-linecap="round" stroke-linejoin="round"/>
<path opacity="0.22" d="M88.7566 157.183C95.4371 157.183 100.853 151.854 100.853 145.28C100.853 138.706 95.4371 133.377 88.7566 133.377C82.076 133.377 76.6604 138.706 76.6604 145.28C76.6604 151.854 82.076 157.183 88.7566 157.183Z" fill="#3DC0CB"/>
<path d="M88.7566 152.183C92.6306 152.183 95.7711 149.092 95.7711 145.28C95.7711 141.468 92.6306 138.377 88.7566 138.377C84.8827 138.377 81.7422 141.468 81.7422 145.28C81.7422 149.092 84.8827 152.183 88.7566 152.183Z" fill="#3DC0CB"/>
<path d="M88.7564 138.377C87.681 138.377 86.62 138.62 85.6555 139.088C84.691 139.556 83.849 140.236 83.1947 141.076C84.5737 140.153 86.2414 139.744 87.8989 139.923C89.5564 140.101 91.0952 140.854 92.2392 142.048C93.3833 143.242 94.0578 144.797 94.1418 146.436C94.2258 148.075 93.7138 149.689 92.6976 150.99C93.9385 150.16 94.8766 148.961 95.3739 147.568C95.8712 146.176 95.9017 144.662 95.4608 143.251C95.0199 141.84 94.1309 140.605 92.9243 139.728C91.7177 138.851 90.2571 138.377 88.7569 138.377H88.7564Z" fill="#64C7CF"/>
<path d="M88.7566 152.183C92.6306 152.183 95.7711 149.092 95.7711 145.28C95.7711 141.468 92.6306 138.377 88.7566 138.377C84.8827 138.377 81.7422 141.468 81.7422 145.28C81.7422 149.092 84.8827 152.183 88.7566 152.183Z" stroke="#363A5A" stroke-width="3" stroke-miterlimit="10"/>
<path d="M91.9532 83.6935L112.072 87.4461L107.451 79.4552L90.8003 73.7384C89.8373 73.4078 88.8175 73.2671 87.7991 73.3244C86.7808 73.3817 85.7839 73.6359 84.8654 74.0723L48.2778 95.9424C48.0813 96.0657 47.9304 96.2479 47.8472 96.4621C47.7641 96.6764 47.7532 96.9112 47.8162 97.132L53.7168 117.488L69.8031 113.574L66.8489 101.912L91.9532 83.6935Z" fill="#87D5F7" stroke="#259AD6" stroke-width="2" stroke-linecap="round" stroke-linejoin="round"/>
<path d="M123.836 134.103L135.316 136.948L140.867 149.466L128.499 147.471L123.836 134.103Z" fill="#FDDCBF" stroke="#ECB072" stroke-width="2" stroke-linecap="round" stroke-linejoin="round"/>
<path d="M161.5 96.6042C152.174 96.6042 144.613 93.9425 144.613 90.6592C144.613 87.3758 152.174 84.7139 161.5 84.7139C170.826 84.7139 178.386 87.3758 178.386 90.6592C178.386 93.9425 170.826 96.6042 161.5 96.6042Z" fill="#EAF4F7"/>
<path d="M166.799 130.289L187.864 121.265L196.186 146.214L162.075 165.291L155.823 147.927L169.161 140.543L166.799 130.289Z" fill="#FDDCBF" stroke="#ECB072" stroke-width="2" stroke-linecap="round" stroke-linejoin="round"/>
<path d="M186.363 61.6712C186.363 47.3946 174.588 35.8982 160.319 36.5656C147.543 37.1634 136.652 47.8738 136.652 60.8023C136.652 79.5044 161.501 93.925 161.501 93.925C161.501 93.925 186.363 79.5044 186.363 61.6712Z" fill="#EE4637"/>
<path d="M170.576 86.6881C168.616 88.1923 166.2 89.0054 163.715 88.997C161.23 88.9886 158.82 88.1591 156.871 86.6417C149.517 80.9113 138.88 70.5069 138.88 58.2712C138.899 53.0761 140.645 48.0298 143.852 43.9033C139.441 48.2865 136.651 54.26 136.651 60.8023C136.651 79.5044 161.5 93.925 161.5 93.925C161.5 93.925 171.634 88.0464 178.962 79.1544C176.376 81.8819 173.571 84.4012 170.576 86.6881Z" fill="#CD3C27"/>
<path d="M160.318 36.5656C155.839 36.7927 151.508 38.2211 147.793 40.6962C150.718 39.3083 153.896 38.5116 157.139 38.3534C171.408 37.6865 183.183 49.1821 183.183 63.459C183.183 77.4417 167.899 89.3258 161.298 93.8061C161.428 93.8837 161.499 93.9257 161.499 93.9257C161.499 93.9257 186.362 79.5043 186.362 61.6712C186.362 47.3946 174.587 35.8982 160.318 36.5656Z" fill="#F07378"/>
<path d="M161.5 71.2854C159.477 71.2855 157.499 70.6951 155.816 69.589C154.134 68.4829 152.823 66.9107 152.049 65.0713C151.274 63.2318 151.072 61.2077 151.466 59.2549C151.861 57.3022 152.835 55.5084 154.266 54.1005C155.697 52.6927 157.519 51.7339 159.504 51.3454C161.488 50.957 163.545 51.1563 165.414 51.9182C167.284 52.6802 168.881 53.9704 170.005 55.6259C171.129 57.2814 171.729 59.2277 171.729 61.2187C171.729 63.8885 170.652 66.449 168.733 68.3369C166.815 70.2248 164.213 71.2854 161.5 71.2854Z" fill="white"/>
<path d="M161.5 71.2855C159.477 71.2855 157.499 70.6951 155.816 69.589C154.134 68.4829 152.823 66.9107 152.049 65.0713C151.274 63.2318 151.072 61.2077 151.466 59.2549C151.861 57.3022 152.835 55.5084 154.266 54.1005C155.697 52.6927 157.519 51.7339 159.504 51.3454C161.488 50.957 163.545 51.1563 165.414 51.9182C167.284 52.6802 168.881 53.9704 170.005 55.6259C171.129 57.2814 171.729 59.2277 171.729 61.2187C171.729 63.8885 170.652 66.449 168.733 68.3369C166.815 70.2248 164.213 71.2854 161.5 71.2855Z" stroke="#363A5A" stroke-width="3" stroke-miterlimit="10"/>
<path d="M186.363 61.6712C186.363 47.3946 174.588 35.8982 160.319 36.5656C147.543 37.1634 136.652 47.8738 136.652 60.8023C136.652 79.5044 161.501 93.925 161.501 93.925C161.501 93.925 186.363 79.5044 186.363 61.6712Z" stroke="#363A5A" stroke-width="3" stroke-linecap="round" stroke-linejoin="round"/>
</svg>
