<svg width="407" height="255" viewBox="0 0 407 255" fill="none" xmlns="http://www.w3.org/2000/svg">
<g filter="url(#filter0_d_398_4263)">
<rect x="81" width="251" height="247" rx="123.5" fill="#418154"/>
<path d="M206.5 174.95C231.813 174.95 252.333 172.429 252.333 169.318C252.333 166.208 231.813 163.687 206.5 163.687C181.187 163.687 160.667 166.208 160.667 169.318C160.667 172.429 181.187 174.95 206.5 174.95Z" fill="#418154"/>
<path d="M196.334 165.342V163.514C196.334 162.699 195.657 162.032 194.828 162.032H178.262C177.434 162.032 176.756 162.699 176.756 163.514V168.948C176.756 169.763 177.434 170.43 178.262 170.43H189.281C190.486 170.43 191.641 169.961 192.494 169.121L196.334 165.342Z" fill="#92D6E9"/>
<path opacity="0.3" d="M194.828 162.032H178.262C177.434 162.032 176.756 162.699 176.756 163.514V168.553H193.071L196.334 165.342V163.514C196.334 162.699 195.657 162.032 194.828 162.032Z" fill="#0A1E2B" stroke="#0A1E2B" stroke-width="3" stroke-miterlimit="10" stroke-linecap="round" stroke-linejoin="round"/>
<path d="M216.666 165.342V163.514C216.666 162.699 217.343 162.032 218.172 162.032H234.738C235.566 162.032 236.244 162.699 236.244 163.514V168.948C236.244 169.763 235.566 170.43 234.738 170.43H223.719C222.514 170.43 221.359 169.961 220.506 169.121L216.666 165.342Z" fill="#92D6E9"/>
<path opacity="0.3" d="M234.738 162.032H218.172C217.343 162.032 216.666 162.699 216.666 163.514V165.342L219.929 168.553H236.244V163.514C236.244 162.699 235.566 162.032 234.738 162.032Z" fill="#0A1E2B" stroke="#0A1E2B" stroke-width="3" stroke-miterlimit="10" stroke-linecap="round" stroke-linejoin="round"/>
<path d="M196.334 165.342V163.514C196.334 162.699 195.657 162.032 194.828 162.032H178.262C177.434 162.032 176.756 162.699 176.756 163.514V168.948C176.756 169.763 177.434 170.43 178.262 170.43H189.281C190.486 170.43 191.641 169.961 192.494 169.121L196.334 165.342Z" stroke="#418154" stroke-width="3" stroke-miterlimit="10" stroke-linecap="round" stroke-linejoin="round"/>
<path d="M216.666 165.342V163.514C216.666 162.699 217.343 162.032 218.172 162.032H234.738C235.566 162.032 236.244 162.699 236.244 163.514V168.948C236.244 169.763 235.566 170.43 234.738 170.43H223.719C222.514 170.43 221.359 169.961 220.506 169.121L216.666 165.342Z" stroke="#418154" stroke-width="3" stroke-miterlimit="10" stroke-linecap="round" stroke-linejoin="round"/>
<path d="M239.13 165.366H173.87C168.323 165.366 163.83 160.945 163.83 155.486V91.2665C163.83 85.8078 168.323 81.3865 173.87 81.3865H239.13C244.677 81.3865 249.17 85.8078 249.17 91.2665V155.486C249.17 160.945 244.677 165.366 239.13 165.366Z" fill="#CBEDF9"/>
<path d="M239.13 81.3865H173.87C168.323 81.3865 163.83 85.8078 163.83 91.2665V96.9475C163.83 91.4888 168.323 87.0675 173.87 87.0675H239.13C244.677 87.0675 249.17 91.4888 249.17 96.9475V91.2665C249.17 85.8078 244.677 81.3865 239.13 81.3865Z" fill="#E8F9FF"/>
<path d="M239.13 159.686H173.87C168.323 159.686 163.83 155.264 163.83 149.806V155.487C163.83 160.945 168.323 165.367 173.87 165.367H239.13C244.677 165.367 249.17 160.945 249.17 155.487V149.806C249.17 155.264 244.677 159.686 239.13 159.686Z" fill="#92D6E9"/>
<path opacity="0.23" d="M173.544 155.264L182.68 165.367H199.748L210.767 165.292L208.584 149.213L173.544 155.264Z" fill="#0A1E2B" stroke="#0A1E2B" stroke-width="3" stroke-miterlimit="10" stroke-linecap="round" stroke-linejoin="round"/>
<path d="M176.882 156.475C174.673 156.475 172.866 154.696 172.866 152.523V94.2305C172.866 92.0569 174.673 90.2785 176.882 90.2785H236.118C238.327 90.2785 240.134 92.0569 240.134 94.2305V152.523C240.134 154.696 238.327 156.475 236.118 156.475H176.882Z" fill="#92D6E9"/>
<path d="M240.134 94.2305V152.523C240.134 154.696 238.327 156.475 236.118 156.475H176.882C174.673 156.475 172.866 154.696 172.866 152.523V94.2305C172.866 92.0569 174.673 90.2785 176.882 90.2785H208.86C209.989 90.7972 210.767 91.9581 210.767 93.2178V95.7619H231.5C232.152 95.7619 232.755 96.0336 233.181 96.4535L238.377 90.9701C239.431 91.6617 240.134 92.872 240.134 94.2305Z" stroke="#418154" stroke-width="3" stroke-miterlimit="10" stroke-linecap="round" stroke-linejoin="round"/>
<path opacity="0.23" d="M229.316 146.199L243.02 153.757L245.781 145.31L238.377 140.321L229.316 146.199Z" fill="#0A1E2B" stroke="#0A1E2B" stroke-width="3" stroke-miterlimit="10" stroke-linecap="round" stroke-linejoin="round"/>
<path d="M238.377 90.9701L233.181 96.4535C232.755 96.0336 232.152 95.7619 231.5 95.7619H210.767V93.2178C210.767 91.9581 209.964 90.7972 208.859 90.2785H236.118C236.946 90.2785 237.75 90.5255 238.377 90.9701Z" fill="#53ADBC"/>
<path d="M238.377 90.9701L233.181 96.4535C232.755 96.0336 232.152 95.7619 231.5 95.7619H210.767V93.2178C210.767 91.9581 209.964 90.7972 208.859 90.2785H236.118C236.946 90.2785 237.75 90.5255 238.377 90.9701Z" stroke="#418154" stroke-width="3" stroke-miterlimit="10" stroke-linecap="round" stroke-linejoin="round"/>
<path d="M233.182 96.4288C233.609 96.8487 233.885 97.4415 233.885 98.0837V147.212C233.885 148.645 232.705 149.781 231.274 149.781H210.768" stroke="#418154" stroke-width="3" stroke-miterlimit="10" stroke-linecap="round" stroke-linejoin="round"/>
<path d="M247.162 138.987L242.619 127.403C242.368 126.736 241.59 126.415 240.912 126.662L229.793 130.91L218.673 135.134C217.996 135.381 217.669 136.146 217.92 136.813L222.463 148.398C222.714 149.065 223.492 149.386 224.17 149.139L235.29 144.915L246.409 140.691C247.087 140.395 247.438 139.654 247.162 138.987Z" fill="#5F9E71" stroke="#418154" stroke-width="3" stroke-miterlimit="10" stroke-linecap="round" stroke-linejoin="round"/>
<path d="M247.162 138.987L242.619 127.403C242.368 126.736 241.59 126.415 240.912 126.662L229.793 130.91L218.673 135.134C217.996 135.381 217.669 136.146 217.92 136.813L222.463 148.398C222.714 149.065 223.492 149.386 224.17 149.139L235.29 144.915L246.409 140.691C247.087 140.395 247.438 139.654 247.162 138.987Z" stroke="#418154" stroke-width="3" stroke-miterlimit="10" stroke-linecap="round" stroke-linejoin="round"/>
<path d="M243.974 138.419L242.795 135.43C242.092 135.702 241.314 135.356 241.038 134.664C240.761 133.973 241.113 133.207 241.816 132.935L240.636 129.947C240.485 129.601 240.084 129.403 239.732 129.551L230.847 132.935L230.646 133.009L221.761 136.393C221.409 136.542 221.209 136.937 221.359 137.283L222.539 140.271C223.242 140 224.02 140.345 224.296 141.037C224.572 141.729 224.221 142.494 223.518 142.766L224.697 145.755C224.848 146.1 225.25 146.298 225.601 146.15L234.486 142.766L234.687 142.692L243.573 139.308C243.924 139.184 244.1 138.789 243.974 138.419Z" fill="#90C49E"/>
<path d="M233.727 140.962C235.369 140.338 236.161 138.459 235.496 136.767C234.831 135.075 232.961 134.21 231.319 134.834C229.677 135.459 228.885 137.337 229.55 139.029C230.215 140.722 232.085 141.587 233.727 140.962Z" fill="#418154"/>
<path opacity="0.23" d="M227.057 140.321L235.968 128.564L235.616 117.078L227.057 140.321Z" fill="#0A1E2B" stroke="#0A1E2B" stroke-width="3" stroke-miterlimit="10" stroke-linecap="round" stroke-linejoin="round"/>
<path d="M221.51 141.284H217.519L219.075 146.817L219.803 148.669L221.51 141.284Z" fill="#A78B75"/>
<path d="M216.264 149.806H207.906C206.349 149.806 205.396 148.546 205.772 147.113L207.002 142.272C207.203 141.432 208.232 140.815 209.286 140.815H214.934C215.988 140.815 216.992 141.432 217.218 142.272L218.448 147.113C218.774 148.521 217.82 149.806 216.264 149.806Z" fill="#FFE07D"/>
<path d="M218.422 147.113L217.192 142.272C216.992 141.432 215.963 140.815 214.908 140.815H209.261C208.207 140.815 207.203 141.432 206.977 142.272L206.952 142.396C207.178 142.346 207.403 142.321 207.629 142.321H213.277C214.331 142.321 215.335 142.939 215.561 143.779L216.791 148.62C216.891 149.015 216.891 149.41 216.791 149.756C218.021 149.509 218.724 148.373 218.422 147.113Z" fill="#FFE8A6"/>
<path d="M216.264 149.806H207.906C206.349 149.806 205.396 148.546 205.772 147.113L207.002 142.272C207.203 141.432 208.232 140.815 209.286 140.815H214.934C215.988 140.815 216.992 141.432 217.218 142.272L218.448 147.113C218.774 148.521 217.82 149.806 216.264 149.806Z" stroke="#418154" stroke-width="3" stroke-miterlimit="10" stroke-linecap="round" stroke-linejoin="round"/>
<path d="M209.863 140.815H201.505C199.948 140.815 198.995 139.555 199.371 138.122L200.601 133.281C200.802 132.441 201.831 131.824 202.885 131.824H208.508C209.562 131.824 210.566 132.441 210.792 133.281L212.022 138.122C212.373 139.53 211.419 140.815 209.863 140.815Z" fill="#FFE07D"/>
<path d="M209.863 140.815H201.505C199.948 140.815 198.995 139.555 199.371 138.122L200.601 133.281C200.802 132.441 201.831 131.824 202.885 131.824H208.508C209.562 131.824 210.566 132.441 210.792 133.281L212.022 138.122C212.373 139.53 211.419 140.815 209.863 140.815Z" stroke="#418154" stroke-width="3" stroke-miterlimit="10" stroke-linecap="round" stroke-linejoin="round"/>
<path d="M234.838 116.312L223.016 111.965C222.338 111.718 221.585 112.064 221.334 112.731L217.168 123.722L213.001 134.714C212.75 135.381 213.101 136.122 213.779 136.369L225.601 140.716C226.279 140.963 227.032 140.617 227.283 139.95L231.45 128.959L235.616 117.967C235.867 117.3 235.516 116.559 234.838 116.312Z" fill="#5F9E71" stroke="#418154" stroke-width="3" stroke-miterlimit="10" stroke-linecap="round" stroke-linejoin="round"/>
<path d="M232.278 118.288L229.241 117.177C228.99 117.868 228.187 118.214 227.484 117.967C226.781 117.72 226.43 116.93 226.681 116.238L223.644 115.127C223.267 115.003 222.866 115.176 222.74 115.522L219.402 124.315L219.326 124.513L215.988 133.306C215.863 133.676 216.038 134.072 216.39 134.195L219.427 135.307C219.678 134.615 220.481 134.269 221.184 134.516C221.887 134.763 222.238 135.554 221.987 136.245L225.024 137.357C225.401 137.48 225.802 137.307 225.928 136.962L229.266 128.168L229.341 127.971L232.68 119.178C232.83 118.832 232.655 118.437 232.278 118.288Z" fill="#90C49E"/>
<path d="M227.411 127.476C228.026 125.853 227.125 124.023 225.398 123.388C223.67 122.754 221.771 123.555 221.155 125.178C220.54 126.801 221.441 128.632 223.168 129.266C224.896 129.901 226.795 129.099 227.411 127.476Z" fill="#418154"/>
<path d="M234.838 116.312L223.016 111.965C222.338 111.718 221.585 112.064 221.334 112.731L217.168 123.722L213.001 134.714C212.75 135.381 213.101 136.122 213.779 136.369L225.601 140.716C226.279 140.963 227.032 140.617 227.283 139.95L231.45 128.959L235.616 117.967C235.867 117.3 235.516 116.559 234.838 116.312Z" stroke="#418154" stroke-width="3" stroke-miterlimit="10" stroke-linecap="round" stroke-linejoin="round"/>
<path d="M215.988 132.54L211.093 132.318L212.524 137.208L214.281 139.925L215.988 132.54Z" fill="#A78B75"/>
<path d="M223.543 140.815H215.185C213.629 140.815 212.675 139.555 213.051 138.122L214.281 133.281C214.482 132.441 215.511 131.824 216.565 131.824H222.213C223.267 131.824 224.271 132.441 224.497 133.281L225.727 138.122C226.053 139.53 225.099 140.815 223.543 140.815Z" fill="#FFE07D"/>
<path d="M225.676 138.122L224.446 133.281C224.245 132.441 223.216 131.824 222.162 131.824H216.54C215.485 131.824 214.481 132.441 214.255 133.281L214.18 133.578C214.481 133.479 214.783 133.405 215.109 133.405H220.756C221.811 133.405 222.815 134.022 223.04 134.862L224.27 139.703C224.346 140.049 224.371 140.37 224.321 140.691C225.4 140.345 225.977 139.283 225.676 138.122Z" fill="#FFE8A6"/>
<path d="M223.543 140.815H215.185C213.629 140.815 212.675 139.555 213.051 138.122L214.281 133.281C214.482 132.441 215.511 131.824 216.565 131.824H222.213C223.267 131.824 224.271 132.441 224.497 133.281L225.727 138.122C226.053 139.53 225.099 140.815 223.543 140.815Z" stroke="#418154" stroke-width="3" stroke-miterlimit="10" stroke-linecap="round" stroke-linejoin="round"/>
<path d="M217.092 131.824H208.734C207.177 131.824 206.224 130.564 206.6 129.132L207.83 124.29C208.031 123.451 209.06 122.833 210.114 122.833H215.762C216.816 122.833 217.82 123.451 218.046 124.29L219.276 129.132C219.577 130.54 218.648 131.824 217.092 131.824Z" fill="#FFE07D"/>
<path d="M219.226 129.132L217.996 124.29C217.795 123.451 216.766 122.833 215.712 122.833H210.064C209.01 122.833 208.006 123.451 207.78 124.29V124.34C208.031 124.266 208.307 124.216 208.583 124.216H214.231C215.285 124.216 216.289 124.834 216.515 125.674L217.745 130.515C217.845 130.935 217.845 131.355 217.72 131.725C218.9 131.429 219.527 130.342 219.226 129.132Z" fill="#FFE8A6"/>
<path d="M217.092 131.824H208.734C207.177 131.824 206.224 130.564 206.6 129.132L207.83 124.29C208.031 123.451 209.06 122.833 210.114 122.833H215.762C216.816 122.833 217.82 123.451 218.046 124.29L219.276 129.132C219.577 130.54 218.648 131.824 217.092 131.824Z" stroke="#418154" stroke-width="3" stroke-miterlimit="10" stroke-linecap="round" stroke-linejoin="round"/>
<path opacity="0.23" d="M236.118 90.2785H195.406L196.585 126.242H218.648L235.616 117.078L240.134 100.578V94.2305C240.134 92.0322 238.327 90.2785 236.118 90.2785Z" fill="#0A1E2B" stroke="#0A1E2B" stroke-width="3" stroke-miterlimit="10" stroke-linecap="round" stroke-linejoin="round"/>
<path d="M230.32 149.806H221.962C220.406 149.806 219.452 148.546 219.828 147.113L221.058 142.272C221.259 141.432 222.288 140.815 223.342 140.815H228.99C230.044 140.815 231.048 141.432 231.274 142.272L232.504 147.113C232.83 148.521 231.876 149.806 230.32 149.806Z" fill="#FFE07D"/>
<path d="M232.453 147.113L231.223 142.272C231.022 141.432 229.993 140.815 228.939 140.815H223.317C222.262 140.815 221.258 141.432 221.033 142.272L220.932 142.692C221.208 142.593 221.509 142.544 221.811 142.544H227.458C228.512 142.544 229.516 143.161 229.742 144.001L230.972 148.842C231.047 149.139 231.073 149.435 231.022 149.707C232.152 149.386 232.754 148.299 232.453 147.113Z" fill="#FFE8A6"/>
<path d="M230.32 149.806H221.962C220.406 149.806 219.452 148.546 219.828 147.113L221.058 142.272C221.259 141.432 222.288 140.815 223.342 140.815H228.99C230.044 140.815 231.048 141.432 231.274 142.272L232.504 147.113C232.83 148.521 231.876 149.806 230.32 149.806Z" stroke="#418154" stroke-width="3" stroke-miterlimit="10" stroke-linecap="round" stroke-linejoin="round"/>
<path d="M176.104 153.264V93.4401C176.104 91.1924 177.384 89.1423 178.965 88.8212L199.271 84.8198C201.304 84.4246 202.961 86.203 202.961 88.7718V157.932C202.961 160.525 201.279 162.279 199.271 161.884L178.965 157.882C177.384 157.586 176.104 155.511 176.104 153.264Z" fill="#92D6E9"/>
<path d="M176.104 153.264V93.4401C176.104 91.1924 177.384 89.1423 178.965 88.8212L199.271 84.8198C201.304 84.4246 202.961 86.203 202.961 88.7718V157.932C202.961 160.525 201.279 162.279 199.271 161.884L178.965 157.882C177.384 157.586 176.104 155.511 176.104 153.264Z" stroke="#418154" stroke-width="3" stroke-miterlimit="10" stroke-linecap="round" stroke-linejoin="round"/>
<path d="M172.866 152.523V94.2305C172.866 92.0569 174.096 89.9821 175.652 89.6363L195.958 84.968C198.016 84.4987 199.748 86.203 199.748 88.7965V157.957C199.748 160.55 198.042 162.254 195.958 161.785L175.677 157.117C174.096 156.746 172.866 154.696 172.866 152.523Z" fill="#CBEDF9"/>
<path d="M195.958 157.808L175.677 153.14C174.121 152.769 172.891 150.719 172.891 148.546V152.498C172.891 154.671 174.121 156.746 175.677 157.092L195.958 161.76C198.016 162.23 199.748 160.525 199.748 157.932V153.98C199.748 156.598 198.016 158.302 195.958 157.808Z" fill="#92D6E9"/>
<path d="M195.958 84.968L175.677 89.6363C174.121 90.0068 172.891 92.0569 172.891 94.2305V97.1945C172.891 95.0209 174.121 92.9461 175.677 92.6003L195.958 87.932C198.016 87.4627 199.748 89.167 199.748 91.7605V88.7965C199.748 86.203 198.016 84.4987 195.958 84.968Z" fill="#E8F9FF"/>
<path d="M196.585 105.815C197.237 105.815 197.765 104.643 197.765 103.197C197.765 101.751 197.237 100.578 196.585 100.578C195.934 100.578 195.406 101.751 195.406 103.197C195.406 104.643 195.934 105.815 196.585 105.815Z" fill="#418154"/>
<path d="M172.866 152.523V94.2305C172.866 92.0569 174.096 89.9821 175.652 89.6363L195.958 84.968C198.016 84.4987 199.748 86.203 199.748 88.7965V157.957C199.748 160.55 198.042 162.254 195.958 161.785L175.677 157.117C174.096 156.746 172.866 154.696 172.866 152.523Z" stroke="#418154" stroke-width="3" stroke-miterlimit="10" stroke-linecap="round" stroke-linejoin="round"/>
<path d="M185.315 138.616C189.183 138.616 192.318 132.578 192.318 125.13C192.318 117.682 189.183 111.644 185.315 111.644C181.448 111.644 178.312 117.682 178.312 125.13C178.312 132.578 181.448 138.616 185.315 138.616Z" fill="#9FBDCA" stroke="#9FBDCA" stroke-width="3" stroke-miterlimit="10" stroke-linecap="round" stroke-linejoin="round"/>
<path d="M185.065 139.827C186.257 139.827 187.223 138.964 187.223 137.9C187.223 136.836 186.257 135.974 185.065 135.974C183.873 135.974 182.906 136.836 182.906 137.9C182.906 138.964 183.873 139.827 185.065 139.827Z" fill="#9FBDCA" stroke="#9FBDCA" stroke-width="3" stroke-miterlimit="10" stroke-linecap="round" stroke-linejoin="round"/>
<path d="M185.617 137.209C189.748 137.209 193.096 131.071 193.096 123.5C193.096 115.929 189.748 109.792 185.617 109.792C181.486 109.792 178.137 115.929 178.137 123.5C178.137 131.071 181.486 137.209 185.617 137.209Z" fill="#CBEDF9"/>
<path d="M185.065 134.862C188.309 134.862 190.938 129.775 190.938 123.5C190.938 117.225 188.309 112.138 185.065 112.138C181.821 112.138 179.191 117.225 179.191 123.5C179.191 129.775 181.821 134.862 185.065 134.862Z" fill="#92D6E9"/>
<g opacity="0.23">
<path d="M178.563 123.5L189.557 123.92L186.294 137.159L182.68 136.122L178.137 123.5" fill="#0A1E2B"/>
<path d="M178.563 123.5L189.557 123.92L186.294 137.159L182.68 136.122L178.137 123.5" stroke="#0A1E2B" stroke-width="3" stroke-miterlimit="10" stroke-linecap="round" stroke-linejoin="round"/>
</g>
<path d="M185.617 137.209C189.748 137.209 193.096 131.071 193.096 123.5C193.096 115.929 189.748 109.792 185.617 109.792C181.486 109.792 178.137 115.929 178.137 123.5C178.137 131.071 181.486 137.209 185.617 137.209Z" stroke="#418154" stroke-width="3" stroke-miterlimit="10" stroke-linecap="round" stroke-linejoin="round"/>
<path opacity="0.23" d="M172.866 114.114C171.762 114.114 170.858 113.225 170.858 112.138V106.21C170.858 105.123 171.762 104.234 172.866 104.234C173.97 104.234 174.874 105.123 174.874 106.21V112.138C174.874 113.225 173.97 114.114 172.866 114.114Z" fill="#0A1E2B" stroke="#0A1E2B" stroke-width="3" stroke-miterlimit="10" stroke-linecap="round" stroke-linejoin="round"/>
<path opacity="0.23" d="M172.866 146.348C171.762 146.348 170.858 145.458 170.858 144.372V138.444C170.858 137.357 171.762 136.468 172.866 136.468C173.97 136.468 174.874 137.357 174.874 138.444V144.372C174.874 145.458 173.97 146.348 172.866 146.348Z" fill="#0A1E2B" stroke="#0A1E2B" stroke-width="3" stroke-miterlimit="10" stroke-linecap="round" stroke-linejoin="round"/>
<path d="M172.866 112.138C171.762 112.138 170.858 111.249 170.858 110.162V104.234C170.858 103.147 171.762 102.258 172.866 102.258C173.97 102.258 174.874 103.147 174.874 104.234V110.162C174.874 111.249 173.97 112.138 172.866 112.138Z" fill="#92D6E9"/>
<path d="M172.866 144.495C171.762 144.495 170.858 143.606 170.858 142.519V136.591C170.858 135.504 171.762 134.615 172.866 134.615C173.97 134.615 174.874 135.504 174.874 136.591V142.519C174.874 143.606 173.97 144.495 172.866 144.495Z" fill="#92D6E9"/>
<path d="M172.866 112.138C171.762 112.138 170.858 111.249 170.858 110.162V104.234C170.858 103.147 171.762 102.258 172.866 102.258C173.97 102.258 174.874 103.147 174.874 104.234V110.162C174.874 111.249 173.97 112.138 172.866 112.138Z" stroke="#418154" stroke-width="3" stroke-miterlimit="10" stroke-linecap="round" stroke-linejoin="round"/>
<path d="M172.866 144.495C171.762 144.495 170.858 143.606 170.858 142.519V136.591C170.858 135.504 171.762 134.615 172.866 134.615C173.97 134.615 174.874 135.504 174.874 136.591V142.519C174.874 143.606 173.97 144.495 172.866 144.495Z" stroke="#418154" stroke-width="3" stroke-miterlimit="10" stroke-linecap="round" stroke-linejoin="round"/>
<path d="M256.198 85.7831L251.127 85.0915" stroke="#418154" stroke-width="3" stroke-miterlimit="10" stroke-linecap="round" stroke-linejoin="round"/>
<path d="M244.125 77.9532L243.372 72.9638" stroke="#418154" stroke-width="3" stroke-miterlimit="10" stroke-linecap="round" stroke-linejoin="round"/>
<path d="M249.145 79.7563L252.784 76.1748" stroke="#418154" stroke-width="3" stroke-miterlimit="10" stroke-linecap="round" stroke-linejoin="round"/>
<path d="M184.261 118.437H180.321V128.588H184.261C185.993 128.588 187.374 126.316 187.374 123.525C187.374 120.734 185.968 118.437 184.261 118.437Z" fill="#3CA4B5"/>
<path d="M184.261 118.437H180.321V128.588H184.261C185.993 128.588 187.374 126.316 187.374 123.525C187.374 120.734 185.968 118.437 184.261 118.437Z" stroke="#418154" stroke-width="3" stroke-miterlimit="10" stroke-linecap="round" stroke-linejoin="round"/>
<path d="M184.261 128.564C185.98 128.564 187.374 126.297 187.374 123.5C187.374 120.704 185.98 118.437 184.261 118.437C182.542 118.437 181.149 120.704 181.149 123.5C181.149 126.297 182.542 128.564 184.261 128.564Z" stroke="#418154" stroke-width="5" stroke-miterlimit="10" stroke-linecap="round" stroke-linejoin="round"/>
<path d="M189.181 123.5H184.036" stroke="#418154" stroke-width="4.5" stroke-miterlimit="10" stroke-linecap="round" stroke-linejoin="round"/>
<path d="M181.124 118.436H184.261V114.46L181.124 118.436Z" stroke="#418154" stroke-width="3" stroke-miterlimit="10" stroke-linecap="round" stroke-linejoin="round"/>
<path d="M181.124 118.436H184.261V114.46L181.124 118.436Z" fill="#418154"/>
<path d="M181.124 128.563H184.261V132.54L181.124 128.563Z" fill="#418154"/>
<path d="M181.124 128.563H184.261V132.54L181.124 128.563Z" stroke="#418154" stroke-width="3" stroke-miterlimit="10" stroke-linecap="round" stroke-linejoin="round"/>
<path d="M180.32 128.564C182.039 128.564 183.433 126.297 183.433 123.5C183.433 120.704 182.039 118.437 180.32 118.437C178.601 118.437 177.208 120.704 177.208 123.5C177.208 126.297 178.601 128.564 180.32 128.564Z" fill="#FFEA9E"/>
<path d="M180.07 125.97C180.915 125.97 181.601 124.864 181.601 123.5C181.601 122.136 180.915 121.03 180.07 121.03C179.224 121.03 178.539 122.136 178.539 123.5C178.539 124.864 179.224 125.97 180.07 125.97Z" fill="#FFE07D"/>
<path d="M180.32 128.564C182.039 128.564 183.433 126.297 183.433 123.5C183.433 120.704 182.039 118.437 180.32 118.437C178.601 118.437 177.208 120.704 177.208 123.5C177.208 126.297 178.601 128.564 180.32 128.564Z" stroke="#418154" stroke-width="3" stroke-miterlimit="10" stroke-linecap="round" stroke-linejoin="round"/>
<path d="M207.83 156.746L202.735 157.24V89.4881L207.83 89.9821C209.462 90.1303 210.767 91.5876 210.767 93.1931V153.511C210.767 155.141 209.462 156.598 207.83 156.746Z" fill="#CBEDF9"/>
<path opacity="0.23" d="M210.918 115.25V108.186H205.32V115.67H205.345C205.345 117.202 206.6 118.437 208.157 118.437C209.713 118.437 210.968 117.202 210.968 115.67C210.968 115.522 210.943 115.398 210.918 115.25Z" fill="#0A1E2B" stroke="#0A1E2B" stroke-width="3" stroke-miterlimit="10" stroke-linecap="round" stroke-linejoin="round"/>
<path d="M210.767 93.1931V153.51C210.767 154.77 209.989 155.931 208.909 156.45C208.608 156.598 208.257 156.697 207.905 156.721L202.986 157.215V89.4881L207.905 89.9821C208.257 90.0068 208.583 90.1056 208.909 90.2538C209.989 90.7972 210.767 91.9334 210.767 93.1931Z" stroke="#418154" stroke-width="3" stroke-miterlimit="10" stroke-linecap="round" stroke-linejoin="round"/>
<path d="M232.93 149.213L239.004 155.264" stroke="#418154" stroke-width="3" stroke-miterlimit="10" stroke-linecap="round" stroke-linejoin="round"/>
<path d="M208.232 104.926C206.676 104.926 205.421 106.161 205.421 107.692C205.421 109.223 206.676 110.458 208.232 110.458H210.968V104.95H208.232V104.926Z" fill="#92D6E9"/>
<path d="M208.232 104.926C206.676 104.926 205.421 106.161 205.421 107.692C205.421 109.223 206.676 110.458 208.232 110.458H210.968V104.95H208.232V104.926Z" stroke="#418154" stroke-width="3" stroke-miterlimit="10" stroke-linecap="round" stroke-linejoin="round"/>
<path d="M210.968 110.458C212.521 110.458 213.779 109.22 213.779 107.692C213.779 106.164 212.521 104.926 210.968 104.926C209.415 104.926 208.157 106.164 208.157 107.692C208.157 109.22 209.415 110.458 210.968 110.458Z" fill="#CBEDF9"/>
<path d="M210.968 110.458C212.521 110.458 213.779 109.22 213.779 107.692C213.779 106.164 212.521 104.926 210.968 104.926C209.415 104.926 208.157 106.164 208.157 107.692C208.157 109.22 209.415 110.458 210.968 110.458Z" stroke="#418154" stroke-width="3" stroke-miterlimit="10" stroke-linecap="round" stroke-linejoin="round"/>
<path d="M210.968 110.458C212.521 110.458 213.779 109.22 213.779 107.692C213.779 106.164 212.521 104.926 210.968 104.926C209.415 104.926 208.157 106.164 208.157 107.692C208.157 109.22 209.415 110.458 210.968 110.458Z" stroke="#418154" stroke-width="3" stroke-miterlimit="10" stroke-linecap="round" stroke-linejoin="round"/>
<path opacity="0.23" d="M210.918 146.792V139.728H205.32V147.212H205.345C205.345 148.743 206.6 149.978 208.157 149.978C209.713 149.978 210.968 148.743 210.968 147.212C210.968 147.064 210.943 146.916 210.918 146.792Z" fill="#0A1E2B" stroke="#0A1E2B" stroke-width="3" stroke-miterlimit="10" stroke-linecap="round" stroke-linejoin="round"/>
<path d="M208.232 136.468C206.676 136.468 205.421 137.703 205.421 139.234C205.421 140.765 206.676 142 208.232 142H210.968V136.492H208.232V136.468Z" fill="#92D6E9"/>
<path d="M208.232 136.468C206.676 136.468 205.421 137.703 205.421 139.234C205.421 140.765 206.676 142 208.232 142H210.968V136.492H208.232V136.468Z" stroke="#418154" stroke-width="3" stroke-miterlimit="10" stroke-linecap="round" stroke-linejoin="round"/>
<path d="M210.968 141.976C212.521 141.976 213.779 140.737 213.779 139.209C213.779 137.681 212.521 136.443 210.968 136.443C209.415 136.443 208.157 137.681 208.157 139.209C208.157 140.737 209.415 141.976 210.968 141.976Z" fill="#CBEDF9"/>
<path d="M210.968 141.976C212.521 141.976 213.779 140.737 213.779 139.209C213.779 137.681 212.521 136.443 210.968 136.443C209.415 136.443 208.157 137.681 208.157 139.209C208.157 140.737 209.415 141.976 210.968 141.976Z" stroke="#418154" stroke-width="3" stroke-miterlimit="10" stroke-linecap="round" stroke-linejoin="round"/>
<path d="M194.201 141.358C193.649 141.358 193.197 140.913 193.197 140.37V105.296C193.197 104.753 193.649 104.308 194.201 104.308H196.259V102.085H193.95C192.293 102.085 190.938 103.419 190.938 105.049V140.617C190.938 142.247 192.293 143.581 193.95 143.581H196.259V141.358H194.201Z" fill="#92D6E9"/>
<path d="M196.585 144.915C197.237 144.915 197.765 143.743 197.765 142.297C197.765 140.851 197.237 139.678 196.585 139.678C195.934 139.678 195.406 140.851 195.406 142.297C195.406 143.743 195.934 144.915 196.585 144.915Z" fill="#418154"/>
<path d="M194.201 141.358C193.649 141.358 193.197 140.913 193.197 140.37V105.296C193.197 104.753 193.649 104.308 194.201 104.308H196.259V102.085H193.95C192.293 102.085 190.938 103.419 190.938 105.049V140.617C190.938 142.247 192.293 143.581 193.95 143.581H196.259V141.358H194.201Z" stroke="#418154" stroke-width="3" stroke-miterlimit="10" stroke-linecap="round" stroke-linejoin="round"/>
<path d="M239.13 165.366H173.87C168.323 165.366 163.83 160.945 163.83 155.486V91.2665C163.83 85.8078 168.323 81.3865 173.87 81.3865H239.13C244.677 81.3865 249.17 85.8078 249.17 91.2665V155.486C249.17 160.945 244.677 165.366 239.13 165.366Z" stroke="#418154" stroke-width="3" stroke-miterlimit="10" stroke-linecap="round" stroke-linejoin="round"/>
<path opacity="0.23" d="M196.334 105.346L196.585 149.213" stroke="#0A1E2B" stroke-width="4" stroke-miterlimit="10" stroke-linecap="round" stroke-linejoin="round"/>
<path d="M196.108 84.8939L199.999 84.7704" stroke="#418154" stroke-width="3" stroke-miterlimit="10" stroke-linecap="round" stroke-linejoin="round"/>
<path d="M196.46 161.834L200.049 161.933" stroke="#418154" stroke-width="3" stroke-miterlimit="10" stroke-linecap="round" stroke-linejoin="round"/>
</g>
<defs>
<filter id="filter0_d_398_4263" x="-4" y="0" width="415" height="255" filterUnits="userSpaceOnUse" color-interpolation-filters="sRGB">
<feFlood flood-opacity="0" result="BackgroundImageFix"/>
<feColorMatrix in="SourceAlpha" type="matrix" values="0 0 0 0 0 0 0 0 0 0 0 0 0 0 0 0 0 0 127 0" result="hardAlpha"/>
<feOffset dy="4"/>
<feGaussianBlur stdDeviation="2"/>
<feComposite in2="hardAlpha" operator="out"/>
<feColorMatrix type="matrix" values="0 0 0 0 0 0 0 0 0 0 0 0 0 0 0 0 0 0 0.25 0"/>
<feBlend mode="normal" in2="BackgroundImageFix" result="effect1_dropShadow_398_4263"/>
<feBlend mode="normal" in="SourceGraphic" in2="effect1_dropShadow_398_4263" result="shape"/>
</filter>
</defs>
</svg>
