<svg width="251" height="247" viewBox="0 0 251 247" fill="none" xmlns="http://www.w3.org/2000/svg">
<rect width="251" height="247" rx="123.5" fill="#E1C512"/>
<path d="M125.5 174.95C150.813 174.95 171.333 172.429 171.333 169.318C171.333 166.208 150.813 163.687 125.5 163.687C100.187 163.687 79.6673 166.208 79.6673 169.318C79.6673 172.429 100.187 174.95 125.5 174.95Z" fill="#212552"/>
<path d="M115.334 165.342V163.514C115.334 162.699 114.657 162.032 113.828 162.032H97.2625C96.4342 162.032 95.7565 162.699 95.7565 163.514V168.948C95.7565 169.763 96.4342 170.43 97.2625 170.43H108.281C109.486 170.43 110.641 169.961 111.494 169.121L115.334 165.342Z" fill="#92D6E9"/>
<path opacity="0.3" d="M113.828 162.032H97.2625C96.4342 162.032 95.7565 162.699 95.7565 163.514V168.553H112.071L115.334 165.342V163.514C115.334 162.699 114.657 162.032 113.828 162.032Z" fill="#0A1E2B" stroke="#0A1E2B" stroke-width="3" stroke-miterlimit="10" stroke-linecap="round" stroke-linejoin="round"/>
<path d="M135.666 165.342V163.514C135.666 162.699 136.343 162.032 137.172 162.032H153.738C154.566 162.032 155.244 162.699 155.244 163.514V168.948C155.244 169.763 154.566 170.43 153.738 170.43H142.719C141.514 170.43 140.359 169.961 139.506 169.121L135.666 165.342Z" fill="#92D6E9"/>
<path opacity="0.3" d="M153.738 162.032H137.172C136.343 162.032 135.666 162.699 135.666 163.514V165.342L138.929 168.553H155.244V163.514C155.244 162.699 154.566 162.032 153.738 162.032Z" fill="#0A1E2B" stroke="#0A1E2B" stroke-width="3" stroke-miterlimit="10" stroke-linecap="round" stroke-linejoin="round"/>
<path d="M115.334 165.342V163.514C115.334 162.699 114.657 162.032 113.828 162.032H97.2625C96.4342 162.032 95.7565 162.699 95.7565 163.514V168.948C95.7565 169.763 96.4342 170.43 97.2625 170.43H108.281C109.486 170.43 110.641 169.961 111.494 169.121L115.334 165.342Z" stroke="#212552" stroke-width="3" stroke-miterlimit="10" stroke-linecap="round" stroke-linejoin="round"/>
<path d="M135.666 165.342V163.514C135.666 162.699 136.343 162.032 137.172 162.032H153.738C154.566 162.032 155.244 162.699 155.244 163.514V168.948C155.244 169.763 154.566 170.43 153.738 170.43H142.719C141.514 170.43 140.359 169.961 139.506 169.121L135.666 165.342Z" stroke="#212552" stroke-width="3" stroke-miterlimit="10" stroke-linecap="round" stroke-linejoin="round"/>
<path d="M158.13 165.366H92.8701C87.323 165.366 82.8301 160.945 82.8301 155.486V91.2665C82.8301 85.8078 87.323 81.3865 92.8701 81.3865H158.13C163.677 81.3865 168.17 85.8078 168.17 91.2665V155.486C168.17 160.945 163.677 165.366 158.13 165.366Z" fill="#CBEDF9"/>
<path d="M158.13 81.3865H92.8701C87.323 81.3865 82.8301 85.8078 82.8301 91.2665V96.9475C82.8301 91.4888 87.323 87.0675 92.8701 87.0675H158.13C163.677 87.0675 168.17 91.4888 168.17 96.9475V91.2665C168.17 85.8078 163.677 81.3865 158.13 81.3865Z" fill="#E8F9FF"/>
<path d="M158.13 159.686H92.8701C87.323 159.686 82.8301 155.264 82.8301 149.806V155.487C82.8301 160.945 87.323 165.367 92.8701 165.367H158.13C163.677 165.367 168.17 160.945 168.17 155.487V149.806C168.17 155.264 163.677 159.686 158.13 159.686Z" fill="#92D6E9"/>
<path opacity="0.23" d="M92.5439 155.264L101.68 165.367H118.748L129.767 165.292L127.583 149.213L92.5439 155.264Z" fill="#0A1E2B" stroke="#0A1E2B" stroke-width="3" stroke-miterlimit="10" stroke-linecap="round" stroke-linejoin="round"/>
<path d="M95.8823 156.475C93.6735 156.475 91.8663 154.696 91.8663 152.523V94.2305C91.8663 92.0569 93.6735 90.2785 95.8823 90.2785H155.118C157.327 90.2785 159.134 92.0569 159.134 94.2305V152.523C159.134 154.696 157.327 156.475 155.118 156.475H95.8823Z" fill="#92D6E9"/>
<path d="M159.134 94.2305V152.523C159.134 154.696 157.327 156.475 155.118 156.475H95.8823C93.6735 156.475 91.8663 154.696 91.8663 152.523V94.2305C91.8663 92.0569 93.6735 90.2785 95.8823 90.2785H127.86C128.989 90.7972 129.767 91.9581 129.767 93.2178V95.7619H150.5C151.152 95.7619 151.755 96.0336 152.181 96.4535L157.377 90.9701C158.431 91.6617 159.134 92.872 159.134 94.2305Z" stroke="#212552" stroke-width="3" stroke-miterlimit="10" stroke-linecap="round" stroke-linejoin="round"/>
<path opacity="0.23" d="M148.316 146.199L162.02 153.757L164.781 145.31L157.377 140.321L148.316 146.199Z" fill="#0A1E2B" stroke="#0A1E2B" stroke-width="3" stroke-miterlimit="10" stroke-linecap="round" stroke-linejoin="round"/>
<path d="M157.377 90.9701L152.181 96.4535C151.755 96.0336 151.152 95.7619 150.5 95.7619H129.767V93.2178C129.767 91.9581 128.964 90.7972 127.859 90.2785H155.118C155.946 90.2785 156.75 90.5255 157.377 90.9701Z" fill="#53ADBC"/>
<path d="M157.377 90.9701L152.181 96.4535C151.755 96.0336 151.152 95.7619 150.5 95.7619H129.767V93.2178C129.767 91.9581 128.964 90.7972 127.859 90.2785H155.118C155.946 90.2785 156.75 90.5255 157.377 90.9701Z" stroke="#212552" stroke-width="3" stroke-miterlimit="10" stroke-linecap="round" stroke-linejoin="round"/>
<path d="M152.182 96.4288C152.608 96.8487 152.884 97.4415 152.884 98.0837V147.212C152.884 148.645 151.705 149.781 150.274 149.781H129.767" stroke="#212552" stroke-width="3" stroke-miterlimit="10" stroke-linecap="round" stroke-linejoin="round"/>
<path d="M166.162 138.987L161.619 127.403C161.368 126.736 160.59 126.415 159.912 126.662L148.792 130.91L137.673 135.134C136.995 135.381 136.669 136.146 136.92 136.813L141.463 148.398C141.714 149.065 142.492 149.386 143.17 149.139L154.289 144.915L165.409 140.691C166.086 140.395 166.438 139.654 166.162 138.987Z" fill="#5F9E71" stroke="#212552" stroke-width="3" stroke-miterlimit="10" stroke-linecap="round" stroke-linejoin="round"/>
<path d="M166.162 138.987L161.619 127.403C161.368 126.736 160.59 126.415 159.912 126.662L148.792 130.91L137.673 135.134C136.995 135.381 136.669 136.146 136.92 136.813L141.463 148.398C141.714 149.065 142.492 149.386 143.17 149.139L154.289 144.915L165.409 140.691C166.086 140.395 166.438 139.654 166.162 138.987Z" stroke="#212552" stroke-width="3" stroke-miterlimit="10" stroke-linecap="round" stroke-linejoin="round"/>
<path d="M162.974 138.419L161.795 135.43C161.092 135.702 160.314 135.356 160.038 134.664C159.761 133.973 160.113 133.207 160.816 132.935L159.636 129.947C159.485 129.601 159.084 129.403 158.732 129.551L149.847 132.935L149.646 133.009L140.761 136.393C140.409 136.542 140.209 136.937 140.359 137.283L141.539 140.271C142.242 140 143.02 140.345 143.296 141.037C143.572 141.729 143.221 142.494 142.518 142.766L143.697 145.755C143.848 146.1 144.25 146.298 144.601 146.15L153.486 142.766L153.687 142.692L162.573 139.308C162.924 139.184 163.1 138.789 162.974 138.419Z" fill="#90C49E"/>
<path d="M152.727 140.962C154.369 140.338 155.161 138.459 154.496 136.767C153.832 135.075 151.962 134.21 150.32 134.834C148.677 135.459 147.885 137.337 148.55 139.029C149.215 140.722 151.085 141.587 152.727 140.962Z" fill="white"/>
<path opacity="0.23" d="M146.057 140.321L154.968 128.564L154.616 117.078L146.057 140.321Z" fill="#0A1E2B" stroke="#0A1E2B" stroke-width="3" stroke-miterlimit="10" stroke-linecap="round" stroke-linejoin="round"/>
<path d="M140.51 141.284H136.519L138.075 146.817L138.803 148.669L140.51 141.284Z" fill="#A78B75"/>
<path d="M135.264 149.806H126.906C125.349 149.806 124.396 148.546 124.772 147.113L126.002 142.272C126.203 141.432 127.232 140.815 128.286 140.815H133.934C134.988 140.815 135.992 141.432 136.218 142.272L137.448 147.113C137.774 148.521 136.82 149.806 135.264 149.806Z" fill="#FFE07D"/>
<path d="M137.422 147.113L136.193 142.272C135.992 141.432 134.963 140.815 133.908 140.815H128.261C127.207 140.815 126.203 141.432 125.977 142.272L125.952 142.396C126.178 142.346 126.404 142.321 126.629 142.321H132.277C133.331 142.321 134.335 142.939 134.561 143.779L135.791 148.62C135.891 149.015 135.891 149.41 135.791 149.756C137.021 149.509 137.724 148.373 137.422 147.113Z" fill="#FFE8A6"/>
<path d="M135.264 149.806H126.906C125.349 149.806 124.396 148.546 124.772 147.113L126.002 142.272C126.203 141.432 127.232 140.815 128.286 140.815H133.934C134.988 140.815 135.992 141.432 136.218 142.272L137.448 147.113C137.774 148.521 136.82 149.806 135.264 149.806Z" stroke="#212552" stroke-width="3" stroke-miterlimit="10" stroke-linecap="round" stroke-linejoin="round"/>
<path d="M128.863 140.815H120.505C118.949 140.815 117.995 139.555 118.371 138.122L119.601 133.281C119.802 132.441 120.831 131.824 121.885 131.824H127.508C128.562 131.824 129.566 132.441 129.792 133.281L131.022 138.122C131.373 139.53 130.419 140.815 128.863 140.815Z" fill="#FFE07D"/>
<path d="M128.863 140.815H120.505C118.949 140.815 117.995 139.555 118.371 138.122L119.601 133.281C119.802 132.441 120.831 131.824 121.885 131.824H127.508C128.562 131.824 129.566 132.441 129.792 133.281L131.022 138.122C131.373 139.53 130.419 140.815 128.863 140.815Z" stroke="#212552" stroke-width="3" stroke-miterlimit="10" stroke-linecap="round" stroke-linejoin="round"/>
<path d="M153.838 116.312L142.016 111.965C141.338 111.718 140.585 112.064 140.334 112.731L136.168 123.722L132.001 134.714C131.75 135.381 132.101 136.122 132.779 136.369L144.601 140.716C145.279 140.963 146.032 140.617 146.283 139.95L150.45 128.959L154.616 117.967C154.867 117.3 154.516 116.559 153.838 116.312Z" fill="#5F9E71" stroke="#212552" stroke-width="3" stroke-miterlimit="10" stroke-linecap="round" stroke-linejoin="round"/>
<path d="M151.278 118.288L148.241 117.177C147.99 117.868 147.187 118.214 146.484 117.967C145.781 117.72 145.43 116.93 145.681 116.238L142.644 115.127C142.267 115.003 141.865 115.176 141.74 115.522L138.402 124.315L138.326 124.513L134.988 133.306C134.863 133.676 135.038 134.072 135.39 134.195L138.427 135.307C138.678 134.615 139.481 134.269 140.184 134.516C140.887 134.763 141.238 135.554 140.987 136.245L144.024 137.357C144.401 137.48 144.802 137.307 144.928 136.962L148.266 128.168L148.341 127.971L151.68 119.178C151.83 118.832 151.654 118.437 151.278 118.288Z" fill="#90C49E"/>
<path d="M146.411 127.476C147.026 125.853 146.125 124.023 144.398 123.388C142.67 122.754 140.771 123.555 140.155 125.178C139.54 126.801 140.441 128.632 142.168 129.266C143.895 129.901 145.795 129.099 146.411 127.476Z" fill="white"/>
<path d="M153.838 116.312L142.016 111.965C141.338 111.718 140.585 112.064 140.334 112.731L136.168 123.722L132.001 134.714C131.75 135.381 132.101 136.122 132.779 136.369L144.601 140.716C145.279 140.963 146.032 140.617 146.283 139.95L150.45 128.959L154.616 117.967C154.867 117.3 154.516 116.559 153.838 116.312Z" stroke="#212552" stroke-width="3" stroke-miterlimit="10" stroke-linecap="round" stroke-linejoin="round"/>
<path d="M134.988 132.54L130.093 132.318L131.524 137.208L133.281 139.925L134.988 132.54Z" fill="#A78B75"/>
<path d="M142.543 140.815H134.185C132.628 140.815 131.675 139.555 132.051 138.122L133.281 133.281C133.482 132.441 134.511 131.824 135.565 131.824H141.213C142.267 131.824 143.271 132.441 143.497 133.281L144.727 138.122C145.053 139.53 144.099 140.815 142.543 140.815Z" fill="#FFE07D"/>
<path d="M144.676 138.122L143.446 133.281C143.245 132.441 142.216 131.824 141.162 131.824H135.54C134.486 131.824 133.482 132.441 133.256 133.281L133.18 133.578C133.482 133.479 133.783 133.405 134.109 133.405H139.757C140.811 133.405 141.815 134.022 142.041 134.862L143.271 139.703C143.346 140.049 143.371 140.37 143.321 140.691C144.4 140.345 144.977 139.283 144.676 138.122Z" fill="#FFE8A6"/>
<path d="M142.543 140.815H134.185C132.628 140.815 131.675 139.555 132.051 138.122L133.281 133.281C133.482 132.441 134.511 131.824 135.565 131.824H141.213C142.267 131.824 143.271 132.441 143.497 133.281L144.727 138.122C145.053 139.53 144.099 140.815 142.543 140.815Z" stroke="#212552" stroke-width="3" stroke-miterlimit="10" stroke-linecap="round" stroke-linejoin="round"/>
<path d="M136.092 131.824H127.734C126.178 131.824 125.224 130.564 125.6 129.132L126.83 124.29C127.031 123.451 128.06 122.833 129.114 122.833H134.762C135.816 122.833 136.82 123.451 137.046 124.29L138.276 129.132C138.577 130.54 137.648 131.824 136.092 131.824Z" fill="#FFE07D"/>
<path d="M138.226 129.132L136.996 124.29C136.795 123.451 135.766 122.833 134.712 122.833H129.064C128.01 122.833 127.006 123.451 126.78 124.29V124.34C127.031 124.266 127.307 124.216 127.583 124.216H133.231C134.285 124.216 135.289 124.834 135.515 125.674L136.745 130.515C136.845 130.935 136.845 131.355 136.72 131.725C137.899 131.429 138.527 130.342 138.226 129.132Z" fill="#FFE8A6"/>
<path d="M136.092 131.824H127.734C126.178 131.824 125.224 130.564 125.6 129.132L126.83 124.29C127.031 123.451 128.06 122.833 129.114 122.833H134.762C135.816 122.833 136.82 123.451 137.046 124.29L138.276 129.132C138.577 130.54 137.648 131.824 136.092 131.824Z" stroke="#212552" stroke-width="3" stroke-miterlimit="10" stroke-linecap="round" stroke-linejoin="round"/>
<path opacity="0.23" d="M155.118 90.2785H114.406L115.585 126.242H137.648L154.616 117.078L159.134 100.578V94.2305C159.134 92.0322 157.327 90.2785 155.118 90.2785Z" fill="#0A1E2B" stroke="#0A1E2B" stroke-width="3" stroke-miterlimit="10" stroke-linecap="round" stroke-linejoin="round"/>
<path d="M149.32 149.806H140.962C139.405 149.806 138.452 148.546 138.828 147.113L140.058 142.272C140.259 141.432 141.288 140.815 142.342 140.815H147.99C149.044 140.815 150.048 141.432 150.274 142.272L151.504 147.113C151.83 148.521 150.876 149.806 149.32 149.806Z" fill="#FFE07D"/>
<path d="M151.453 147.113L150.223 142.272C150.023 141.432 148.993 140.815 147.939 140.815H142.317C141.263 140.815 140.259 141.432 140.033 142.272L139.932 142.692C140.208 142.593 140.51 142.544 140.811 142.544H146.458C147.513 142.544 148.517 143.161 148.742 144.001L149.972 148.842C150.048 149.139 150.073 149.435 150.023 149.707C151.152 149.386 151.754 148.299 151.453 147.113Z" fill="#FFE8A6"/>
<path d="M149.32 149.806H140.962C139.405 149.806 138.452 148.546 138.828 147.113L140.058 142.272C140.259 141.432 141.288 140.815 142.342 140.815H147.99C149.044 140.815 150.048 141.432 150.274 142.272L151.504 147.113C151.83 148.521 150.876 149.806 149.32 149.806Z" stroke="#212552" stroke-width="3" stroke-miterlimit="10" stroke-linecap="round" stroke-linejoin="round"/>
<path d="M95.1039 153.264V93.4401C95.1039 91.1924 96.384 89.1423 97.9653 88.8212L118.271 84.8198C120.304 84.4246 121.961 86.203 121.961 88.7718V157.932C121.961 160.525 120.279 162.279 118.271 161.884L97.9653 157.882C96.384 157.586 95.1039 155.511 95.1039 153.264Z" fill="#92D6E9"/>
<path d="M95.1039 153.264V93.4401C95.1039 91.1924 96.384 89.1423 97.9653 88.8212L118.271 84.8198C120.304 84.4246 121.961 86.203 121.961 88.7718V157.932C121.961 160.525 120.279 162.279 118.271 161.884L97.9653 157.882C96.384 157.586 95.1039 155.511 95.1039 153.264Z" stroke="#212552" stroke-width="3" stroke-miterlimit="10" stroke-linecap="round" stroke-linejoin="round"/>
<path d="M91.8663 152.523V94.2305C91.8663 92.0569 93.0962 89.9821 94.6524 89.6363L114.958 84.968C117.017 84.4987 118.748 86.203 118.748 88.7965V157.957C118.748 160.55 117.042 162.254 114.958 161.785L94.6775 157.117C93.0962 156.746 91.8663 154.696 91.8663 152.523Z" fill="#CBEDF9"/>
<path d="M114.958 157.808L94.6773 153.14C93.1211 152.769 91.8912 150.719 91.8912 148.546V152.498C91.8912 154.671 93.1211 156.746 94.6773 157.092L114.958 161.76C117.016 162.23 118.748 160.525 118.748 157.932V153.98C118.748 156.598 117.016 158.302 114.958 157.808Z" fill="#92D6E9"/>
<path d="M114.958 84.968L94.6773 89.6363C93.1211 90.0068 91.8912 92.0569 91.8912 94.2305V97.1945C91.8912 95.0209 93.1211 92.9461 94.6773 92.6003L114.958 87.932C117.016 87.4627 118.748 89.167 118.748 91.7605V88.7965C118.748 86.203 117.016 84.4987 114.958 84.968Z" fill="#E8F9FF"/>
<path d="M115.585 105.815C116.237 105.815 116.765 104.643 116.765 103.197C116.765 101.751 116.237 100.578 115.585 100.578C114.934 100.578 114.406 101.751 114.406 103.197C114.406 104.643 114.934 105.815 115.585 105.815Z" fill="#212552"/>
<path d="M91.8663 152.523V94.2305C91.8663 92.0569 93.0962 89.9821 94.6524 89.6363L114.958 84.968C117.017 84.4987 118.748 86.203 118.748 88.7965V157.957C118.748 160.55 117.042 162.254 114.958 161.785L94.6775 157.117C93.0962 156.746 91.8663 154.696 91.8663 152.523Z" stroke="#212552" stroke-width="3" stroke-miterlimit="10" stroke-linecap="round" stroke-linejoin="round"/>
<path d="M104.315 138.616C108.183 138.616 111.318 132.578 111.318 125.13C111.318 117.682 108.183 111.644 104.315 111.644C100.448 111.644 97.3125 117.682 97.3125 125.13C97.3125 132.578 100.448 138.616 104.315 138.616Z" fill="#9FBDCA" stroke="#9FBDCA" stroke-width="3" stroke-miterlimit="10" stroke-linecap="round" stroke-linejoin="round"/>
<path d="M104.065 139.827C105.257 139.827 106.223 138.964 106.223 137.9C106.223 136.836 105.257 135.974 104.065 135.974C102.873 135.974 101.906 136.836 101.906 137.9C101.906 138.964 102.873 139.827 104.065 139.827Z" fill="#9FBDCA" stroke="#9FBDCA" stroke-width="3" stroke-miterlimit="10" stroke-linecap="round" stroke-linejoin="round"/>
<path d="M104.617 137.209C108.748 137.209 112.097 131.071 112.097 123.5C112.097 115.929 108.748 109.792 104.617 109.792C100.486 109.792 97.1369 115.929 97.1369 123.5C97.1369 131.071 100.486 137.209 104.617 137.209Z" fill="#CBEDF9"/>
<path d="M104.065 134.862C107.309 134.862 109.938 129.775 109.938 123.5C109.938 117.225 107.309 112.138 104.065 112.138C100.821 112.138 98.1915 117.225 98.1915 123.5C98.1915 129.775 100.821 134.862 104.065 134.862Z" fill="#92D6E9"/>
<g opacity="0.23">
<path d="M97.5636 123.5L108.557 123.92L105.294 137.159L101.68 136.122L97.1369 123.5" fill="#0A1E2B"/>
<path d="M97.5636 123.5L108.557 123.92L105.294 137.159L101.68 136.122L97.1369 123.5" stroke="#0A1E2B" stroke-width="3" stroke-miterlimit="10" stroke-linecap="round" stroke-linejoin="round"/>
</g>
<path d="M104.617 137.209C108.748 137.209 112.097 131.071 112.097 123.5C112.097 115.929 108.748 109.792 104.617 109.792C100.486 109.792 97.1369 115.929 97.1369 123.5C97.1369 131.071 100.486 137.209 104.617 137.209Z" stroke="#212552" stroke-width="3" stroke-miterlimit="10" stroke-linecap="round" stroke-linejoin="round"/>
<path opacity="0.23" d="M91.8658 114.114C90.7614 114.114 89.8578 113.225 89.8578 112.138V106.21C89.8578 105.123 90.7614 104.234 91.8658 104.234C92.9702 104.234 93.8738 105.123 93.8738 106.21V112.138C93.8738 113.225 92.9702 114.114 91.8658 114.114Z" fill="#0A1E2B" stroke="#0A1E2B" stroke-width="3" stroke-miterlimit="10" stroke-linecap="round" stroke-linejoin="round"/>
<path opacity="0.23" d="M91.8658 146.348C90.7614 146.348 89.8578 145.458 89.8578 144.372V138.444C89.8578 137.357 90.7614 136.468 91.8658 136.468C92.9702 136.468 93.8738 137.357 93.8738 138.444V144.372C93.8738 145.458 92.9702 146.348 91.8658 146.348Z" fill="#0A1E2B" stroke="#0A1E2B" stroke-width="3" stroke-miterlimit="10" stroke-linecap="round" stroke-linejoin="round"/>
<path d="M91.8658 112.138C90.7614 112.138 89.8578 111.249 89.8578 110.162V104.234C89.8578 103.147 90.7614 102.258 91.8658 102.258C92.9702 102.258 93.8738 103.147 93.8738 104.234V110.162C93.8738 111.249 92.9702 112.138 91.8658 112.138Z" fill="#92D6E9"/>
<path d="M91.8658 144.495C90.7614 144.495 89.8578 143.606 89.8578 142.519V136.591C89.8578 135.504 90.7614 134.615 91.8658 134.615C92.9702 134.615 93.8738 135.504 93.8738 136.591V142.519C93.8738 143.606 92.9702 144.495 91.8658 144.495Z" fill="#92D6E9"/>
<path d="M91.8658 112.138C90.7614 112.138 89.8578 111.249 89.8578 110.162V104.234C89.8578 103.147 90.7614 102.258 91.8658 102.258C92.9702 102.258 93.8738 103.147 93.8738 104.234V110.162C93.8738 111.249 92.9702 112.138 91.8658 112.138Z" stroke="#212552" stroke-width="3" stroke-miterlimit="10" stroke-linecap="round" stroke-linejoin="round"/>
<path d="M91.8658 144.495C90.7614 144.495 89.8578 143.606 89.8578 142.519V136.591C89.8578 135.504 90.7614 134.615 91.8658 134.615C92.9702 134.615 93.8738 135.504 93.8738 136.591V142.519C93.8738 143.606 92.9702 144.495 91.8658 144.495Z" stroke="#212552" stroke-width="3" stroke-miterlimit="10" stroke-linecap="round" stroke-linejoin="round"/>
<path d="M175.198 85.7831L170.128 85.0915" stroke="#212552" stroke-width="3" stroke-miterlimit="10" stroke-linecap="round" stroke-linejoin="round"/>
<path d="M163.125 77.9532L162.372 72.9638" stroke="#212552" stroke-width="3" stroke-miterlimit="10" stroke-linecap="round" stroke-linejoin="round"/>
<path d="M168.145 79.7563L171.784 76.1748" stroke="#212552" stroke-width="3" stroke-miterlimit="10" stroke-linecap="round" stroke-linejoin="round"/>
<path d="M103.262 118.437H99.321V128.588H103.262C104.994 128.588 106.374 126.316 106.374 123.525C106.374 120.734 104.968 118.437 103.262 118.437Z" fill="#3CA4B5"/>
<path d="M103.262 118.437H99.321V128.588H103.262C104.994 128.588 106.374 126.316 106.374 123.525C106.374 120.734 104.968 118.437 103.262 118.437Z" stroke="#212552" stroke-width="3" stroke-miterlimit="10" stroke-linecap="round" stroke-linejoin="round"/>
<path d="M103.261 128.564C104.98 128.564 106.373 126.297 106.373 123.5C106.373 120.704 104.98 118.437 103.261 118.437C101.542 118.437 100.149 120.704 100.149 123.5C100.149 126.297 101.542 128.564 103.261 128.564Z" stroke="#212552" stroke-width="5" stroke-miterlimit="10" stroke-linecap="round" stroke-linejoin="round"/>
<path d="M108.181 123.5H103.036" stroke="#212552" stroke-width="4.5" stroke-miterlimit="10" stroke-linecap="round" stroke-linejoin="round"/>
<path d="M100.124 118.436H103.261V114.46L100.124 118.436Z" stroke="#212552" stroke-width="3" stroke-miterlimit="10" stroke-linecap="round" stroke-linejoin="round"/>
<path d="M100.124 118.436H103.261V114.46L100.124 118.436Z" fill="#212552"/>
<path d="M100.124 128.563H103.261V132.54L100.124 128.563Z" fill="#212552"/>
<path d="M100.124 128.563H103.261V132.54L100.124 128.563Z" stroke="#212552" stroke-width="3" stroke-miterlimit="10" stroke-linecap="round" stroke-linejoin="round"/>
<path d="M99.3206 128.564C101.04 128.564 102.433 126.297 102.433 123.5C102.433 120.704 101.04 118.437 99.3206 118.437C97.6017 118.437 96.2082 120.704 96.2082 123.5C96.2082 126.297 97.6017 128.564 99.3206 128.564Z" fill="#FFEA9E"/>
<path d="M99.0696 125.97C99.9152 125.97 100.601 124.864 100.601 123.5C100.601 122.136 99.9152 121.03 99.0696 121.03C98.224 121.03 97.5385 122.136 97.5385 123.5C97.5385 124.864 98.224 125.97 99.0696 125.97Z" fill="#FFE07D"/>
<path d="M99.3206 128.564C101.04 128.564 102.433 126.297 102.433 123.5C102.433 120.704 101.04 118.437 99.3206 118.437C97.6017 118.437 96.2082 120.704 96.2082 123.5C96.2082 126.297 97.6017 128.564 99.3206 128.564Z" stroke="#212552" stroke-width="3" stroke-miterlimit="10" stroke-linecap="round" stroke-linejoin="round"/>
<path d="M126.83 156.746L121.735 157.24V89.4881L126.83 89.9821C128.462 90.1303 129.767 91.5876 129.767 93.1931V153.511C129.767 155.141 128.462 156.598 126.83 156.746Z" fill="#CBEDF9"/>
<path opacity="0.23" d="M129.918 115.25V108.186H124.32V115.67H124.345C124.345 117.202 125.6 118.437 127.157 118.437C128.713 118.437 129.968 117.202 129.968 115.67C129.968 115.522 129.943 115.398 129.918 115.25Z" fill="#0A1E2B" stroke="#0A1E2B" stroke-width="3" stroke-miterlimit="10" stroke-linecap="round" stroke-linejoin="round"/>
<path d="M129.767 93.1931V153.51C129.767 154.77 128.989 155.931 127.91 156.45C127.608 156.598 127.257 156.697 126.906 156.721L121.986 157.215V89.4881L126.906 89.9821C127.257 90.0068 127.583 90.1056 127.91 90.2538C128.989 90.7972 129.767 91.9334 129.767 93.1931Z" stroke="#212552" stroke-width="3" stroke-miterlimit="10" stroke-linecap="round" stroke-linejoin="round"/>
<path d="M151.93 149.213L158.004 155.264" stroke="#212552" stroke-width="3" stroke-miterlimit="10" stroke-linecap="round" stroke-linejoin="round"/>
<path d="M127.232 104.926C125.676 104.926 124.421 106.161 124.421 107.692C124.421 109.223 125.676 110.458 127.232 110.458H129.968V104.95H127.232V104.926Z" fill="#92D6E9"/>
<path d="M127.232 104.926C125.676 104.926 124.421 106.161 124.421 107.692C124.421 109.223 125.676 110.458 127.232 110.458H129.968V104.95H127.232V104.926Z" stroke="#212552" stroke-width="3" stroke-miterlimit="10" stroke-linecap="round" stroke-linejoin="round"/>
<path d="M129.968 110.458C131.52 110.458 132.779 109.22 132.779 107.692C132.779 106.164 131.52 104.926 129.968 104.926C128.415 104.926 127.157 106.164 127.157 107.692C127.157 109.22 128.415 110.458 129.968 110.458Z" fill="#CBEDF9"/>
<path d="M129.968 110.458C131.52 110.458 132.779 109.22 132.779 107.692C132.779 106.164 131.52 104.926 129.968 104.926C128.415 104.926 127.157 106.164 127.157 107.692C127.157 109.22 128.415 110.458 129.968 110.458Z" stroke="#212552" stroke-width="3" stroke-miterlimit="10" stroke-linecap="round" stroke-linejoin="round"/>
<path d="M129.968 110.458C131.52 110.458 132.779 109.22 132.779 107.692C132.779 106.164 131.52 104.926 129.968 104.926C128.415 104.926 127.157 106.164 127.157 107.692C127.157 109.22 128.415 110.458 129.968 110.458Z" stroke="#212552" stroke-width="3" stroke-miterlimit="10" stroke-linecap="round" stroke-linejoin="round"/>
<path opacity="0.23" d="M129.918 146.792V139.728H124.32V147.212H124.345C124.345 148.743 125.6 149.978 127.157 149.978C128.713 149.978 129.968 148.743 129.968 147.212C129.968 147.064 129.943 146.916 129.918 146.792Z" fill="#0A1E2B" stroke="#0A1E2B" stroke-width="3" stroke-miterlimit="10" stroke-linecap="round" stroke-linejoin="round"/>
<path d="M127.232 136.468C125.676 136.468 124.421 137.703 124.421 139.234C124.421 140.765 125.676 142 127.232 142H129.968V136.492H127.232V136.468Z" fill="#92D6E9"/>
<path d="M127.232 136.468C125.676 136.468 124.421 137.703 124.421 139.234C124.421 140.765 125.676 142 127.232 142H129.968V136.492H127.232V136.468Z" stroke="#212552" stroke-width="3" stroke-miterlimit="10" stroke-linecap="round" stroke-linejoin="round"/>
<path d="M129.968 141.976C131.52 141.976 132.779 140.737 132.779 139.209C132.779 137.681 131.52 136.443 129.968 136.443C128.415 136.443 127.157 137.681 127.157 139.209C127.157 140.737 128.415 141.976 129.968 141.976Z" fill="#CBEDF9"/>
<path d="M129.968 141.976C131.52 141.976 132.779 140.737 132.779 139.209C132.779 137.681 131.52 136.443 129.968 136.443C128.415 136.443 127.157 137.681 127.157 139.209C127.157 140.737 128.415 141.976 129.968 141.976Z" stroke="#212552" stroke-width="3" stroke-miterlimit="10" stroke-linecap="round" stroke-linejoin="round"/>
<path d="M113.201 141.358C112.649 141.358 112.197 140.913 112.197 140.37V105.296C112.197 104.753 112.649 104.308 113.201 104.308H115.259V102.085H112.95C111.293 102.085 109.938 103.419 109.938 105.049V140.617C109.938 142.247 111.293 143.581 112.95 143.581H115.259V141.358H113.201Z" fill="#92D6E9"/>
<path d="M115.585 144.915C116.237 144.915 116.765 143.743 116.765 142.297C116.765 140.851 116.237 139.678 115.585 139.678C114.934 139.678 114.406 140.851 114.406 142.297C114.406 143.743 114.934 144.915 115.585 144.915Z" fill="#212552"/>
<path d="M113.201 141.358C112.649 141.358 112.197 140.913 112.197 140.37V105.296C112.197 104.753 112.649 104.308 113.201 104.308H115.259V102.085H112.95C111.293 102.085 109.938 103.419 109.938 105.049V140.617C109.938 142.247 111.293 143.581 112.95 143.581H115.259V141.358H113.201Z" stroke="#212552" stroke-width="3" stroke-miterlimit="10" stroke-linecap="round" stroke-linejoin="round"/>
<path d="M158.13 165.366H92.8701C87.323 165.366 82.8301 160.945 82.8301 155.486V91.2665C82.8301 85.8078 87.323 81.3865 92.8701 81.3865H158.13C163.677 81.3865 168.17 85.8078 168.17 91.2665V155.486C168.17 160.945 163.677 165.366 158.13 165.366Z" stroke="#212552" stroke-width="3" stroke-miterlimit="10" stroke-linecap="round" stroke-linejoin="round"/>
<path opacity="0.23" d="M115.334 105.346L115.585 149.213" stroke="#0A1E2B" stroke-width="4" stroke-miterlimit="10" stroke-linecap="round" stroke-linejoin="round"/>
<path d="M115.108 84.8939L118.999 84.7704" stroke="#212552" stroke-width="3" stroke-miterlimit="10" stroke-linecap="round" stroke-linejoin="round"/>
<path d="M115.46 161.834L119.049 161.933" stroke="#212552" stroke-width="3" stroke-miterlimit="10" stroke-linecap="round" stroke-linejoin="round"/>
</svg>
